<svg width="19" height="15" viewBox="0 0 19 15" fill="none" xmlns="http://www.w3.org/2000/svg">
<path d="M17.3374 3.04247C17.3374 3.06987 17.3111 3.24829 16.9491 3.54422C16.6054 3.8251 16.0588 4.12494 15.3074 4.39859C13.8116 4.94331 11.6405 5.33494 9.04337 5.33494C6.4466 5.33494 4.27565 4.94331 2.77989 4.39859C2.02848 4.12494 1.4819 3.8251 1.13827 3.54422C0.776229 3.2483 0.75 3.06988 0.75 3.04247C0.75 3.01506 0.776229 2.83664 1.13827 2.54072C1.4819 2.25984 2.02848 1.96 2.77989 1.68635C4.27565 1.14163 6.4466 0.75 9.04337 0.75C11.6405 0.75 13.8116 1.14159 15.3074 1.68628C16.0589 1.95992 16.6054 2.25975 16.9491 2.54063C17.3111 2.83654 17.3374 3.01499 17.3374 3.04247Z" stroke="white" stroke-width="1.5"/>
<mask id="path-2-inside-1" fill="white">
<path d="M8.55853 7.10569C8.20968 7.10575 7.92691 7.38856 7.92691 7.73741C7.92691 7.73741 7.92691 9.99483 7.92691 11.357C6.48775 11.5944 5.40283 12.3079 5.40283 13.134C5.40283 14.1459 7.02295 15 8.94024 15C10.8579 15 12.4787 14.1459 12.4787 13.134C12.4787 12.3079 11.3925 11.5942 9.95357 11.357V7.73741C9.95357 7.38841 9.67062 7.10551 9.32163 7.10557L8.55853 7.10569Z"/>
</mask>
<path d="M7.92691 11.357L8.17106 12.837L9.42691 12.6298V11.357H7.92691ZM9.95357 11.357H8.45357V12.63L9.7096 12.837L9.95357 11.357ZM7.92691 7.73741C6.42691 7.73741 6.42691 7.73742 6.42691 7.73743C6.42691 7.73745 6.42691 7.73748 6.42691 7.73751C6.42691 7.73755 6.42691 7.73759 6.42691 7.73764C6.42691 7.73769 6.42691 7.73775 6.42691 7.73782C6.42691 7.73789 6.42691 7.73796 6.42691 7.73805C6.42691 7.73814 6.42691 7.73823 6.42691 7.73833C6.42691 7.73844 6.42691 7.73855 6.42691 7.73867C6.42691 7.73878 6.42691 7.73891 6.42691 7.73905C6.42691 7.73919 6.42691 7.73933 6.42691 7.73948C6.42691 7.73964 6.42691 7.7398 6.42691 7.73997C6.42691 7.74014 6.42691 7.74032 6.42691 7.7405C6.42691 7.74069 6.42691 7.74088 6.42691 7.74109C6.42691 7.74129 6.42691 7.7415 6.42691 7.74172C6.42691 7.74194 6.42691 7.74217 6.42691 7.74241C6.42691 7.74264 6.42691 7.74289 6.42691 7.74314C6.42691 7.74339 6.42691 7.74366 6.42691 7.74392C6.42691 7.74419 6.42691 7.74447 6.42691 7.74476C6.42691 7.74504 6.42691 7.74534 6.42691 7.74564C6.42691 7.74594 6.42691 7.74625 6.42691 7.74657C6.42691 7.74689 6.42691 7.74722 6.42691 7.74755C6.42691 7.74789 6.42691 7.74823 6.42691 7.74858C6.42691 7.74893 6.42691 7.74929 6.42691 7.74966C6.42691 7.75003 6.42691 7.7504 6.42691 7.75079C6.42691 7.75117 6.42691 7.75156 6.42691 7.75196C6.42691 7.75236 6.42691 7.75277 6.42691 7.75319C6.42691 7.7536 6.42691 7.75403 6.42691 7.75446C6.42691 7.75489 6.42691 7.75533 6.42691 7.75578C6.42691 7.75623 6.42691 7.75668 6.42691 7.75715C6.42691 7.75761 6.42691 7.75808 6.42691 7.75856C6.42691 7.75904 6.42691 7.75953 6.42691 7.76002C6.42691 7.76052 6.42691 7.76102 6.42691 7.76153C6.42691 7.76205 6.42691 7.76256 6.42691 7.76309C6.42691 7.76362 6.42691 7.76415 6.42691 7.7647C6.42691 7.76524 6.42691 7.76579 6.42691 7.76635C6.42691 7.76691 6.42691 7.76747 6.42691 7.76805C6.42691 7.76862 6.42691 7.7692 6.42691 7.76979C6.42691 7.77038 6.42691 7.77098 6.42691 7.77158C6.42691 7.77219 6.42691 7.7728 6.42691 7.77342C6.42691 7.77404 6.42691 7.77467 6.42691 7.77531C6.42691 7.77594 6.42691 7.77659 6.42691 7.77724C6.42691 7.77789 6.42691 7.77855 6.42691 7.77922C6.42691 7.77988 6.42691 7.78056 6.42691 7.78124C6.42691 7.78192 6.42691 7.78261 6.42691 7.78331C6.42691 7.784 6.42691 7.78471 6.42691 7.78542C6.42691 7.78613 6.42691 7.78685 6.42691 7.78758C6.42691 7.78831 6.42691 7.78904 6.42691 7.78979C6.42691 7.79053 6.42691 7.79128 6.42691 7.79204C6.42691 7.79279 6.42691 7.79356 6.42691 7.79433C6.42691 7.7951 6.42691 7.79588 6.42691 7.79667C6.42691 7.79746 6.42691 7.79825 6.42691 7.79906C6.42691 7.79986 6.42691 7.80067 6.42691 7.80149C6.42691 7.8023 6.42691 7.80313 6.42691 7.80396C6.42691 7.80479 6.42691 7.80563 6.42691 7.80648C6.42691 7.80733 6.42691 7.80818 6.42691 7.80904C6.42691 7.8099 6.42691 7.81077 6.42691 7.81165C6.42691 7.81252 6.42691 7.81341 6.42691 7.8143C6.42691 7.81519 6.42691 7.81609 6.42691 7.81699C6.42691 7.8179 6.42691 7.81881 6.42691 7.81973C6.42691 7.82065 6.42691 7.82158 6.42691 7.82251C6.42691 7.82345 6.42691 7.82439 6.42691 7.82534C6.42691 7.82629 6.42691 7.82724 6.42691 7.8282C6.42691 7.82917 6.42691 7.83014 6.42691 7.83112C6.42691 7.83209 6.42691 7.83308 6.42691 7.83407C6.42691 7.83506 6.42691 7.83606 6.42691 7.83707C6.42691 7.83807 6.42691 7.83909 6.42691 7.84011C6.42691 7.84113 6.42691 7.84215 6.42691 7.84319C6.42691 7.84422 6.42691 7.84526 6.42691 7.84631C6.42691 7.84736 6.42691 7.84842 6.42691 7.84948C6.42691 7.85054 6.42691 7.85161 6.42691 7.85269C6.42691 7.85376 6.42691 7.85485 6.42691 7.85594C6.42691 7.85703 6.42691 7.85813 6.42691 7.85923C6.42691 7.86033 6.42691 7.86145 6.42691 7.86256C6.42691 7.86368 6.42691 7.86481 6.42691 7.86594C6.42691 7.86707 6.42691 7.86821 6.42691 7.86936C6.42691 7.8705 6.42691 7.87166 6.42691 7.87281C6.42691 7.87397 6.42691 7.87514 6.42691 7.87631C6.42691 7.87749 6.42691 7.87867 6.42691 7.87985C6.42691 7.88104 6.42691 7.88223 6.42691 7.88344C6.42691 7.88464 6.42691 7.88584 6.42691 7.88706C6.42691 7.88827 6.42691 7.88949 6.42691 7.89072C6.42691 7.89195 6.42691 7.89318 6.42691 7.89442C6.42691 7.89566 6.42691 7.89691 6.42691 7.89816C6.42691 7.89942 6.42691 7.90068 6.42691 7.90195C6.42691 7.90322 6.42691 7.90449 6.42691 7.90577C6.42691 7.90705 6.42691 7.90834 6.42691 7.90963C6.42691 7.91093 6.42691 7.91223 6.42691 7.91354C6.42691 7.91484 6.42691 7.91616 6.42691 7.91748C6.42691 7.9188 6.42691 7.92013 6.42691 7.92146C6.42691 7.92279 6.42691 7.92413 6.42691 7.92548C6.42691 7.92683 6.42691 7.92818 6.42691 7.92954C6.42691 7.9309 6.42691 7.93227 6.42691 7.93364C6.42691 7.93501 6.42691 7.93639 6.42691 7.93778C6.42691 7.93916 6.42691 7.94055 6.42691 7.94195C6.42691 7.94335 6.42691 7.94476 6.42691 7.94617C6.42691 7.94758 6.42691 7.949 6.42691 7.95042C6.42691 7.95185 6.42691 7.95328 6.42691 7.95471C6.42691 7.95615 6.42691 7.95759 6.42691 7.95904C6.42691 7.96049 6.42691 7.96195 6.42691 7.96341C6.42691 7.96487 6.42691 7.96634 6.42691 7.96782C6.42691 7.96929 6.42691 7.97077 6.42691 7.97226C6.42691 7.97375 6.42691 7.97524 6.42691 7.97674C6.42691 7.97824 6.42691 7.97975 6.42691 7.98126C6.42691 7.98277 6.42691 7.98429 6.42691 7.98581C6.42691 7.98734 6.42691 7.98887 6.42691 7.99041C6.42691 7.99194 6.42691 7.99349 6.42691 7.99504C6.42691 7.99659 6.42691 7.99814 6.42691 7.9997C6.42691 8.00127 6.42691 8.00283 6.42691 8.00441C6.42691 8.00598 6.42691 8.00756 6.42691 8.00915C6.42691 8.01073 6.42691 8.01233 6.42691 8.01392C6.42691 8.01552 6.42691 8.01713 6.42691 8.01874C6.42691 8.02035 6.42691 8.02196 6.42691 8.02358C6.42691 8.02521 6.42691 8.02684 6.42691 8.02847C6.42691 8.0301 6.42691 8.03174 6.42691 8.03339C6.42691 8.03504 6.42691 8.03669 6.42691 8.03835C6.42691 8.04001 6.42691 8.04167 6.42691 8.04334C6.42691 8.04501 6.42691 8.04669 6.42691 8.04837C6.42691 8.05005 6.42691 8.05174 6.42691 8.05343C6.42691 8.05512 6.42691 8.05682 6.42691 8.05853C6.42691 8.06023 6.42691 8.06194 6.42691 8.06366C6.42691 8.06538 6.42691 8.0671 6.42691 8.06883C6.42691 8.07056 6.42691 8.07229 6.42691 8.07403C6.42691 8.07577 6.42691 8.07752 6.42691 8.07927C6.42691 8.08102 6.42691 8.08278 6.42691 8.08454C6.42691 8.0863 6.42691 8.08807 6.42691 8.08985C6.42691 8.09162 6.42691 8.0934 6.42691 8.09519C6.42691 8.09697 6.42691 8.09877 6.42691 8.10056C6.42691 8.10236 6.42691 8.10416 6.42691 8.10597C6.42691 8.10778 6.42691 8.10959 6.42691 8.11141C6.42691 8.11323 6.42691 8.11506 6.42691 8.11689C6.42691 8.11872 6.42691 8.12056 6.42691 8.1224C6.42691 8.12424 6.42691 8.12609 6.42691 8.12794C6.42691 8.12979 6.42691 8.13165 6.42691 8.13352C6.42691 8.13538 6.42691 8.13725 6.42691 8.13913C6.42691 8.141 6.42691 8.14288 6.42691 8.14477C6.42691 8.14665 6.42691 8.14854 6.42691 8.15044C6.42691 8.15234 6.42691 8.15424 6.42691 8.15615C6.42691 8.15806 6.42691 8.15997 6.42691 8.16189C6.42691 8.16381 6.42691 8.16573 6.42691 8.16766C6.42691 8.16959 6.42691 8.17153 6.42691 8.17347C6.42691 8.17541 6.42691 8.17735 6.42691 8.1793C6.42691 8.18125 6.42691 8.18321 6.42691 8.18517C6.42691 8.18713 6.42691 8.1891 6.42691 8.19107C6.42691 8.19304 6.42691 8.19502 6.42691 8.197C6.42691 8.19898 6.42691 8.20097 6.42691 8.20297C6.42691 8.20496 6.42691 8.20696 6.42691 8.20896C6.42691 8.21096 6.42691 8.21297 6.42691 8.21499C6.42691 8.217 6.42691 8.21902 6.42691 8.22104C6.42691 8.22307 6.42691 8.2251 6.42691 8.22713C6.42691 8.22916 6.42691 8.2312 6.42691 8.23325C6.42691 8.23529 6.42691 8.23734 6.42691 8.2394C6.42691 8.24145 6.42691 8.24351 6.42691 8.24558C6.42691 8.24764 6.42691 8.24971 6.42691 8.25179C6.42691 8.25386 6.42691 8.25594 6.42691 8.25803C6.42691 8.26011 6.42691 8.26221 6.42691 8.2643C6.42691 8.2664 6.42691 8.2685 6.42691 8.2706C6.42691 8.27271 6.42691 8.27482 6.42691 8.27693C6.42691 8.27905 6.42691 8.28117 6.42691 8.28329C6.42691 8.28542 6.42691 8.28755 6.42691 8.28968C6.42691 8.29182 6.42691 8.29396 6.42691 8.2961C6.42691 8.29824 6.42691 8.30039 6.42691 8.30255C6.42691 8.3047 6.42691 8.30686 6.42691 8.30903C6.42691 8.31119 6.42691 8.31336 6.42691 8.31553C6.42691 8.31771 6.42691 8.31988 6.42691 8.32207C6.42691 8.32425 6.42691 8.32644 6.42691 8.32863C6.42691 8.33082 6.42691 8.33302 6.42691 8.33522C6.42691 8.33743 6.42691 8.33963 6.42691 8.34185C6.42691 8.34406 6.42691 8.34627 6.42691 8.34849C6.42691 8.35072 6.42691 8.35294 6.42691 8.35517C6.42691 8.3574 6.42691 8.35964 6.42691 8.36188C6.42691 8.36412 6.42691 8.36636 6.42691 8.36861C6.42691 8.37086 6.42691 8.37311 6.42691 8.37537C6.42691 8.37763 6.42691 8.37989 6.42691 8.38216C6.42691 8.38443 6.42691 8.3867 6.42691 8.38898C6.42691 8.39125 6.42691 8.39353 6.42691 8.39582C6.42691 8.3981 6.42691 8.40039 6.42691 8.40269C6.42691 8.40498 6.42691 8.40728 6.42691 8.40959C6.42691 8.41189 6.42691 8.4142 6.42691 8.41651C6.42691 8.41882 6.42691 8.42114 6.42691 8.42346C6.42691 8.42578 6.42691 8.42811 6.42691 8.43044C6.42691 8.43277 6.42691 8.4351 6.42691 8.43744C6.42691 8.43978 6.42691 8.44213 6.42691 8.44447C6.42691 8.44682 6.42691 8.44917 6.42691 8.45153C6.42691 8.45389 6.42691 8.45625 6.42691 8.45861C6.42691 8.46098 6.42691 8.46335 6.42691 8.46572C6.42691 8.46809 6.42691 8.47047 6.42691 8.47285C6.42691 8.47524 6.42691 8.47762 6.42691 8.48001C6.42691 8.48241 6.42691 8.4848 6.42691 8.4872C6.42691 8.4896 6.42691 8.492 6.42691 8.49441C6.42691 8.49682 6.42691 8.49923 6.42691 8.50165C6.42691 8.50406 6.42691 8.50648 6.42691 8.50891C6.42691 8.51133 6.42691 8.51376 6.42691 8.51619C6.42691 8.51862 6.42691 8.52106 6.42691 8.5235C6.42691 8.52594 6.42691 8.52839 6.42691 8.53084C6.42691 8.53329 6.42691 8.53574 6.42691 8.5382C6.42691 8.54065 6.42691 8.54311 6.42691 8.54558C6.42691 8.54804 6.42691 8.55051 6.42691 8.55299C6.42691 8.55546 6.42691 8.55794 6.42691 8.56042C6.42691 8.5629 6.42691 8.56539 6.42691 8.56788C6.42691 8.57036 6.42691 8.57286 6.42691 8.57535C6.42691 8.57785 6.42691 8.58035 6.42691 8.58286C6.42691 8.58536 6.42691 8.58787 6.42691 8.59038C6.42691 8.5929 6.42691 8.59541 6.42691 8.59793C6.42691 8.60046 6.42691 8.60298 6.42691 8.60551C6.42691 8.60804 6.42691 8.61057 6.42691 8.6131C6.42691 8.61564 6.42691 8.61818 6.42691 8.62072C6.42691 8.62327 6.42691 8.62581 6.42691 8.62837C6.42691 8.63092 6.42691 8.63347 6.42691 8.63603C6.42691 8.63859 6.42691 8.64115 6.42691 8.64372C6.42691 8.64628 6.42691 8.64885 6.42691 8.65143C6.42691 8.654 6.42691 8.65658 6.42691 8.65916C6.42691 8.66174 6.42691 8.66432 6.42691 8.66691C6.42691 8.6695 6.42691 8.67209 6.42691 8.67469C6.42691 8.67728 6.42691 8.67988 6.42691 8.68248C6.42691 8.68509 6.42691 8.68769 6.42691 8.6903C6.42691 8.69291 6.42691 8.69553 6.42691 8.69814C6.42691 8.70076 6.42691 8.70338 6.42691 8.70601C6.42691 8.70863 6.42691 8.71126 6.42691 8.71389C6.42691 8.71652 6.42691 8.71916 6.42691 8.72179C6.42691 8.72443 6.42691 8.72707 6.42691 8.72972C6.42691 8.73236 6.42691 8.73501 6.42691 8.73766C6.42691 8.74032 6.42691 8.74297 6.42691 8.74563C6.42691 8.74829 6.42691 8.75095 6.42691 8.75362C6.42691 8.75628 6.42691 8.75895 6.42691 8.76163C6.42691 8.7643 6.42691 8.76697 6.42691 8.76965C6.42691 8.77233 6.42691 8.77502 6.42691 8.7777C6.42691 8.78039 6.42691 8.78308 6.42691 8.78577C6.42691 8.78846 6.42691 8.79116 6.42691 8.79386C6.42691 8.79656 6.42691 8.79926 6.42691 8.80197C6.42691 8.80467 6.42691 8.80738 6.42691 8.81009C6.42691 8.8128 6.42691 8.81552 6.42691 8.81824C6.42691 8.82096 6.42691 8.82368 6.42691 8.8264C6.42691 8.82913 6.42691 8.83186 6.42691 8.83459C6.42691 8.83732 6.42691 8.84005 6.42691 8.84279C6.42691 8.84553 6.42691 8.84827 6.42691 8.85101C6.42691 8.85376 6.42691 8.85651 6.42691 8.85926C6.42691 8.86201 6.42691 8.86476 6.42691 8.86752C6.42691 8.87027 6.42691 8.87303 6.42691 8.87579C6.42691 8.87856 6.42691 8.88132 6.42691 8.88409C6.42691 8.88686 6.42691 8.88963 6.42691 8.8924C6.42691 8.89518 6.42691 8.89796 6.42691 8.90074C6.42691 8.90352 6.42691 8.9063 6.42691 8.90909C6.42691 8.91187 6.42691 8.91466 6.42691 8.91746C6.42691 8.92025 6.42691 8.92304 6.42691 8.92584C6.42691 8.92864 6.42691 8.93144 6.42691 8.93424C6.42691 8.93705 6.42691 8.93985 6.42691 8.94266C6.42691 8.94547 6.42691 8.94829 6.42691 8.9511C6.42691 8.95392 6.42691 8.95674 6.42691 8.95956C6.42691 8.96238 6.42691 8.9652 6.42691 8.96803C6.42691 8.97085 6.42691 8.97368 6.42691 8.97652C6.42691 8.97935 6.42691 8.98218 6.42691 8.98502C6.42691 8.98786 6.42691 8.9907 6.42691 8.99354C6.42691 8.99638 6.42691 8.99923 6.42691 9.00208C6.42691 9.00493 6.42691 9.00778 6.42691 9.01063C6.42691 9.01349 6.42691 9.01634 6.42691 9.0192C6.42691 9.02206 6.42691 9.02492 6.42691 9.02779C6.42691 9.03065 6.42691 9.03352 6.42691 9.03639C6.42691 9.03926 6.42691 9.04213 6.42691 9.045C6.42691 9.04788 6.42691 9.05076 6.42691 9.05364C6.42691 9.05652 6.42691 9.0594 6.42691 9.06228C6.42691 9.06517 6.42691 9.06806 6.42691 9.07095C6.42691 9.07384 6.42691 9.07673 6.42691 9.07962C6.42691 9.08252 6.42691 9.08542 6.42691 9.08832C6.42691 9.09122 6.42691 9.09412 6.42691 9.09702C6.42691 9.09993 6.42691 9.10284 6.42691 9.10575C6.42691 9.10866 6.42691 9.11157 6.42691 9.11448C6.42691 9.1174 6.42691 9.12031 6.42691 9.12323C6.42691 9.12615 6.42691 9.12907 6.42691 9.132C6.42691 9.13492 6.42691 9.13785 6.42691 9.14078C6.42691 9.1437 6.42691 9.14664 6.42691 9.14957C6.42691 9.1525 6.42691 9.15544 6.42691 9.15838C6.42691 9.16131 6.42691 9.16425 6.42691 9.1672C6.42691 9.17014 6.42691 9.17308 6.42691 9.17603C6.42691 9.17898 6.42691 9.18192 6.42691 9.18488C6.42691 9.18783 6.42691 9.19078 6.42691 9.19374C6.42691 9.19669 6.42691 9.19965 6.42691 9.20261C6.42691 9.20557 6.42691 9.20853 6.42691 9.2115C6.42691 9.21446 6.42691 9.21743 6.42691 9.22039C6.42691 9.22336 6.42691 9.22633 6.42691 9.22931C6.42691 9.23228 6.42691 9.23525 6.42691 9.23823C6.42691 9.24121 6.42691 9.24419 6.42691 9.24717C6.42691 9.25015 6.42691 9.25313 6.42691 9.25611C6.42691 9.2591 6.42691 9.26209 6.42691 9.26508C6.42691 9.26806 6.42691 9.27105 6.42691 9.27405C6.42691 9.27704 6.42691 9.28004 6.42691 9.28303C6.42691 9.28603 6.42691 9.28903 6.42691 9.29203C6.42691 9.29503 6.42691 9.29803 6.42691 9.30104C6.42691 9.30404 6.42691 9.30705 6.42691 9.31005C6.42691 9.31306 6.42691 9.31607 6.42691 9.31908C6.42691 9.3221 6.42691 9.32511 6.42691 9.32813C6.42691 9.33114 6.42691 9.33416 6.42691 9.33718C6.42691 9.3402 6.42691 9.34322 6.42691 9.34624C6.42691 9.34926 6.42691 9.35229 6.42691 9.35531C6.42691 9.35834 6.42691 9.36137 6.42691 9.3644C6.42691 9.36743 6.42691 9.37046 6.42691 9.37349C6.42691 9.37653 6.42691 9.37956 6.42691 9.3826C6.42691 9.38563 6.42691 9.38867 6.42691 9.39171C6.42691 9.39475 6.42691 9.39779 6.42691 9.40084C6.42691 9.40388 6.42691 9.40692 6.42691 9.40997C6.42691 9.41302 6.42691 9.41606 6.42691 9.41911C6.42691 9.42216 6.42691 9.42522 6.42691 9.42827C6.42691 9.43132 6.42691 9.43438 6.42691 9.43743C6.42691 9.44049 6.42691 9.44354 6.42691 9.4466C6.42691 9.44966 6.42691 9.45272 6.42691 9.45578C6.42691 9.45885 6.42691 9.46191 6.42691 9.46498C6.42691 9.46804 6.42691 9.47111 6.42691 9.47417C6.42691 9.47724 6.42691 9.48031 6.42691 9.48338C6.42691 9.48645 6.42691 9.48953 6.42691 9.4926C6.42691 9.49567 6.42691 9.49875 6.42691 9.50182C6.42691 9.5049 6.42691 9.50798 6.42691 9.51106C6.42691 9.51414 6.42691 9.51722 6.42691 9.5203C6.42691 9.52338 6.42691 9.52646 6.42691 9.52955C6.42691 9.53263 6.42691 9.53572 6.42691 9.5388C6.42691 9.54189 6.42691 9.54498 6.42691 9.54807C6.42691 9.55116 6.42691 9.55425 6.42691 9.55734C6.42691 9.56043 6.42691 9.56353 6.42691 9.56662C6.42691 9.56972 6.42691 9.57281 6.42691 9.57591C6.42691 9.579 6.42691 9.5821 6.42691 9.5852C6.42691 9.5883 6.42691 9.5914 6.42691 9.5945C6.42691 9.5976 6.42691 9.60071 6.42691 9.60381C6.42691 9.60691 6.42691 9.61002 6.42691 9.61313C6.42691 9.61623 6.42691 9.61934 6.42691 9.62245C6.42691 9.62555 6.42691 9.62866 6.42691 9.63177C6.42691 9.63488 6.42691 9.638 6.42691 9.64111C6.42691 9.64422 6.42691 9.64733 6.42691 9.65045C6.42691 9.65356 6.42691 9.65668 6.42691 9.65979C6.42691 9.66291 6.42691 9.66603 6.42691 9.66915C6.42691 9.67226 6.42691 9.67538 6.42691 9.6785C6.42691 9.68162 6.42691 9.68475 6.42691 9.68787C6.42691 9.69099 6.42691 9.69411 6.42691 9.69724C6.42691 9.70036 6.42691 9.70348 6.42691 9.70661C6.42691 9.70974 6.42691 9.71286 6.42691 9.71599C6.42691 9.71912 6.42691 9.72224 6.42691 9.72537C6.42691 9.7285 6.42691 9.73163 6.42691 9.73476C6.42691 9.73789 6.42691 9.74102 6.42691 9.74416C6.42691 9.74729 6.42691 9.75042 6.42691 9.75355C6.42691 9.75669 6.42691 9.75982 6.42691 9.76296C6.42691 9.76609 6.42691 9.76923 6.42691 9.77236C6.42691 9.7755 6.42691 9.77864 6.42691 9.78178C6.42691 9.78491 6.42691 9.78805 6.42691 9.79119C6.42691 9.79433 6.42691 9.79747 6.42691 9.80061C6.42691 9.80375 6.42691 9.80689 6.42691 9.81003C6.42691 9.81317 6.42691 9.81632 6.42691 9.81946C6.42691 9.8226 6.42691 9.82575 6.42691 9.82889C6.42691 9.83203 6.42691 9.83518 6.42691 9.83832C6.42691 9.84147 6.42691 9.84461 6.42691 9.84776C6.42691 9.85091 6.42691 9.85405 6.42691 9.8572C6.42691 9.86035 6.42691 9.86349 6.42691 9.86664C6.42691 9.86979 6.42691 9.87294 6.42691 9.87609C6.42691 9.87924 6.42691 9.88239 6.42691 9.88554C6.42691 9.88868 6.42691 9.89183 6.42691 9.89499C6.42691 9.89814 6.42691 9.90129 6.42691 9.90444C6.42691 9.90759 6.42691 9.91074 6.42691 9.91389C6.42691 9.91705 6.42691 9.9202 6.42691 9.92335C6.42691 9.9265 6.42691 9.92966 6.42691 9.93281C6.42691 9.93596 6.42691 9.93912 6.42691 9.94227C6.42691 9.94542 6.42691 9.94858 6.42691 9.95173C6.42691 9.95489 6.42691 9.95804 6.42691 9.9612C6.42691 9.96435 6.42691 9.96751 6.42691 9.97066C6.42691 9.97382 6.42691 9.97697 6.42691 9.98013C6.42691 9.98328 6.42691 9.98644 6.42691 9.98959C6.42691 9.99275 6.42691 9.99591 6.42691 9.99906C6.42691 10.0022 6.42691 10.0054 6.42691 10.0085C6.42691 10.0117 6.42691 10.0148 6.42691 10.018C6.42691 10.0212 6.42691 10.0243 6.42691 10.0275C6.42691 10.0306 6.42691 10.0338 6.42691 10.0369C6.42691 10.0401 6.42691 10.0433 6.42691 10.0464C6.42691 10.0496 6.42691 10.0527 6.42691 10.0559C6.42691 10.059 6.42691 10.0622 6.42691 10.0654C6.42691 10.0685 6.42691 10.0717 6.42691 10.0748C6.42691 10.078 6.42691 10.0811 6.42691 10.0843C6.42691 10.0875 6.42691 10.0906 6.42691 10.0938C6.42691 10.0969 6.42691 10.1001 6.42691 10.1032C6.42691 10.1064 6.42691 10.1095 6.42691 10.1127C6.42691 10.1159 6.42691 10.119 6.42691 10.1222C6.42691 10.1253 6.42691 10.1285 6.42691 10.1316C6.42691 10.1348 6.42691 10.138 6.42691 10.1411C6.42691 10.1443 6.42691 10.1474 6.42691 10.1506C6.42691 10.1537 6.42691 10.1569 6.42691 10.16C6.42691 10.1632 6.42691 10.1663 6.42691 10.1695C6.42691 10.1726 6.42691 10.1758 6.42691 10.179C6.42691 10.1821 6.42691 10.1853 6.42691 10.1884C6.42691 10.1916 6.42691 10.1947 6.42691 10.1979C6.42691 10.201 6.42691 10.2042 6.42691 10.2073C6.42691 10.2105 6.42691 10.2136 6.42691 10.2168C6.42691 10.2199 6.42691 10.2231 6.42691 10.2262C6.42691 10.2294 6.42691 10.2325 6.42691 10.2357C6.42691 10.2388 6.42691 10.242 6.42691 10.2451C6.42691 10.2483 6.42691 10.2514 6.42691 10.2545C6.42691 10.2577 6.42691 10.2608 6.42691 10.264C6.42691 10.2671 6.42691 10.2703 6.42691 10.2734C6.42691 10.2766 6.42691 10.2797 6.42691 10.2828C6.42691 10.286 6.42691 10.2891 6.42691 10.2923C6.42691 10.2954 6.42691 10.2986 6.42691 10.3017C6.42691 10.3048 6.42691 10.308 6.42691 10.3111C6.42691 10.3143 6.42691 10.3174 6.42691 10.3205C6.42691 10.3237 6.42691 10.3268 6.42691 10.3299C6.42691 10.3331 6.42691 10.3362 6.42691 10.3394C6.42691 10.3425 6.42691 10.3456 6.42691 10.3488C6.42691 10.3519 6.42691 10.355 6.42691 10.3582C6.42691 10.3613 6.42691 10.3644 6.42691 10.3676C6.42691 10.3707 6.42691 10.3738 6.42691 10.3769C6.42691 10.3801 6.42691 10.3832 6.42691 10.3863C6.42691 10.3895 6.42691 10.3926 6.42691 10.3957C6.42691 10.3988 6.42691 10.402 6.42691 10.4051C6.42691 10.4082 6.42691 10.4113 6.42691 10.4145C6.42691 10.4176 6.42691 10.4207 6.42691 10.4238C6.42691 10.4269 6.42691 10.4301 6.42691 10.4332C6.42691 10.4363 6.42691 10.4394 6.42691 10.4425C6.42691 10.4456 6.42691 10.4488 6.42691 10.4519C6.42691 10.455 6.42691 10.4581 6.42691 10.4612C6.42691 10.4643 6.42691 10.4674 6.42691 10.4706C6.42691 10.4737 6.42691 10.4768 6.42691 10.4799C6.42691 10.483 6.42691 10.4861 6.42691 10.4892C6.42691 10.4923 6.42691 10.4954 6.42691 10.4985C6.42691 10.5016 6.42691 10.5047 6.42691 10.5078C6.42691 10.5109 6.42691 10.514 6.42691 10.5171C6.42691 10.5202 6.42691 10.5233 6.42691 10.5264C6.42691 10.5295 6.42691 10.5326 6.42691 10.5357C6.42691 10.5388 6.42691 10.5419 6.42691 10.545C6.42691 10.5481 6.42691 10.5512 6.42691 10.5543C6.42691 10.5574 6.42691 10.5605 6.42691 10.5635C6.42691 10.5666 6.42691 10.5697 6.42691 10.5728C6.42691 10.5759 6.42691 10.579 6.42691 10.5821C6.42691 10.5851 6.42691 10.5882 6.42691 10.5913C6.42691 10.5944 6.42691 10.5975 6.42691 10.6005C6.42691 10.6036 6.42691 10.6067 6.42691 10.6098C6.42691 10.6128 6.42691 10.6159 6.42691 10.619C6.42691 10.622 6.42691 10.6251 6.42691 10.6282C6.42691 10.6313 6.42691 10.6343 6.42691 10.6374C6.42691 10.6405 6.42691 10.6435 6.42691 10.6466C6.42691 10.6496 6.42691 10.6527 6.42691 10.6558C6.42691 10.6588 6.42691 10.6619 6.42691 10.6649C6.42691 10.668 6.42691 10.671 6.42691 10.6741C6.42691 10.6772 6.42691 10.6802 6.42691 10.6833C6.42691 10.6863 6.42691 10.6894 6.42691 10.6924C6.42691 10.6954 6.42691 10.6985 6.42691 10.7015C6.42691 10.7046 6.42691 10.7076 6.42691 10.7107C6.42691 10.7137 6.42691 10.7167 6.42691 10.7198C6.42691 10.7228 6.42691 10.7259 6.42691 10.7289C6.42691 10.7319 6.42691 10.735 6.42691 10.738C6.42691 10.741 6.42691 10.744 6.42691 10.7471C6.42691 10.7501 6.42691 10.7531 6.42691 10.7561C6.42691 10.7592 6.42691 10.7622 6.42691 10.7652C6.42691 10.7682 6.42691 10.7713 6.42691 10.7743C6.42691 10.7773 6.42691 10.7803 6.42691 10.7833C6.42691 10.7863 6.42691 10.7893 6.42691 10.7923C6.42691 10.7954 6.42691 10.7984 6.42691 10.8014C6.42691 10.8044 6.42691 10.8074 6.42691 10.8104C6.42691 10.8134 6.42691 10.8164 6.42691 10.8194C6.42691 10.8224 6.42691 10.8254 6.42691 10.8284C6.42691 10.8314 6.42691 10.8343 6.42691 10.8373C6.42691 10.8403 6.42691 10.8433 6.42691 10.8463C6.42691 10.8493 6.42691 10.8523 6.42691 10.8552C6.42691 10.8582 6.42691 10.8612 6.42691 10.8642C6.42691 10.8672 6.42691 10.8701 6.42691 10.8731C6.42691 10.8761 6.42691 10.8791 6.42691 10.882C6.42691 10.885 6.42691 10.888 6.42691 10.8909C6.42691 10.8939 6.42691 10.8969 6.42691 10.8998C6.42691 10.9028 6.42691 10.9057 6.42691 10.9087C6.42691 10.9117 6.42691 10.9146 6.42691 10.9176C6.42691 10.9205 6.42691 10.9235 6.42691 10.9264C6.42691 10.9294 6.42691 10.9323 6.42691 10.9352C6.42691 10.9382 6.42691 10.9411 6.42691 10.9441C6.42691 10.947 6.42691 10.9499 6.42691 10.9529C6.42691 10.9558 6.42691 10.9587 6.42691 10.9617C6.42691 10.9646 6.42691 10.9675 6.42691 10.9705C6.42691 10.9734 6.42691 10.9763 6.42691 10.9792C6.42691 10.9821 6.42691 10.9851 6.42691 10.988C6.42691 10.9909 6.42691 10.9938 6.42691 10.9967C6.42691 10.9996 6.42691 11.0025 6.42691 11.0054C6.42691 11.0083 6.42691 11.0113 6.42691 11.0142C6.42691 11.0171 6.42691 11.02 6.42691 11.0228C6.42691 11.0257 6.42691 11.0286 6.42691 11.0315C6.42691 11.0344 6.42691 11.0373 6.42691 11.0402C6.42691 11.0431 6.42691 11.046 6.42691 11.0488C6.42691 11.0517 6.42691 11.0546 6.42691 11.0575C6.42691 11.0604 6.42691 11.0632 6.42691 11.0661C6.42691 11.069 6.42691 11.0718 6.42691 11.0747C6.42691 11.0776 6.42691 11.0804 6.42691 11.0833C6.42691 11.0862 6.42691 11.089 6.42691 11.0919C6.42691 11.0947 6.42691 11.0976 6.42691 11.1004C6.42691 11.1033 6.42691 11.1061 6.42691 11.109C6.42691 11.1118 6.42691 11.1147 6.42691 11.1175C6.42691 11.1203 6.42691 11.1232 6.42691 11.126C6.42691 11.1288 6.42691 11.1317 6.42691 11.1345C6.42691 11.1373 6.42691 11.1401 6.42691 11.143C6.42691 11.1458 6.42691 11.1486 6.42691 11.1514C6.42691 11.1542 6.42691 11.1571 6.42691 11.1599C6.42691 11.1627 6.42691 11.1655 6.42691 11.1683C6.42691 11.1711 6.42691 11.1739 6.42691 11.1767C6.42691 11.1795 6.42691 11.1823 6.42691 11.1851C6.42691 11.1879 6.42691 11.1907 6.42691 11.1935C6.42691 11.1962 6.42691 11.199 6.42691 11.2018C6.42691 11.2046 6.42691 11.2074 6.42691 11.2101C6.42691 11.2129 6.42691 11.2157 6.42691 11.2185C6.42691 11.2212 6.42691 11.224 6.42691 11.2268C6.42691 11.2295 6.42691 11.2323 6.42691 11.235C6.42691 11.2378 6.42691 11.2406 6.42691 11.2433C6.42691 11.2461 6.42691 11.2488 6.42691 11.2516C6.42691 11.2543 6.42691 11.257 6.42691 11.2598C6.42691 11.2625 6.42691 11.2653 6.42691 11.268C6.42691 11.2707 6.42691 11.2735 6.42691 11.2762C6.42691 11.2789 6.42691 11.2816 6.42691 11.2843C6.42691 11.2871 6.42691 11.2898 6.42691 11.2925C6.42691 11.2952 6.42691 11.2979 6.42691 11.3006C6.42691 11.3033 6.42691 11.306 6.42691 11.3087C6.42691 11.3114 6.42691 11.3141 6.42691 11.3168C6.42691 11.3195 6.42691 11.3222 6.42691 11.3249C6.42691 11.3276 6.42691 11.3303 6.42691 11.333C6.42691 11.3356 6.42691 11.3383 6.42691 11.341C6.42691 11.3437 6.42691 11.3463 6.42691 11.349C6.42691 11.3517 6.42691 11.3543 6.42691 11.357H9.42691C9.42691 11.3543 9.42691 11.3517 9.42691 11.349C9.42691 11.3463 9.42691 11.3437 9.42691 11.341C9.42691 11.3383 9.42691 11.3356 9.42691 11.333C9.42691 11.3303 9.42691 11.3276 9.42691 11.3249C9.42691 11.3222 9.42691 11.3195 9.42691 11.3168C9.42691 11.3141 9.42691 11.3114 9.42691 11.3087C9.42691 11.306 9.42691 11.3033 9.42691 11.3006C9.42691 11.2979 9.42691 11.2952 9.42691 11.2925C9.42691 11.2898 9.42691 11.2871 9.42691 11.2843C9.42691 11.2816 9.42691 11.2789 9.42691 11.2762C9.42691 11.2735 9.42691 11.2707 9.42691 11.268C9.42691 11.2653 9.42691 11.2625 9.42691 11.2598C9.42691 11.257 9.42691 11.2543 9.42691 11.2516C9.42691 11.2488 9.42691 11.2461 9.42691 11.2433C9.42691 11.2406 9.42691 11.2378 9.42691 11.235C9.42691 11.2323 9.42691 11.2295 9.42691 11.2268C9.42691 11.224 9.42691 11.2212 9.42691 11.2185C9.42691 11.2157 9.42691 11.2129 9.42691 11.2101C9.42691 11.2074 9.42691 11.2046 9.42691 11.2018C9.42691 11.199 9.42691 11.1962 9.42691 11.1935C9.42691 11.1907 9.42691 11.1879 9.42691 11.1851C9.42691 11.1823 9.42691 11.1795 9.42691 11.1767C9.42691 11.1739 9.42691 11.1711 9.42691 11.1683C9.42691 11.1655 9.42691 11.1627 9.42691 11.1599C9.42691 11.1571 9.42691 11.1542 9.42691 11.1514C9.42691 11.1486 9.42691 11.1458 9.42691 11.143C9.42691 11.1401 9.42691 11.1373 9.42691 11.1345C9.42691 11.1317 9.42691 11.1288 9.42691 11.126C9.42691 11.1232 9.42691 11.1203 9.42691 11.1175C9.42691 11.1147 9.42691 11.1118 9.42691 11.109C9.42691 11.1061 9.42691 11.1033 9.42691 11.1004C9.42691 11.0976 9.42691 11.0947 9.42691 11.0919C9.42691 11.089 9.42691 11.0862 9.42691 11.0833C9.42691 11.0804 9.42691 11.0776 9.42691 11.0747C9.42691 11.0718 9.42691 11.069 9.42691 11.0661C9.42691 11.0632 9.42691 11.0604 9.42691 11.0575C9.42691 11.0546 9.42691 11.0517 9.42691 11.0488C9.42691 11.046 9.42691 11.0431 9.42691 11.0402C9.42691 11.0373 9.42691 11.0344 9.42691 11.0315C9.42691 11.0286 9.42691 11.0257 9.42691 11.0228C9.42691 11.02 9.42691 11.0171 9.42691 11.0142C9.42691 11.0113 9.42691 11.0083 9.42691 11.0054C9.42691 11.0025 9.42691 10.9996 9.42691 10.9967C9.42691 10.9938 9.42691 10.9909 9.42691 10.988C9.42691 10.9851 9.42691 10.9821 9.42691 10.9792C9.42691 10.9763 9.42691 10.9734 9.42691 10.9705C9.42691 10.9675 9.42691 10.9646 9.42691 10.9617C9.42691 10.9587 9.42691 10.9558 9.42691 10.9529C9.42691 10.9499 9.42691 10.947 9.42691 10.9441C9.42691 10.9411 9.42691 10.9382 9.42691 10.9352C9.42691 10.9323 9.42691 10.9294 9.42691 10.9264C9.42691 10.9235 9.42691 10.9205 9.42691 10.9176C9.42691 10.9146 9.42691 10.9117 9.42691 10.9087C9.42691 10.9057 9.42691 10.9028 9.42691 10.8998C9.42691 10.8969 9.42691 10.8939 9.42691 10.8909C9.42691 10.888 9.42691 10.885 9.42691 10.882C9.42691 10.8791 9.42691 10.8761 9.42691 10.8731C9.42691 10.8701 9.42691 10.8672 9.42691 10.8642C9.42691 10.8612 9.42691 10.8582 9.42691 10.8552C9.42691 10.8523 9.42691 10.8493 9.42691 10.8463C9.42691 10.8433 9.42691 10.8403 9.42691 10.8373C9.42691 10.8343 9.42691 10.8314 9.42691 10.8284C9.42691 10.8254 9.42691 10.8224 9.42691 10.8194C9.42691 10.8164 9.42691 10.8134 9.42691 10.8104C9.42691 10.8074 9.42691 10.8044 9.42691 10.8014C9.42691 10.7984 9.42691 10.7954 9.42691 10.7923C9.42691 10.7893 9.42691 10.7863 9.42691 10.7833C9.42691 10.7803 9.42691 10.7773 9.42691 10.7743C9.42691 10.7713 9.42691 10.7682 9.42691 10.7652C9.42691 10.7622 9.42691 10.7592 9.42691 10.7561C9.42691 10.7531 9.42691 10.7501 9.42691 10.7471C9.42691 10.744 9.42691 10.741 9.42691 10.738C9.42691 10.735 9.42691 10.7319 9.42691 10.7289C9.42691 10.7259 9.42691 10.7228 9.42691 10.7198C9.42691 10.7167 9.42691 10.7137 9.42691 10.7107C9.42691 10.7076 9.42691 10.7046 9.42691 10.7015C9.42691 10.6985 9.42691 10.6954 9.42691 10.6924C9.42691 10.6894 9.42691 10.6863 9.42691 10.6833C9.42691 10.6802 9.42691 10.6772 9.42691 10.6741C9.42691 10.671 9.42691 10.668 9.42691 10.6649C9.42691 10.6619 9.42691 10.6588 9.42691 10.6558C9.42691 10.6527 9.42691 10.6496 9.42691 10.6466C9.42691 10.6435 9.42691 10.6405 9.42691 10.6374C9.42691 10.6343 9.42691 10.6313 9.42691 10.6282C9.42691 10.6251 9.42691 10.622 9.42691 10.619C9.42691 10.6159 9.42691 10.6128 9.42691 10.6098C9.42691 10.6067 9.42691 10.6036 9.42691 10.6005C9.42691 10.5975 9.42691 10.5944 9.42691 10.5913C9.42691 10.5882 9.42691 10.5851 9.42691 10.5821C9.42691 10.579 9.42691 10.5759 9.42691 10.5728C9.42691 10.5697 9.42691 10.5666 9.42691 10.5635C9.42691 10.5605 9.42691 10.5574 9.42691 10.5543C9.42691 10.5512 9.42691 10.5481 9.42691 10.545C9.42691 10.5419 9.42691 10.5388 9.42691 10.5357C9.42691 10.5326 9.42691 10.5295 9.42691 10.5264C9.42691 10.5233 9.42691 10.5202 9.42691 10.5171C9.42691 10.514 9.42691 10.5109 9.42691 10.5078C9.42691 10.5047 9.42691 10.5016 9.42691 10.4985C9.42691 10.4954 9.42691 10.4923 9.42691 10.4892C9.42691 10.4861 9.42691 10.483 9.42691 10.4799C9.42691 10.4768 9.42691 10.4737 9.42691 10.4706C9.42691 10.4674 9.42691 10.4643 9.42691 10.4612C9.42691 10.4581 9.42691 10.455 9.42691 10.4519C9.42691 10.4488 9.42691 10.4456 9.42691 10.4425C9.42691 10.4394 9.42691 10.4363 9.42691 10.4332C9.42691 10.4301 9.42691 10.4269 9.42691 10.4238C9.42691 10.4207 9.42691 10.4176 9.42691 10.4145C9.42691 10.4113 9.42691 10.4082 9.42691 10.4051C9.42691 10.402 9.42691 10.3988 9.42691 10.3957C9.42691 10.3926 9.42691 10.3895 9.42691 10.3863C9.42691 10.3832 9.42691 10.3801 9.42691 10.3769C9.42691 10.3738 9.42691 10.3707 9.42691 10.3676C9.42691 10.3644 9.42691 10.3613 9.42691 10.3582C9.42691 10.355 9.42691 10.3519 9.42691 10.3488C9.42691 10.3456 9.42691 10.3425 9.42691 10.3394C9.42691 10.3362 9.42691 10.3331 9.42691 10.3299C9.42691 10.3268 9.42691 10.3237 9.42691 10.3205C9.42691 10.3174 9.42691 10.3143 9.42691 10.3111C9.42691 10.308 9.42691 10.3048 9.42691 10.3017C9.42691 10.2986 9.42691 10.2954 9.42691 10.2923C9.42691 10.2891 9.42691 10.286 9.42691 10.2828C9.42691 10.2797 9.42691 10.2766 9.42691 10.2734C9.42691 10.2703 9.42691 10.2671 9.42691 10.264C9.42691 10.2608 9.42691 10.2577 9.42691 10.2545C9.42691 10.2514 9.42691 10.2483 9.42691 10.2451C9.42691 10.242 9.42691 10.2388 9.42691 10.2357C9.42691 10.2325 9.42691 10.2294 9.42691 10.2262C9.42691 10.2231 9.42691 10.2199 9.42691 10.2168C9.42691 10.2136 9.42691 10.2105 9.42691 10.2073C9.42691 10.2042 9.42691 10.201 9.42691 10.1979C9.42691 10.1947 9.42691 10.1916 9.42691 10.1884C9.42691 10.1853 9.42691 10.1821 9.42691 10.179C9.42691 10.1758 9.42691 10.1726 9.42691 10.1695C9.42691 10.1663 9.42691 10.1632 9.42691 10.16C9.42691 10.1569 9.42691 10.1537 9.42691 10.1506C9.42691 10.1474 9.42691 10.1443 9.42691 10.1411C9.42691 10.138 9.42691 10.1348 9.42691 10.1316C9.42691 10.1285 9.42691 10.1253 9.42691 10.1222C9.42691 10.119 9.42691 10.1159 9.42691 10.1127C9.42691 10.1095 9.42691 10.1064 9.42691 10.1032C9.42691 10.1001 9.42691 10.0969 9.42691 10.0938C9.42691 10.0906 9.42691 10.0875 9.42691 10.0843C9.42691 10.0811 9.42691 10.078 9.42691 10.0748C9.42691 10.0717 9.42691 10.0685 9.42691 10.0654C9.42691 10.0622 9.42691 10.059 9.42691 10.0559C9.42691 10.0527 9.42691 10.0496 9.42691 10.0464C9.42691 10.0433 9.42691 10.0401 9.42691 10.0369C9.42691 10.0338 9.42691 10.0306 9.42691 10.0275C9.42691 10.0243 9.42691 10.0212 9.42691 10.018C9.42691 10.0148 9.42691 10.0117 9.42691 10.0085C9.42691 10.0054 9.42691 10.0022 9.42691 9.99906C9.42691 9.99591 9.42691 9.99275 9.42691 9.98959C9.42691 9.98644 9.42691 9.98328 9.42691 9.98013C9.42691 9.97697 9.42691 9.97382 9.42691 9.97066C9.42691 9.96751 9.42691 9.96435 9.42691 9.9612C9.42691 9.95804 9.42691 9.95489 9.42691 9.95173C9.42691 9.94858 9.42691 9.94542 9.42691 9.94227C9.42691 9.93912 9.42691 9.93596 9.42691 9.93281C9.42691 9.92966 9.42691 9.9265 9.42691 9.92335C9.42691 9.9202 9.42691 9.91705 9.42691 9.91389C9.42691 9.91074 9.42691 9.90759 9.42691 9.90444C9.42691 9.90129 9.42691 9.89814 9.42691 9.89499C9.42691 9.89183 9.42691 9.88868 9.42691 9.88554C9.42691 9.88239 9.42691 9.87924 9.42691 9.87609C9.42691 9.87294 9.42691 9.86979 9.42691 9.86664C9.42691 9.86349 9.42691 9.86035 9.42691 9.8572C9.42691 9.85405 9.42691 9.85091 9.42691 9.84776C9.42691 9.84461 9.42691 9.84147 9.42691 9.83832C9.42691 9.83518 9.42691 9.83203 9.42691 9.82889C9.42691 9.82575 9.42691 9.8226 9.42691 9.81946C9.42691 9.81632 9.42691 9.81317 9.42691 9.81003C9.42691 9.80689 9.42691 9.80375 9.42691 9.80061C9.42691 9.79747 9.42691 9.79433 9.42691 9.79119C9.42691 9.78805 9.42691 9.78491 9.42691 9.78178C9.42691 9.77864 9.42691 9.7755 9.42691 9.77236C9.42691 9.76923 9.42691 9.76609 9.42691 9.76296C9.42691 9.75982 9.42691 9.75669 9.42691 9.75355C9.42691 9.75042 9.42691 9.74729 9.42691 9.74416C9.42691 9.74102 9.42691 9.73789 9.42691 9.73476C9.42691 9.73163 9.42691 9.7285 9.42691 9.72537C9.42691 9.72224 9.42691 9.71912 9.42691 9.71599C9.42691 9.71286 9.42691 9.70974 9.42691 9.70661C9.42691 9.70348 9.42691 9.70036 9.42691 9.69724C9.42691 9.69411 9.42691 9.69099 9.42691 9.68787C9.42691 9.68475 9.42691 9.68162 9.42691 9.6785C9.42691 9.67538 9.42691 9.67226 9.42691 9.66915C9.42691 9.66603 9.42691 9.66291 9.42691 9.65979C9.42691 9.65668 9.42691 9.65356 9.42691 9.65045C9.42691 9.64733 9.42691 9.64422 9.42691 9.64111C9.42691 9.638 9.42691 9.63488 9.42691 9.63177C9.42691 9.62866 9.42691 9.62555 9.42691 9.62245C9.42691 9.61934 9.42691 9.61623 9.42691 9.61313C9.42691 9.61002 9.42691 9.60691 9.42691 9.60381C9.42691 9.60071 9.42691 9.5976 9.42691 9.5945C9.42691 9.5914 9.42691 9.5883 9.42691 9.5852C9.42691 9.5821 9.42691 9.579 9.42691 9.57591C9.42691 9.57281 9.42691 9.56972 9.42691 9.56662C9.42691 9.56353 9.42691 9.56043 9.42691 9.55734C9.42691 9.55425 9.42691 9.55116 9.42691 9.54807C9.42691 9.54498 9.42691 9.54189 9.42691 9.5388C9.42691 9.53572 9.42691 9.53263 9.42691 9.52955C9.42691 9.52646 9.42691 9.52338 9.42691 9.5203C9.42691 9.51722 9.42691 9.51414 9.42691 9.51106C9.42691 9.50798 9.42691 9.5049 9.42691 9.50182C9.42691 9.49875 9.42691 9.49567 9.42691 9.4926C9.42691 9.48953 9.42691 9.48645 9.42691 9.48338C9.42691 9.48031 9.42691 9.47724 9.42691 9.47417C9.42691 9.47111 9.42691 9.46804 9.42691 9.46498C9.42691 9.46191 9.42691 9.45885 9.42691 9.45578C9.42691 9.45272 9.42691 9.44966 9.42691 9.4466C9.42691 9.44354 9.42691 9.44049 9.42691 9.43743C9.42691 9.43438 9.42691 9.43132 9.42691 9.42827C9.42691 9.42522 9.42691 9.42216 9.42691 9.41911C9.42691 9.41606 9.42691 9.41302 9.42691 9.40997C9.42691 9.40692 9.42691 9.40388 9.42691 9.40084C9.42691 9.39779 9.42691 9.39475 9.42691 9.39171C9.42691 9.38867 9.42691 9.38563 9.42691 9.3826C9.42691 9.37956 9.42691 9.37653 9.42691 9.37349C9.42691 9.37046 9.42691 9.36743 9.42691 9.3644C9.42691 9.36137 9.42691 9.35834 9.42691 9.35531C9.42691 9.35229 9.42691 9.34926 9.42691 9.34624C9.42691 9.34322 9.42691 9.3402 9.42691 9.33718C9.42691 9.33416 9.42691 9.33114 9.42691 9.32813C9.42691 9.32511 9.42691 9.3221 9.42691 9.31908C9.42691 9.31607 9.42691 9.31306 9.42691 9.31005C9.42691 9.30705 9.42691 9.30404 9.42691 9.30104C9.42691 9.29803 9.42691 9.29503 9.42691 9.29203C9.42691 9.28903 9.42691 9.28603 9.42691 9.28303C9.42691 9.28004 9.42691 9.27704 9.42691 9.27405C9.42691 9.27105 9.42691 9.26806 9.42691 9.26508C9.42691 9.26209 9.42691 9.2591 9.42691 9.25611C9.42691 9.25313 9.42691 9.25015 9.42691 9.24717C9.42691 9.24419 9.42691 9.24121 9.42691 9.23823C9.42691 9.23525 9.42691 9.23228 9.42691 9.22931C9.42691 9.22633 9.42691 9.22336 9.42691 9.22039C9.42691 9.21743 9.42691 9.21446 9.42691 9.2115C9.42691 9.20853 9.42691 9.20557 9.42691 9.20261C9.42691 9.19965 9.42691 9.19669 9.42691 9.19374C9.42691 9.19078 9.42691 9.18783 9.42691 9.18488C9.42691 9.18192 9.42691 9.17898 9.42691 9.17603C9.42691 9.17308 9.42691 9.17014 9.42691 9.1672C9.42691 9.16425 9.42691 9.16131 9.42691 9.15838C9.42691 9.15544 9.42691 9.1525 9.42691 9.14957C9.42691 9.14664 9.42691 9.1437 9.42691 9.14078C9.42691 9.13785 9.42691 9.13492 9.42691 9.132C9.42691 9.12907 9.42691 9.12615 9.42691 9.12323C9.42691 9.12031 9.42691 9.1174 9.42691 9.11448C9.42691 9.11157 9.42691 9.10866 9.42691 9.10575C9.42691 9.10284 9.42691 9.09993 9.42691 9.09702C9.42691 9.09412 9.42691 9.09122 9.42691 9.08832C9.42691 9.08542 9.42691 9.08252 9.42691 9.07962C9.42691 9.07673 9.42691 9.07384 9.42691 9.07095C9.42691 9.06806 9.42691 9.06517 9.42691 9.06228C9.42691 9.0594 9.42691 9.05652 9.42691 9.05364C9.42691 9.05076 9.42691 9.04788 9.42691 9.045C9.42691 9.04213 9.42691 9.03926 9.42691 9.03639C9.42691 9.03352 9.42691 9.03065 9.42691 9.02779C9.42691 9.02492 9.42691 9.02206 9.42691 9.0192C9.42691 9.01634 9.42691 9.01349 9.42691 9.01063C9.42691 9.00778 9.42691 9.00493 9.42691 9.00208C9.42691 8.99923 9.42691 8.99638 9.42691 8.99354C9.42691 8.9907 9.42691 8.98786 9.42691 8.98502C9.42691 8.98218 9.42691 8.97935 9.42691 8.97652C9.42691 8.97368 9.42691 8.97085 9.42691 8.96803C9.42691 8.9652 9.42691 8.96238 9.42691 8.95956C9.42691 8.95674 9.42691 8.95392 9.42691 8.9511C9.42691 8.94829 9.42691 8.94547 9.42691 8.94266C9.42691 8.93985 9.42691 8.93705 9.42691 8.93424C9.42691 8.93144 9.42691 8.92864 9.42691 8.92584C9.42691 8.92304 9.42691 8.92025 9.42691 8.91746C9.42691 8.91466 9.42691 8.91187 9.42691 8.90909C9.42691 8.9063 9.42691 8.90352 9.42691 8.90074C9.42691 8.89796 9.42691 8.89518 9.42691 8.8924C9.42691 8.88963 9.42691 8.88686 9.42691 8.88409C9.42691 8.88132 9.42691 8.87856 9.42691 8.87579C9.42691 8.87303 9.42691 8.87027 9.42691 8.86752C9.42691 8.86476 9.42691 8.86201 9.42691 8.85926C9.42691 8.85651 9.42691 8.85376 9.42691 8.85101C9.42691 8.84827 9.42691 8.84553 9.42691 8.84279C9.42691 8.84005 9.42691 8.83732 9.42691 8.83459C9.42691 8.83186 9.42691 8.82913 9.42691 8.8264C9.42691 8.82368 9.42691 8.82096 9.42691 8.81824C9.42691 8.81552 9.42691 8.8128 9.42691 8.81009C9.42691 8.80738 9.42691 8.80467 9.42691 8.80197C9.42691 8.79926 9.42691 8.79656 9.42691 8.79386C9.42691 8.79116 9.42691 8.78846 9.42691 8.78577C9.42691 8.78308 9.42691 8.78039 9.42691 8.7777C9.42691 8.77502 9.42691 8.77233 9.42691 8.76965C9.42691 8.76697 9.42691 8.7643 9.42691 8.76163C9.42691 8.75895 9.42691 8.75628 9.42691 8.75362C9.42691 8.75095 9.42691 8.74829 9.42691 8.74563C9.42691 8.74297 9.42691 8.74032 9.42691 8.73766C9.42691 8.73501 9.42691 8.73236 9.42691 8.72972C9.42691 8.72707 9.42691 8.72443 9.42691 8.72179C9.42691 8.71916 9.42691 8.71652 9.42691 8.71389C9.42691 8.71126 9.42691 8.70863 9.42691 8.70601C9.42691 8.70338 9.42691 8.70076 9.42691 8.69814C9.42691 8.69553 9.42691 8.69291 9.42691 8.6903C9.42691 8.68769 9.42691 8.68509 9.42691 8.68248C9.42691 8.67988 9.42691 8.67728 9.42691 8.67469C9.42691 8.67209 9.42691 8.6695 9.42691 8.66691C9.42691 8.66432 9.42691 8.66174 9.42691 8.65916C9.42691 8.65658 9.42691 8.654 9.42691 8.65143C9.42691 8.64885 9.42691 8.64628 9.42691 8.64372C9.42691 8.64115 9.42691 8.63859 9.42691 8.63603C9.42691 8.63347 9.42691 8.63092 9.42691 8.62837C9.42691 8.62581 9.42691 8.62327 9.42691 8.62072C9.42691 8.61818 9.42691 8.61564 9.42691 8.6131C9.42691 8.61057 9.42691 8.60804 9.42691 8.60551C9.42691 8.60298 9.42691 8.60046 9.42691 8.59793C9.42691 8.59541 9.42691 8.5929 9.42691 8.59038C9.42691 8.58787 9.42691 8.58536 9.42691 8.58286C9.42691 8.58035 9.42691 8.57785 9.42691 8.57535C9.42691 8.57286 9.42691 8.57036 9.42691 8.56788C9.42691 8.56539 9.42691 8.5629 9.42691 8.56042C9.42691 8.55794 9.42691 8.55546 9.42691 8.55299C9.42691 8.55051 9.42691 8.54804 9.42691 8.54558C9.42691 8.54311 9.42691 8.54065 9.42691 8.5382C9.42691 8.53574 9.42691 8.53329 9.42691 8.53084C9.42691 8.52839 9.42691 8.52594 9.42691 8.5235C9.42691 8.52106 9.42691 8.51862 9.42691 8.51619C9.42691 8.51376 9.42691 8.51133 9.42691 8.50891C9.42691 8.50648 9.42691 8.50406 9.42691 8.50165C9.42691 8.49923 9.42691 8.49682 9.42691 8.49441C9.42691 8.492 9.42691 8.4896 9.42691 8.4872C9.42691 8.4848 9.42691 8.48241 9.42691 8.48001C9.42691 8.47762 9.42691 8.47524 9.42691 8.47285C9.42691 8.47047 9.42691 8.46809 9.42691 8.46572C9.42691 8.46335 9.42691 8.46098 9.42691 8.45861C9.42691 8.45625 9.42691 8.45389 9.42691 8.45153C9.42691 8.44917 9.42691 8.44682 9.42691 8.44447C9.42691 8.44213 9.42691 8.43978 9.42691 8.43744C9.42691 8.4351 9.42691 8.43277 9.42691 8.43044C9.42691 8.42811 9.42691 8.42578 9.42691 8.42346C9.42691 8.42114 9.42691 8.41882 9.42691 8.41651C9.42691 8.4142 9.42691 8.41189 9.42691 8.40959C9.42691 8.40728 9.42691 8.40498 9.42691 8.40269C9.42691 8.40039 9.42691 8.3981 9.42691 8.39582C9.42691 8.39353 9.42691 8.39125 9.42691 8.38898C9.42691 8.3867 9.42691 8.38443 9.42691 8.38216C9.42691 8.37989 9.42691 8.37763 9.42691 8.37537C9.42691 8.37311 9.42691 8.37086 9.42691 8.36861C9.42691 8.36636 9.42691 8.36412 9.42691 8.36188C9.42691 8.35964 9.42691 8.3574 9.42691 8.35517C9.42691 8.35294 9.42691 8.35072 9.42691 8.34849C9.42691 8.34627 9.42691 8.34406 9.42691 8.34185C9.42691 8.33963 9.42691 8.33743 9.42691 8.33522C9.42691 8.33302 9.42691 8.33082 9.42691 8.32863C9.42691 8.32644 9.42691 8.32425 9.42691 8.32207C9.42691 8.31988 9.42691 8.31771 9.42691 8.31553C9.42691 8.31336 9.42691 8.31119 9.42691 8.30903C9.42691 8.30686 9.42691 8.3047 9.42691 8.30255C9.42691 8.30039 9.42691 8.29824 9.42691 8.2961C9.42691 8.29396 9.42691 8.29182 9.42691 8.28968C9.42691 8.28755 9.42691 8.28542 9.42691 8.28329C9.42691 8.28117 9.42691 8.27905 9.42691 8.27693C9.42691 8.27482 9.42691 8.27271 9.42691 8.2706C9.42691 8.2685 9.42691 8.2664 9.42691 8.2643C9.42691 8.26221 9.42691 8.26011 9.42691 8.25803C9.42691 8.25594 9.42691 8.25386 9.42691 8.25179C9.42691 8.24971 9.42691 8.24764 9.42691 8.24558C9.42691 8.24351 9.42691 8.24145 9.42691 8.2394C9.42691 8.23734 9.42691 8.23529 9.42691 8.23325C9.42691 8.2312 9.42691 8.22916 9.42691 8.22713C9.42691 8.2251 9.42691 8.22307 9.42691 8.22104C9.42691 8.21902 9.42691 8.217 9.42691 8.21499C9.42691 8.21297 9.42691 8.21096 9.42691 8.20896C9.42691 8.20696 9.42691 8.20496 9.42691 8.20297C9.42691 8.20097 9.42691 8.19898 9.42691 8.197C9.42691 8.19502 9.42691 8.19304 9.42691 8.19107C9.42691 8.1891 9.42691 8.18713 9.42691 8.18517C9.42691 8.18321 9.42691 8.18125 9.42691 8.1793C9.42691 8.17735 9.42691 8.17541 9.42691 8.17347C9.42691 8.17153 9.42691 8.16959 9.42691 8.16766C9.42691 8.16573 9.42691 8.16381 9.42691 8.16189C9.42691 8.15997 9.42691 8.15806 9.42691 8.15615C9.42691 8.15424 9.42691 8.15234 9.42691 8.15044C9.42691 8.14854 9.42691 8.14665 9.42691 8.14477C9.42691 8.14288 9.42691 8.141 9.42691 8.13913C9.42691 8.13725 9.42691 8.13538 9.42691 8.13352C9.42691 8.13165 9.42691 8.12979 9.42691 8.12794C9.42691 8.12609 9.42691 8.12424 9.42691 8.1224C9.42691 8.12056 9.42691 8.11872 9.42691 8.11689C9.42691 8.11506 9.42691 8.11323 9.42691 8.11141C9.42691 8.10959 9.42691 8.10778 9.42691 8.10597C9.42691 8.10416 9.42691 8.10236 9.42691 8.10056C9.42691 8.09877 9.42691 8.09697 9.42691 8.09519C9.42691 8.0934 9.42691 8.09162 9.42691 8.08985C9.42691 8.08807 9.42691 8.0863 9.42691 8.08454C9.42691 8.08278 9.42691 8.08102 9.42691 8.07927C9.42691 8.07752 9.42691 8.07577 9.42691 8.07403C9.42691 8.07229 9.42691 8.07056 9.42691 8.06883C9.42691 8.0671 9.42691 8.06538 9.42691 8.06366C9.42691 8.06194 9.42691 8.06023 9.42691 8.05853C9.42691 8.05682 9.42691 8.05512 9.42691 8.05343C9.42691 8.05174 9.42691 8.05005 9.42691 8.04837C9.42691 8.04669 9.42691 8.04501 9.42691 8.04334C9.42691 8.04167 9.42691 8.04001 9.42691 8.03835C9.42691 8.03669 9.42691 8.03504 9.42691 8.03339C9.42691 8.03174 9.42691 8.0301 9.42691 8.02847C9.42691 8.02684 9.42691 8.02521 9.42691 8.02358C9.42691 8.02196 9.42691 8.02035 9.42691 8.01874C9.42691 8.01713 9.42691 8.01552 9.42691 8.01392C9.42691 8.01233 9.42691 8.01073 9.42691 8.00915C9.42691 8.00756 9.42691 8.00598 9.42691 8.00441C9.42691 8.00283 9.42691 8.00127 9.42691 7.9997C9.42691 7.99814 9.42691 7.99659 9.42691 7.99504C9.42691 7.99349 9.42691 7.99194 9.42691 7.99041C9.42691 7.98887 9.42691 7.98734 9.42691 7.98581C9.42691 7.98429 9.42691 7.98277 9.42691 7.98126C9.42691 7.97975 9.42691 7.97824 9.42691 7.97674C9.42691 7.97524 9.42691 7.97375 9.42691 7.97226C9.42691 7.97077 9.42691 7.96929 9.42691 7.96782C9.42691 7.96634 9.42691 7.96487 9.42691 7.96341C9.42691 7.96195 9.42691 7.96049 9.42691 7.95904C9.42691 7.95759 9.42691 7.95615 9.42691 7.95471C9.42691 7.95328 9.42691 7.95185 9.42691 7.95042C9.42691 7.949 9.42691 7.94758 9.42691 7.94617C9.42691 7.94476 9.42691 7.94335 9.42691 7.94195C9.42691 7.94055 9.42691 7.93916 9.42691 7.93778C9.42691 7.93639 9.42691 7.93501 9.42691 7.93364C9.42691 7.93227 9.42691 7.9309 9.42691 7.92954C9.42691 7.92818 9.42691 7.92683 9.42691 7.92548C9.42691 7.92413 9.42691 7.92279 9.42691 7.92146C9.42691 7.92013 9.42691 7.9188 9.42691 7.91748C9.42691 7.91616 9.42691 7.91484 9.42691 7.91354C9.42691 7.91223 9.42691 7.91093 9.42691 7.90963C9.42691 7.90834 9.42691 7.90705 9.42691 7.90577C9.42691 7.90449 9.42691 7.90322 9.42691 7.90195C9.42691 7.90068 9.42691 7.89942 9.42691 7.89816C9.42691 7.89691 9.42691 7.89566 9.42691 7.89442C9.42691 7.89318 9.42691 7.89195 9.42691 7.89072C9.42691 7.88949 9.42691 7.88827 9.42691 7.88706C9.42691 7.88584 9.42691 7.88464 9.42691 7.88344C9.42691 7.88223 9.42691 7.88104 9.42691 7.87985C9.42691 7.87867 9.42691 7.87749 9.42691 7.87631C9.42691 7.87514 9.42691 7.87397 9.42691 7.87281C9.42691 7.87166 9.42691 7.8705 9.42691 7.86936C9.42691 7.86821 9.42691 7.86707 9.42691 7.86594C9.42691 7.86481 9.42691 7.86368 9.42691 7.86256C9.42691 7.86145 9.42691 7.86033 9.42691 7.85923C9.42691 7.85813 9.42691 7.85703 9.42691 7.85594C9.42691 7.85485 9.42691 7.85376 9.42691 7.85269C9.42691 7.85161 9.42691 7.85054 9.42691 7.84948C9.42691 7.84842 9.42691 7.84736 9.42691 7.84631C9.42691 7.84526 9.42691 7.84422 9.42691 7.84319C9.42691 7.84215 9.42691 7.84113 9.42691 7.84011C9.42691 7.83909 9.42691 7.83807 9.42691 7.83707C9.42691 7.83606 9.42691 7.83506 9.42691 7.83407C9.42691 7.83308 9.42691 7.83209 9.42691 7.83112C9.42691 7.83014 9.42691 7.82917 9.42691 7.8282C9.42691 7.82724 9.42691 7.82629 9.42691 7.82534C9.42691 7.82439 9.42691 7.82345 9.42691 7.82251C9.42691 7.82158 9.42691 7.82065 9.42691 7.81973C9.42691 7.81881 9.42691 7.8179 9.42691 7.81699C9.42691 7.81609 9.42691 7.81519 9.42691 7.8143C9.42691 7.81341 9.42691 7.81252 9.42691 7.81165C9.42691 7.81077 9.42691 7.8099 9.42691 7.80904C9.42691 7.80818 9.42691 7.80733 9.42691 7.80648C9.42691 7.80563 9.42691 7.80479 9.42691 7.80396C9.42691 7.80313 9.42691 7.8023 9.42691 7.80149C9.42691 7.80067 9.42691 7.79986 9.42691 7.79906C9.42691 7.79825 9.42691 7.79746 9.42691 7.79667C9.42691 7.79588 9.42691 7.7951 9.42691 7.79433C9.42691 7.79356 9.42691 7.79279 9.42691 7.79204C9.42691 7.79128 9.42691 7.79053 9.42691 7.78979C9.42691 7.78904 9.42691 7.78831 9.42691 7.78758C9.42691 7.78685 9.42691 7.78613 9.42691 7.78542C9.42691 7.78471 9.42691 7.784 9.42691 7.78331C9.42691 7.78261 9.42691 7.78192 9.42691 7.78124C9.42691 7.78056 9.42691 7.77988 9.42691 7.77922C9.42691 7.77855 9.42691 7.77789 9.42691 7.77724C9.42691 7.77659 9.42691 7.77594 9.42691 7.77531C9.42691 7.77467 9.42691 7.77404 9.42691 7.77342C9.42691 7.7728 9.42691 7.77219 9.42691 7.77158C9.42691 7.77098 9.42691 7.77038 9.42691 7.76979C9.42691 7.7692 9.42691 7.76862 9.42691 7.76805C9.42691 7.76747 9.42691 7.76691 9.42691 7.76635C9.42691 7.76579 9.42691 7.76524 9.42691 7.7647C9.42691 7.76415 9.42691 7.76362 9.42691 7.76309C9.42691 7.76256 9.42691 7.76205 9.42691 7.76153C9.42691 7.76102 9.42691 7.76052 9.42691 7.76002C9.42691 7.75953 9.42691 7.75904 9.42691 7.75856C9.42691 7.75808 9.42691 7.75761 9.42691 7.75715C9.42691 7.75668 9.42691 7.75623 9.42691 7.75578C9.42691 7.75533 9.42691 7.75489 9.42691 7.75446C9.42691 7.75403 9.42691 7.7536 9.42691 7.75319C9.42691 7.75277 9.42691 7.75236 9.42691 7.75196C9.42691 7.75156 9.42691 7.75117 9.42691 7.75079C9.42691 7.7504 9.42691 7.75003 9.42691 7.74966C9.42691 7.74929 9.42691 7.74893 9.42691 7.74858C9.42691 7.74823 9.42691 7.74789 9.42691 7.74755C9.42691 7.74722 9.42691 7.74689 9.42691 7.74657C9.42691 7.74625 9.42691 7.74594 9.42691 7.74564C9.42691 7.74534 9.42691 7.74504 9.42691 7.74476C9.42691 7.74447 9.42691 7.74419 9.42691 7.74392C9.42691 7.74366 9.42691 7.74339 9.42691 7.74314C9.42691 7.74289 9.42691 7.74264 9.42691 7.74241C9.42691 7.74217 9.42691 7.74194 9.42691 7.74172C9.42691 7.7415 9.42691 7.74129 9.42691 7.74109C9.42691 7.74088 9.42691 7.74069 9.42691 7.7405C9.42691 7.74032 9.42691 7.74014 9.42691 7.73997C9.42691 7.7398 9.42691 7.73964 9.42691 7.73948C9.42691 7.73933 9.42691 7.73919 9.42691 7.73905C9.42691 7.73891 9.42691 7.73878 9.42691 7.73867C9.42691 7.73855 9.42691 7.73844 9.42691 7.73833C9.42691 7.73823 9.42691 7.73814 9.42691 7.73805C9.42691 7.73796 9.42691 7.73789 9.42691 7.73782C9.42691 7.73775 9.42691 7.73769 9.42691 7.73764C9.42691 7.73759 9.42691 7.73755 9.42691 7.73751C9.42691 7.73748 9.42691 7.73745 9.42691 7.73743C9.42691 7.73742 9.42691 7.73741 7.92691 7.73741ZM7.68277 9.877C6.80389 10.022 5.94987 10.3232 5.27324 10.7901C4.62724 11.2359 3.90283 12.0177 3.90283 13.134H6.90283C6.90283 13.4242 6.72089 13.4361 6.97713 13.2593C7.20276 13.1036 7.61078 12.9294 8.17106 12.837L7.68277 9.877ZM3.90283 13.134C3.90283 14.4893 4.94463 15.347 5.75279 15.7732C6.64646 16.2446 7.77835 16.5 8.94024 16.5V13.5C8.18484 13.5 7.54803 13.3284 7.15232 13.1197C6.6711 12.8659 6.90283 12.7906 6.90283 13.134H3.90283ZM8.94024 16.5C10.1023 16.5 11.2344 16.2446 12.1282 15.7733C12.9364 15.3472 13.9787 14.4895 13.9787 13.134H10.9787C10.9787 12.7903 11.2107 12.8657 10.729 13.1196C10.333 13.3284 9.6959 13.5 8.94024 13.5V16.5ZM13.9787 13.134C13.9787 12.0171 13.2532 11.2353 12.6074 10.7898C11.9306 10.3231 11.0764 10.0218 10.1975 9.87697L9.7096 12.837C10.2697 12.9293 10.6781 13.1036 10.9041 13.2594C11.1611 13.4367 10.9787 13.4248 10.9787 13.134H13.9787ZM11.4536 11.357V7.73741H8.45357V11.357H11.4536ZM9.32139 5.60557L8.55829 5.60569L8.55877 8.60569L9.32187 8.60557L9.32139 5.60557ZM11.4536 7.73741C11.4536 6.55989 10.4989 5.60538 9.32139 5.60557L9.32187 8.60557C8.84234 8.60565 8.45357 8.21693 8.45357 7.73741H11.4536ZM9.42691 7.73741C9.42691 7.73741 7.92691 7.73741 6.42691 7.73741C6.42691 7.73741 6.42691 7.73741 7.92691 7.73741C9.42691 7.73741 9.42691 7.73741 9.42691 7.73741C7.92691 7.73741 6.42691 7.73741 6.42691 7.73741H9.42691ZM9.42691 7.73741C9.42691 8.21689 9.03826 8.60561 8.55877 8.60569L8.55829 5.60569C7.38111 5.60588 6.42691 6.56022 6.42691 7.73741H9.42691Z" fill="white" mask="url(#path-2-inside-1)"/>
</svg>
