<svg width="20" height="20" viewBox="0 0 20 20" fill="none" xmlns="http://www.w3.org/2000/svg">
<path d="M7.71429 18.0008C8.10877 18.0008 8.42857 17.681 8.42857 17.2866C8.42857 16.8921 8.10877 16.5723 7.71429 16.5723C7.3198 16.5723 7 16.8921 7 17.2866C7 17.681 7.3198 18.0008 7.71429 18.0008Z" stroke="white" stroke-width="2" stroke-linecap="round" stroke-linejoin="round"/>
<path d="M15.5717 18.0008C15.9662 18.0008 16.286 17.681 16.286 17.2866C16.286 16.8921 15.9662 16.5723 15.5717 16.5723C15.1772 16.5723 14.8574 16.8921 14.8574 17.2866C14.8574 17.681 15.1772 18.0008 15.5717 18.0008Z" stroke="white" stroke-width="2" stroke-linecap="round" stroke-linejoin="round"/>
<path d="M2 3H4.85714L6.77143 12.5643C6.83675 12.8931 7.01565 13.1885 7.27682 13.3988C7.53799 13.609 7.86478 13.7207 8.2 13.7143H15.1429C15.4781 13.7207 15.8049 13.609 16.066 13.3988C16.3272 13.1885 16.5061 12.8931 16.5714 12.5643L17.7143 6.57143H5.57143" stroke="white" stroke-width="2" stroke-linecap="round" stroke-linejoin="round"/>
</svg>
