<svg width="20" height="19" viewBox="0 0 20 19" fill="none" xmlns="http://www.w3.org/2000/svg">
<path d="M17.7018 0.362305H9.90762C8.96348 0.362305 8.22021 1.12566 8.22021 2.04971V6.16779C8.22021 7.09184 8.96348 7.83511 9.88753 7.8552V8.87969C9.88753 9.34172 10.1688 9.74348 10.5906 9.92428C10.7312 9.98454 10.8719 10.0046 11.0326 10.0046C11.3339 10.0046 11.6151 9.8841 11.8361 9.66313L13.6641 7.83511H17.742C18.6862 7.83511 19.4294 7.07176 19.4294 6.1477V2.0698C19.3892 1.12566 18.6259 0.362305 17.7018 0.362305ZM18.204 6.18788C18.204 6.46911 17.963 6.71017 17.6817 6.71017H13.3829C13.2222 6.71017 13.0816 6.77043 12.961 6.89096L11.0526 8.77925V7.27264C11.0526 6.95123 10.7915 6.69008 10.4701 6.69008H9.92771C9.64648 6.69008 9.40542 6.44902 9.40542 6.16779V2.0698C9.40542 1.78857 9.64648 1.54751 9.92771 1.54751H17.7219C18.0032 1.54751 18.2442 1.78857 18.2442 2.0698V6.18788H18.204Z" fill="white" stroke="white" stroke-width="0.5"/>
<path d="M11.8236 4.94215C12.2785 4.94215 12.6472 4.57341 12.6472 4.11854C12.6472 3.66367 12.2785 3.29492 11.8236 3.29492C11.3687 3.29492 11 3.66367 11 4.11854C11 4.57341 11.3687 4.94215 11.8236 4.94215Z" fill="white" stroke="white" stroke-width="0.5"/>
<path d="M15.3734 4.94215C15.8283 4.94215 16.197 4.57341 16.197 4.11854C16.197 3.66367 15.8283 3.29492 15.3734 3.29492C14.9185 3.29492 14.5498 3.66367 14.5498 4.11854C14.5498 4.57341 14.9185 4.94215 15.3734 4.94215Z" fill="white" stroke="white" stroke-width="0.5"/>
<path d="M12.5392 13.1592L10.9523 11.8936C10.6108 11.6124 10.1688 11.4717 9.74699 11.4717C9.18452 11.4717 8.64214 11.7128 8.26047 12.1547C8.18011 12.2552 8.11985 12.3154 8.05958 12.3958C7.83861 12.2552 7.47703 11.994 6.89447 11.4115C6.31191 10.8289 6.05077 10.4673 5.91015 10.2464C5.97041 10.1861 6.05077 10.1258 6.15121 10.0455C6.95473 9.36248 7.07526 8.17728 6.41235 7.35367L5.12671 5.7667C4.74503 5.30467 4.20265 5.02344 3.60001 5.02344C3.33886 5.02344 3.07772 5.0837 2.81657 5.18414C2.15366 5.46538 1.2296 6.2689 1.04881 6.46979C-0.17657 7.69517 0.385899 9.5031 0.847928 10.4472C1.43048 11.6726 2.47507 13.0587 3.86116 14.4448C5.18698 15.7706 7.73817 18.0004 9.94787 18.0004C10.6911 18.0004 11.354 17.7393 11.8362 17.2571C12.037 17.0563 12.8406 16.1523 13.1218 15.4894C13.4633 14.6658 13.2222 13.7015 12.5392 13.1592ZM12.037 15.0073C11.8563 15.4492 11.2134 16.2126 11.0125 16.4134C10.7313 16.6947 10.3697 16.8152 9.94787 16.8152C8.60197 16.8152 6.61324 15.5296 4.68477 13.6011C2.17375 11.0901 0.727399 8.43843 1.87242 7.2934C2.07331 7.09252 2.85675 6.4497 3.2786 6.24882C3.37904 6.20864 3.47948 6.18855 3.57992 6.18855C3.82098 6.18855 4.04195 6.28899 4.18257 6.48987L5.44812 8.07684C5.70927 8.39825 5.66909 8.88037 5.34768 9.14151C5.02627 9.42275 4.8053 9.62363 4.74504 9.6839C4.26292 10.166 4.966 11.1704 6.03068 12.2351C6.85429 13.0587 7.65782 13.6814 8.2002 13.6814C8.36091 13.6814 8.48144 13.6413 8.58188 13.5207C8.64214 13.4605 8.84302 13.2395 9.12426 12.9181C9.28496 12.7373 9.50593 12.6369 9.70682 12.6369C9.86752 12.6369 10.0483 12.6971 10.1889 12.7976L11.7759 14.0631C12.0772 14.3042 12.1777 14.6859 12.037 15.0073Z" fill="white" stroke="white" stroke-width="0.5"/>
</svg>
