<svg width="16" height="17" viewBox="0 0 16 17" fill="none" xmlns="http://www.w3.org/2000/svg">
<path d="M8.03206 16C7.41191 16 6.84988 15.6606 6.54566 15.1094L6.50441 15.0414C6.41159 14.8539 6.26675 14.6191 6.10503 14.5666C5.97847 14.5248 5.78394 14.5736 5.52613 14.7086L5.44878 14.7405C4.883 15.0025 4.23331 14.9378 3.73269 14.5633C3.23675 14.193 2.97894 13.585 3.04784 12.9606L3.053 12.8823C3.14722 12.2706 3.02722 12.0981 2.44222 12.0034L2.36019 11.9823C1.75644 11.8534 1.27175 11.4123 1.08238 10.8133C0.894407 10.2184 1.03363 9.57391 1.44472 9.10984L1.49628 9.04609C1.91863 8.61203 1.91863 8.38703 1.49628 7.95297L1.44378 7.88828C1.03363 7.42422 0.894407 6.78016 1.08238 6.18578C1.27175 5.58672 1.75738 5.14562 2.36159 5.01719L2.44175 4.99656C3.02675 4.90094 3.14628 4.72844 3.05253 4.11672L3.04784 4.0375C2.97941 3.41406 3.23722 2.80656 3.73316 2.43625C4.23472 2.06125 4.88628 1.99703 5.45206 2.26047L5.52659 2.29141C5.78441 2.42641 5.97894 2.47516 6.1055 2.43344C6.26722 2.38094 6.41206 2.14656 6.50488 1.95859L6.5466 1.88969C6.85081 1.33891 7.41238 1 8.03206 1C8.65269 1 9.21566 1.34031 9.51988 1.89344L9.55925 1.95859C9.65253 2.14609 9.79738 2.38094 9.95956 2.43344C10.0847 2.47469 10.2802 2.42687 10.5385 2.29141L10.6139 2.26C11.1797 1.99656 11.8294 2.06172 12.3314 2.43578C12.8269 2.80609 13.0843 3.41313 13.0168 4.03703L13.0111 4.11672C12.9169 4.72844 13.0369 4.90094 13.6219 4.99609L13.7035 5.01672C14.3072 5.14563 14.7924 5.58625 14.9818 6.18531C15.1693 6.78063 15.0305 7.42562 14.6189 7.88969L14.5678 7.9525C14.146 8.38656 14.146 8.61156 14.5678 9.04562L14.6199 9.10938C15.0305 9.57344 15.1697 10.218 14.9818 10.8128C14.7928 11.4119 14.3072 11.8534 13.7025 11.9819L13.6219 12.003C13.0369 12.0977 12.9174 12.2702 13.0116 12.8819L13.0172 12.9634C13.0852 13.5869 12.8274 14.1934 12.3319 14.5628C11.8313 14.9383 11.1816 15.0025 10.6144 14.7395L10.5389 14.7081C10.2802 14.5727 10.0838 14.5248 9.96003 14.5661C9.79785 14.6181 9.65347 14.853 9.55972 15.0409L9.51988 15.1075C9.21472 15.6602 8.65222 16 8.03206 16ZM7.30878 14.5544L7.34769 14.6195C7.48175 14.8928 7.74425 15.0625 8.03206 15.0625C8.31988 15.0625 8.58238 14.8928 8.71691 14.6195L8.75488 14.5558C9.00285 14.0823 9.30285 13.7941 9.66941 13.675C10.0332 13.5569 10.4353 13.6112 10.9003 13.8409L10.9721 13.8714C11.2327 14.0087 11.5378 13.9853 11.7699 13.8123C12.0089 13.6338 12.1271 13.3314 12.0783 13.022L12.0727 12.9442C11.9386 11.9059 12.3811 11.2834 13.3899 11.0917L13.4658 11.073C13.7583 11.0261 13.996 10.8184 14.0864 10.5311C14.1788 10.2386 14.1028 9.92031 13.8882 9.70094L13.8385 9.64047C13.1386 8.88297 13.1391 8.11562 13.8394 7.35812L13.8882 7.29859C14.1028 7.07922 14.1788 6.76094 14.0864 6.46797C13.996 6.18062 13.7583 5.97297 13.4663 5.92656L13.3885 5.90734C12.3811 5.71516 11.9386 5.09219 12.0727 4.05344L12.0783 3.9775C12.1271 3.66813 12.0089 3.36531 11.7699 3.18672C11.5374 3.01328 11.2322 2.99031 10.9721 3.12813L10.9003 3.15859C10.4349 3.38734 10.0313 3.44219 9.66941 3.32453C9.30238 3.20641 9.00238 2.91719 8.75394 2.44328L8.71691 2.38094C8.58238 2.10719 8.31988 1.9375 8.03206 1.9375C7.74425 1.9375 7.48175 2.10719 7.34769 2.38047L7.30831 2.44656C7.06035 2.91859 6.76081 3.20641 6.39472 3.32547C6.03331 3.44266 5.62925 3.38875 5.16285 3.15859L5.09206 3.12859C4.83191 2.99125 4.52628 3.01422 4.29425 3.18719C4.05519 3.36578 3.93659 3.66906 3.98534 3.97797L3.99097 4.05344C4.12503 5.09219 3.68253 5.71563 2.67425 5.90781L2.59738 5.92703C2.30534 5.97391 2.06769 6.18109 1.97675 6.46891C1.88441 6.76141 1.96034 7.07969 2.1755 7.29906L2.22613 7.36047C2.92456 8.1175 2.92456 8.88391 2.22519 9.64094L2.1755 9.70141C1.96081 9.92125 1.88441 10.2391 1.97675 10.5316C2.06769 10.8194 2.30534 11.0275 2.59784 11.0739L2.67519 11.0931C3.683 11.2848 4.1255 11.9083 3.9905 12.948L3.98488 13.023C3.93613 13.3314 4.05472 13.6347 4.29378 13.8133C4.52628 13.9867 4.83144 14.0102 5.09206 13.8719L5.16519 13.8414C5.63019 13.6122 6.03285 13.5578 6.39472 13.6755C6.76081 13.7936 7.06035 14.0819 7.30878 14.5544Z" fill="white" stroke="white" stroke-width="0.9"/>
<path fill-rule="evenodd" clip-rule="evenodd" d="M5.35974 11.0755C5.45737 11.176 5.61732 11.1784 5.71783 11.0807L10.138 6.78729C10.2385 6.68966 10.2409 6.52971 10.1432 6.4292C10.0456 6.32868 9.88565 6.32635 9.78513 6.42399L5.36616 10.7162C5.26443 10.815 5.2621 10.975 5.35974 11.0755ZM8.48715 11.1578C8.69182 11.3686 8.97642 11.5016 9.29393 11.5063C9.92656 11.5155 10.4485 11.0085 10.4589 10.3747C10.4681 9.74204 9.96115 9.22009 9.32734 9.20968C9.02177 9.20524 8.73117 9.3204 8.51076 9.53448C8.29036 9.74856 8.168 10.0345 8.16235 10.3413C8.15894 10.6576 8.28247 10.9471 8.48715 11.1578ZM9.31998 9.71579C9.49664 9.71836 9.65554 9.7923 9.77082 9.91098C9.88609 10.0297 9.95539 10.1906 9.95282 10.3673C9.94768 10.7206 9.65582 11.0041 9.3025 10.999C8.94918 10.9938 8.6657 10.702 8.67084 10.3487C8.67334 10.1768 8.74251 10.0178 8.86604 9.89782C8.98956 9.77784 9.14809 9.71329 9.31998 9.71579ZM5.04276 7.1301C5.05317 6.4963 5.57512 5.98932 6.20775 5.99852C6.84038 6.00772 7.34853 6.53088 7.33933 7.16351C7.33368 7.47026 7.21132 7.75621 6.99092 7.9703C6.77051 8.18438 6.47991 8.29954 6.17434 8.2951C5.85683 8.29048 5.57223 8.1574 5.36756 7.94668C5.16288 7.73596 5.03814 7.44761 5.04276 7.1301ZM6.1817 7.78899C6.35241 7.79028 6.51572 7.7258 6.63803 7.60699C6.76034 7.48819 6.83072 7.32804 6.83319 7.15854C6.83576 6.98188 6.76529 6.81968 6.65119 6.70221C6.53592 6.58353 6.37701 6.50958 6.20035 6.50701C5.84703 6.50187 5.55518 6.78536 5.55004 7.13868C5.5449 7.492 5.82838 7.78385 6.1817 7.78899Z" fill="white"/>
<path d="M5.71783 11.0807L5.47397 10.8297L5.71783 11.0807ZM10.138 6.78729L10.3819 7.03835L10.138 6.78729ZM9.78513 6.42399L10.029 6.67505L9.78513 6.42399ZM5.36616 10.7162L5.12229 10.4652L5.36616 10.7162ZM9.29393 11.5063L9.29902 11.1563L9.29902 11.1563L9.29393 11.5063ZM10.4589 10.3747L10.8089 10.3804L10.8089 10.3798L10.4589 10.3747ZM9.32734 9.20968L9.33309 8.85973L9.33243 8.85972L9.32734 9.20968ZM8.16235 10.3413L7.8124 10.3348L7.81237 10.3375L8.16235 10.3413ZM9.31998 9.71579L9.32507 9.36582L9.32507 9.36582L9.31998 9.71579ZM9.95282 10.3673L9.60285 10.3622L9.95282 10.3673ZM9.3025 10.999L9.3076 10.649L9.30759 10.649L9.3025 10.999ZM8.67084 10.3487L8.32088 10.3436L8.32088 10.3436L8.67084 10.3487ZM6.20775 5.99852L6.20266 6.34848L6.20775 5.99852ZM5.04276 7.1301L4.6928 7.12435L4.69279 7.12501L5.04276 7.1301ZM7.33933 7.16351L7.68927 7.16997L7.68929 7.1686L7.33933 7.16351ZM6.17434 8.2951L6.16925 8.64506L6.16925 8.64506L6.17434 8.2951ZM6.1817 7.78899L6.17661 8.13896L6.17906 8.13898L6.1817 7.78899ZM6.83319 7.15854L7.18315 7.16363L7.18315 7.16363L6.83319 7.15854ZM6.20035 6.50701L6.20544 6.15705L6.20544 6.15705L6.20035 6.50701ZM5.47397 10.8297C5.51211 10.7926 5.57375 10.7935 5.6108 10.8316L5.10867 11.3194C5.34099 11.5585 5.72252 11.5641 5.96169 11.3318L5.47397 10.8297ZM9.89415 6.53623L5.47397 10.8297L5.96169 11.3318L10.3819 7.03835L9.89415 6.53623ZM9.89216 6.67306C9.85511 6.63491 9.85601 6.57328 9.89415 6.53623L10.3819 7.03835C10.621 6.80604 10.6266 6.42451 10.3943 6.18533L9.89216 6.67306ZM10.029 6.67505C9.99085 6.7121 9.92921 6.7112 9.89216 6.67306L10.3943 6.18533C10.162 5.94616 9.78044 5.94061 9.54127 6.17293L10.029 6.67505ZM5.61002 10.9673L10.029 6.67505L9.54127 6.17293L5.12229 10.4652L5.61002 10.9673ZM5.6108 10.8316C5.6489 10.8709 5.64586 10.9325 5.61002 10.9673L5.12229 10.4652C4.883 10.6976 4.87531 11.0791 5.10867 11.3194L5.6108 10.8316ZM9.29902 11.1563C9.07845 11.1531 8.88114 11.0611 8.73821 10.914L8.23609 11.4017C8.5025 11.676 8.87439 11.8502 9.28884 11.8562L9.29902 11.1563ZM10.109 10.3689C10.1017 10.8103 9.73801 11.1627 9.29902 11.1563L9.28884 11.8562C10.1151 11.8682 10.7953 11.2066 10.8089 10.3804L10.109 10.3689ZM9.32159 9.55963C9.763 9.56689 10.1153 9.93059 10.109 10.3696L10.8089 10.3798C10.8209 9.55349 10.1593 8.8733 9.33309 8.85973L9.32159 9.55963ZM8.75462 9.78554C8.90847 9.6361 9.10954 9.55655 9.32225 9.55964L9.33243 8.85972C8.934 8.85392 8.55386 9.00469 8.2669 9.28342L8.75462 9.78554ZM8.51229 10.3477C8.51626 10.1321 8.60133 9.93444 8.75462 9.78554L8.2669 9.28342C7.97938 9.56269 7.81974 9.93694 7.81241 10.3348L8.51229 10.3477ZM8.73821 10.914C8.59611 10.7677 8.50994 10.5665 8.51233 10.345L7.81237 10.3375C7.80794 10.7487 7.96884 11.1266 8.23609 11.4017L8.73821 10.914ZM10.0219 9.66712C9.84492 9.48494 9.59876 9.3698 9.32507 9.36582L9.31489 10.0657C9.39452 10.0669 9.46616 10.0997 9.51976 10.1548L10.0219 9.66712ZM10.3028 10.3724C10.3068 10.0987 10.1988 9.8493 10.0219 9.66712L9.51976 10.1548C9.57335 10.21 9.60401 10.2826 9.60285 10.3622L10.3028 10.3724ZM9.29741 11.3489C9.84401 11.3569 10.2948 10.919 10.3028 10.3724L9.60285 10.3622C9.60053 10.5223 9.46763 10.6513 9.3076 10.649L9.29741 11.3489ZM8.32088 10.3436C8.31293 10.8902 8.75081 11.341 9.29741 11.3489L9.30759 10.649C9.14755 10.6467 9.01848 10.5138 9.0208 10.3538L8.32088 10.3436ZM8.62217 9.64676C8.43272 9.83078 8.32474 10.078 8.32088 10.3436L9.0208 10.3538C9.02194 10.2756 9.0523 10.2048 9.1099 10.1489L8.62217 9.64676ZM9.32507 9.36582C9.05806 9.36194 8.81061 9.46373 8.62217 9.64676L9.1099 10.1489C9.16851 10.0919 9.23813 10.0646 9.31489 10.0657L9.32507 9.36582ZM6.21284 5.64856C5.38656 5.63654 4.70638 6.29815 4.6928 7.12435L5.39271 7.13585C5.39996 6.69444 5.76367 6.3421 6.20266 6.34848L6.21284 5.64856ZM7.68929 7.1686C7.70131 6.34269 7.03875 5.66057 6.21284 5.64856L6.20266 6.34848C6.64201 6.35488 6.99576 6.71907 6.98937 7.15842L7.68929 7.1686ZM7.23478 8.22136C7.52229 7.94208 7.68194 7.56784 7.68927 7.16997L6.98939 7.15706C6.98541 7.37269 6.90034 7.57034 6.74705 7.71923L7.23478 8.22136ZM6.16925 8.64506C6.56768 8.65086 6.94782 8.50009 7.23478 8.22136L6.74705 7.71923C6.5932 7.86867 6.39214 7.94823 6.17943 7.94513L6.16925 8.64506ZM5.1165 8.19054C5.38291 8.46482 5.7548 8.63903 6.16925 8.64506L6.17943 7.94513C5.95886 7.94192 5.76155 7.84997 5.61862 7.70282L5.1165 8.19054ZM4.69279 7.12501C4.68676 7.53947 4.85008 7.91626 5.1165 8.19054L5.61862 7.70282C5.47569 7.55567 5.38951 7.35576 5.39272 7.1352L4.69279 7.12501ZM6.39417 7.35593C6.33894 7.40958 6.26463 7.43961 6.18435 7.439L6.17906 8.13898C6.44019 8.14095 6.6925 8.04201 6.88189 7.85805L6.39417 7.35593ZM6.48323 7.15345C6.48214 7.22804 6.45141 7.30033 6.39417 7.35593L6.88189 7.85805C7.06927 7.67605 7.17931 7.42804 7.18315 7.16363L6.48323 7.15345ZM6.40013 6.94607C6.45289 7.00039 6.48438 7.07428 6.48323 7.15345L7.18315 7.16363C7.18714 6.88947 7.07769 6.63896 6.90225 6.45835L6.40013 6.94607ZM6.19526 6.85698C6.27489 6.85814 6.34654 6.89089 6.40013 6.94607L6.90225 6.45835C6.7253 6.27617 6.47913 6.16103 6.20544 6.15705L6.19526 6.85698ZM5.9 7.14377C5.90233 6.98373 6.03522 6.85465 6.19526 6.85698L6.20544 6.15705C5.65884 6.1491 5.20803 6.58699 5.20008 7.13359L5.9 7.14377ZM6.18679 7.43903C6.02675 7.4367 5.89767 7.30381 5.9 7.14377L5.20008 7.13359C5.19212 7.68019 5.63001 8.131 6.17661 8.13895L6.18679 7.43903Z" fill="white"/>
</svg>
