<svg width="25" height="19" viewBox="0 0 25 19" fill="none" xmlns="http://www.w3.org/2000/svg">
<path d="M19.7783 3.83398H23.1783" stroke="#18172B" stroke-width="2" stroke-linecap="round" stroke-linejoin="round"/>
<path d="M1 3.83398H13.75" stroke="#18172B" stroke-width="2" stroke-linecap="round" stroke-linejoin="round"/>
<path d="M10.4277 15.166H22.8944" stroke="#18172B" stroke-width="2" stroke-linecap="round" stroke-linejoin="round"/>
<path d="M1 15.166H4.4" stroke="#18172B" stroke-width="2" stroke-linecap="round" stroke-linejoin="round"/>
<path d="M16.9437 6.66667C18.5085 6.66667 19.777 5.39814 19.777 3.83333C19.777 2.26853 18.5085 1 16.9437 1C15.3789 1 14.1104 2.26853 14.1104 3.83333C14.1104 5.39814 15.3789 6.66667 16.9437 6.66667Z" stroke="#18172B" stroke-width="2" stroke-linecap="round" stroke-linejoin="round"/>
<path d="M7.5931 18.0007C9.15791 18.0007 10.4264 16.7321 10.4264 15.1673C10.4264 13.6025 9.15791 12.334 7.5931 12.334C6.02829 12.334 4.75977 13.6025 4.75977 15.1673C4.75977 16.7321 6.02829 18.0007 7.5931 18.0007Z" stroke="#18172B" stroke-width="2" stroke-linecap="round" stroke-linejoin="round"/>
</svg>
