<svg width="18" height="17" viewBox="0 0 18 17" fill="none" xmlns="http://www.w3.org/2000/svg">
<path d="M8.85714 8.85714H10.2866C10.6806 8.85714 11 9.17419 11 9.57143C11 9.96592 10.6801 10.2857 10.2866 10.2857H8.14198L8.13982 10.2857C7.74673 10.2841 7.42857 9.96257 7.42857 9.56838V6.71733C7.42857 6.32116 7.74562 6 8.14286 6C8.53735 6 8.85714 6.32212 8.85714 6.71733V8.85714ZM15.9985 8.64939L16.296 8.35197C16.5749 8.07308 17.0251 8.07118 17.306 8.35207C17.585 8.63101 17.587 9.08125 17.3061 9.36212L15.7907 10.8775C15.6513 11.017 15.469 11.0872 15.2865 11.0874C15.1039 11.0877 14.9212 11.018 14.7807 10.8775L13.2653 9.36212C12.9864 9.08323 12.9845 8.63296 13.2654 8.35207C13.5444 8.07312 13.9946 8.0711 14.2755 8.35197L14.5697 8.64621C14.5709 8.59761 14.5714 8.54887 14.5714 8.5C14.5714 5.14684 11.8532 2.42857 8.5 2.42857C5.14684 2.42857 2.42857 5.14684 2.42857 8.5C2.42857 11.8532 5.14684 14.5714 8.5 14.5714C9.74752 14.5714 10.9072 14.1952 11.8716 13.55C12.1525 13.362 12.5242 13.3518 12.793 13.5566C13.1582 13.8348 13.1799 14.379 12.8042 14.6428C11.5859 15.498 10.1016 16 8.5 16C4.35786 16 1 12.6421 1 8.5C1 4.35786 4.35786 1 8.5 1C12.6421 1 16 4.35786 16 8.5C16 8.54991 15.9995 8.59971 15.9985 8.64939Z" fill="white" stroke="white" stroke-width="0.5"/>
</svg>
