<svg width="36" height="28" viewBox="0 0 36 28" fill="none" xmlns="http://www.w3.org/2000/svg">
<path d="M33.8288 14.8968C30.0476 14.6237 26.5912 14.3762 23.1355 14.1238C19.5575 13.8625 15.9812 13.5822 12.4023 13.3389C10.7864 13.2292 10.2101 12.5065 10.5997 10.9578C11.8896 6.0118 16.1033 2.3482 21.2263 1.71854C21.5335 1.6837 21.7441 1.65018 21.8368 1.29852C21.9188 0.986947 22.2267 0.899524 22.529 0.915957C23.2411 0.954739 23.9519 1.01455 24.6637 1.05991C24.9504 1.07864 25.2586 1.19597 25.2902 1.45233C25.3516 1.94926 25.7097 1.96865 26.0501 2.05706C31.2047 3.43249 34.9249 7.87134 35.3372 13.1381C35.4149 14.2221 34.6709 14.9313 33.8288 14.8968Z" fill="#F15A2B"/>
<path d="M22.8189 25.6164C21.5458 25.5333 20.3453 25.4657 19.1474 25.3697C18.8029 25.342 18.6453 25.3862 18.6154 25.7856C18.5721 26.3423 18.253 26.8413 17.7639 27.1177C17.4537 27.3699 17.0183 27.4047 16.6714 27.2051C16.2918 26.9686 16.1211 26.5077 16.2562 26.0837C16.3203 25.8136 16.4317 25.556 16.5265 25.276C16.1829 25.1553 15.819 25.1015 15.4549 25.1174C15.1765 25.1302 14.9052 25.0282 14.7053 24.8357C14.5053 24.6432 14.3944 24.3773 14.3989 24.1009C14.4128 23.8342 14.5365 23.5848 14.7412 23.4112C14.9458 23.2376 15.2133 23.155 15.4812 23.1827C17.6373 23.3077 19.7914 23.4621 21.9465 23.6006C22.5163 23.6372 23.0869 23.6788 23.657 23.6778C24.1485 23.6738 24.549 23.2855 24.5644 22.7982C24.5644 22.3125 24.1976 21.904 23.7112 21.848C21.6964 21.7118 19.6803 21.5908 17.6645 21.4635C16.3842 21.3823 15.1028 21.3108 13.8234 21.2135C13.0508 21.1544 12.6877 20.7656 12.7369 20.1156C12.7844 19.4889 13.1691 19.2046 13.9518 19.2459C15.6225 19.3339 17.2921 19.4404 18.9628 19.5222C19.2166 19.5643 19.4764 19.4972 19.6774 19.3378C19.8783 19.1783 20.0013 18.9417 20.0158 18.6868C20.049 18.1212 19.6933 17.734 19.04 17.6888C16.2116 17.491 13.3822 17.3119 10.5539 17.117C9.72003 17.0596 9.28681 16.6292 9.31906 15.9316C9.35131 15.2341 9.81545 14.8519 10.6822 14.903C13.7769 15.0864 16.8702 15.2931 19.9639 15.489C23.4611 15.7107 26.9585 15.9318 30.4562 16.1523C31.7571 16.2354 33.0574 16.3291 34.3578 16.4214C34.7295 16.4478 35.1407 16.4808 35.2937 16.8699C35.4493 17.2674 35.2102 17.5955 34.9499 17.9052C33.6988 19.3976 32.3975 20.8461 31.1061 22.3038C29.6579 23.9387 27.7784 24.7081 25.7393 25.2308C25.6231 25.2682 25.5028 25.2917 25.3809 25.3011C24.9155 25.308 24.7539 25.497 24.8247 25.9805C24.9111 26.5712 24.5827 27.0306 24.1544 27.4059C23.8112 27.7493 23.2761 27.8162 22.8578 27.5678C22.3644 27.3004 22.4139 26.832 22.494 26.3934C22.5755 26.1241 22.6843 25.8638 22.8189 25.6164Z" fill="#5200C6"/>
<path d="M6.98501 18.8079C7.94975 18.8706 8.91518 18.9235 9.87889 18.9994C10.1562 18.999 10.4209 19.1205 10.6088 19.3343C10.7968 19.5481 10.8906 19.8346 10.8677 20.1244C10.8831 20.4069 10.7758 20.6816 10.5757 20.8716C10.3756 21.0616 10.1043 21.1465 9.83769 21.1025C8.59932 21.0582 7.36164 20.979 6.12532 20.8894C5.61836 20.9071 5.17351 20.5379 5.07372 20.0164C5.00482 19.735 5.05888 19.4361 5.22123 19.2006C5.38358 18.9652 5.6374 18.8178 5.91384 18.7982C6.26849 18.768 6.62761 18.7928 6.98467 18.7928L6.98501 18.8079Z" fill="#5200C6"/>
<path d="M10.9651 24.9755C10.5017 24.9475 10.038 24.9217 9.57487 24.8909C9.0036 24.8892 8.54125 24.4526 8.54053 23.9141C8.55623 23.6649 8.67957 23.4326 8.88181 23.2714C9.08404 23.1102 9.34751 23.0341 9.61083 23.0609C10.2375 23.079 10.8606 23.1287 11.4849 23.1722C11.7497 23.1687 12.0034 23.272 12.1821 23.4562C12.3608 23.6404 12.4473 23.8878 12.42 24.1361C12.422 24.3745 12.3183 24.603 12.1338 24.7662C11.9494 24.9294 11.701 25.0126 11.4486 24.9957C11.2874 24.9988 11.1261 24.9957 10.9644 24.9957L10.9651 24.9755Z" fill="#5200C6"/>
<path d="M5.91902 16.8022C5.51688 16.7675 5.11011 16.7579 4.71393 16.692C4.46959 16.6718 4.2441 16.5599 4.08804 16.3815C3.93198 16.2031 3.85841 15.973 3.88384 15.743C3.88576 15.5022 3.99582 15.2734 4.18672 15.1134C4.37762 14.9534 4.63149 14.8772 4.88538 14.9036C5.57182 14.9226 6.25959 14.9557 6.94141 15.0284C7.4121 15.0928 7.76175 15.4726 7.76333 15.921C7.7649 16.3694 7.41792 16.7513 6.94769 16.8187C6.60634 16.8447 6.26346 16.8476 5.92166 16.8275L5.91902 16.8022Z" fill="#5200C6"/>
<path d="M2.12872 20.7207C1.08859 20.6627 0.696119 20.3351 0.783228 19.5939C0.786771 19.4946 0.809766 19.397 0.850907 19.3066C1.26281 18.5961 1.93928 18.7989 2.55228 18.8462C3.05465 18.8521 3.46416 19.251 3.48328 19.7533C3.55905 20.4071 3.04093 20.7718 2.12872 20.7207Z" fill="#5200C6"/>
<path d="M5.44737 22.6684C6.15009 22.6825 6.59351 23.0524 6.59807 23.6305C6.60328 23.9061 6.48187 24.1705 6.2646 24.3569C6.04733 24.5432 5.75504 24.6335 5.46177 24.605C4.75167 24.5984 4.23798 24.1649 4.2689 23.5986C4.30228 22.9857 4.72427 22.654 5.44737 22.6684Z" fill="#5200C6"/>
<path d="M22.2566 9.28958C22.2325 9.28787 22.2086 9.28516 22.1848 9.28136C22.1197 9.27096 22.0579 9.25099 21.9983 9.2261L20.3281 10.4957C20.2462 10.558 20.2274 10.6773 20.2863 10.762L20.5966 11.2092C20.6555 11.2939 20.7696 11.3121 20.8514 11.2499L22.8586 9.72432L22.5957 9.31316L22.2566 9.28958Z" fill="white"/>
<path d="M26.6871 7.40348C26.6242 7.31574 26.5032 7.29642 26.4166 7.36029L25.2196 8.2427C25.1064 8.32609 24.9481 8.30083 24.866 8.18624C24.7843 8.0718 24.8095 7.91142 24.9223 7.82806L26.1133 6.95021C26.2033 6.8838 26.2234 6.75604 26.1582 6.66467C26.0926 6.57352 25.9667 6.55342 25.8767 6.61973L24.6861 7.49755C24.5728 7.58104 24.4148 7.55581 24.3327 7.44112C24.2507 7.32668 24.2759 7.16619 24.3889 7.08295L25.5857 6.20061C25.6726 6.13666 25.6919 6.01369 25.6289 5.9257C25.566 5.83783 25.4448 5.81848 25.3579 5.88244L24.0114 6.87516C23.6877 7.114 23.537 7.49774 23.5705 7.87417L24.2249 8.78824C24.5674 8.93657 24.9738 8.9097 25.2972 8.67104L26.6439 7.67842C26.7308 7.61447 26.7501 7.49137 26.6871 7.40348Z" fill="white"/>
<path d="M21.4385 5.19812C21.4072 5.1529 21.3599 5.1233 21.3079 5.11499C21.2969 5.11323 21.2856 5.11244 21.2744 5.11261C21.2094 5.11372 21.1484 5.1476 21.111 5.2037C20.682 5.84571 20.6854 6.69643 21.1196 7.32377L21.8963 8.44591C21.9729 8.55675 22.0885 8.6298 22.2172 8.65034C22.2309 8.65253 22.2448 8.65413 22.2587 8.65514L22.8061 8.69306L24.7419 11.7286C24.772 11.7758 24.8194 11.808 24.8732 11.8177C24.8743 11.8179 24.8754 11.818 24.8766 11.8182C24.9293 11.8266 24.9832 11.8129 25.0268 11.7799L25.4963 11.4219C25.5397 11.3889 25.5688 11.3394 25.5774 11.2844C25.5861 11.2293 25.5736 11.1731 25.5426 11.1283L21.4385 5.19812Z" fill="white"/>
</svg>
