<svg width="19" height="20" viewBox="0 0 19 20" fill="none" xmlns="http://www.w3.org/2000/svg">
<path fill-rule="evenodd" clip-rule="evenodd" d="M9.65975 3.40361C9.90781 3.40361 10.1087 3.20257 10.1087 2.95468V1.44893C10.1087 1.20087 9.90764 1 9.65975 1C9.41186 1 9.21082 1.20104 9.21082 1.44893V2.95468C9.21082 3.20257 9.41186 3.40361 9.65975 3.40361ZM12.7227 13.8407C12.7227 13.795 12.7159 13.7506 12.7031 13.709L12.2523 11.0962L14.1898 9.2042C14.3121 9.08494 14.3562 8.90639 14.3031 8.74386C14.2501 8.58132 14.1094 8.46309 13.9403 8.43855L11.2602 8.05147L10.0589 5.62452C9.98363 5.47153 9.8274 5.37475 9.65669 5.37475H9.65635C9.48546 5.37492 9.3294 5.47204 9.25393 5.62554L8.05775 8.05505L5.37848 8.44707C5.2093 8.47177 5.06891 8.59035 5.01627 8.75306C4.96362 8.91576 5.00792 9.09397 5.13042 9.21323L7.07112 11.1013L6.61623 13.7707C6.58744 13.939 6.65678 14.1094 6.79529 14.2096C6.87332 14.2665 6.966 14.2951 7.05886 14.2951C7.13041 14.2951 7.20231 14.2777 7.26807 14.2431L9.66367 12.981L12.0617 14.2385C12.1273 14.2731 12.1988 14.2901 12.2702 14.2901C12.2714 14.2898 12.2731 14.2898 12.2738 14.2901C12.5217 14.29 12.7227 14.0889 12.7227 13.8407ZM11.3272 11.0159L11.673 13.0209L9.8717 12.0762C9.74085 12.0077 9.58462 12.0073 9.45377 12.0765L7.65414 13.0248L7.9959 11.0195C8.02078 10.8738 7.97239 10.7249 7.86642 10.6222L6.40855 9.20369L8.42115 8.90912C8.56733 8.88782 8.69375 8.79565 8.759 8.6631L9.65754 6.83791L10.5598 8.66123C10.6253 8.79361 10.7515 8.88527 10.8978 8.90639L12.9111 9.19722L11.4558 10.6181C11.3504 10.7217 11.302 10.8704 11.3272 11.0159ZM9.21082 15.5218C9.21082 15.2739 9.41169 15.0728 9.65975 15.0728C9.90781 15.0728 10.1087 15.2739 10.1087 15.5218V17.0275C10.1087 17.2754 9.90764 17.4764 9.65975 17.4764C9.41186 17.4764 9.21082 17.2754 9.21082 17.0275V15.5218ZM17.8087 10.4891H16.3028C16.0549 10.4891 15.8537 10.6901 15.8537 10.9384C15.8537 11.1863 16.0549 11.3873 16.3028 11.3873H17.8087C18.0568 11.3873 18.2577 11.1863 18.2577 10.9384C18.2577 10.6901 18.057 10.4891 17.8087 10.4891ZM3.01584 10.4895C3.26373 10.4895 3.46477 10.6905 3.46477 10.9384C3.46477 11.1867 3.26373 11.3877 3.01567 11.3877H1.44893C1.20104 11.3877 1 11.1867 1 10.9384C1 10.6905 1.20104 10.4895 1.44893 10.4895H3.01584ZM13.2755 16.1044C13.1002 15.929 12.8161 15.929 12.6406 16.1044C12.4651 16.2797 12.4653 16.5639 12.6406 16.7393L14.7701 18.8686C14.8578 18.9566 14.9726 19 15.0875 19C15.2023 19 15.3173 18.9564 15.4049 18.8686C15.5802 18.6933 15.5802 18.4088 15.4049 18.2337L13.2755 16.1044ZM3.91429 18.2337L6.04377 16.1044C6.21891 15.929 6.50343 15.929 6.67858 16.1044C6.85389 16.2798 6.85389 16.564 6.67858 16.7393L4.5491 18.8686C4.46153 18.9564 4.34653 19 4.2317 19C4.11686 19 4.00186 18.9566 3.91429 18.8686C3.73898 18.6932 3.73898 18.409 3.91429 18.2337ZM6.04361 5.76702C6.13135 5.85476 6.24618 5.89855 6.36118 5.89855C6.47601 5.89855 6.59101 5.85476 6.67858 5.76719C6.85389 5.59188 6.85389 5.30753 6.67858 5.13221L4.5491 3.00257C4.37379 2.82725 4.08927 2.82725 3.91413 3.00257C3.73882 3.17788 3.73882 3.46223 3.91413 3.63754L6.04361 5.76702ZM13.2756 5.76703C13.188 5.85477 13.073 5.89855 12.9582 5.89855C12.8433 5.89855 12.7282 5.85477 12.6406 5.76703C12.4653 5.59171 12.4653 5.30736 12.6406 5.13205L14.7701 3.0024C14.9456 2.82709 15.2297 2.82709 15.405 3.0024C15.5804 3.17771 15.5804 3.46206 15.405 3.63738L13.2756 5.76703Z" fill="white"/>
<path d="M12.7031 13.709L12.1118 13.811L12.1183 13.8487L12.1296 13.8853L12.7031 13.709ZM12.2523 11.0962L11.8331 10.6669L11.6074 10.8873L11.661 11.1982L12.2523 11.0962ZM14.1898 9.2042L13.7709 8.77459L13.7706 8.77493L14.1898 9.2042ZM14.3031 8.74386L13.7326 8.92982L13.7328 8.93036L14.3031 8.74386ZM13.9403 8.43855L14.0265 7.84478L14.0261 7.84471L13.9403 8.43855ZM11.2602 8.05147L10.7225 8.31763L10.8624 8.60023L11.1745 8.64531L11.2602 8.05147ZM10.0589 5.62452L9.52061 5.88949L9.5212 5.89069L10.0589 5.62452ZM9.65635 5.37475V4.77475L9.65575 4.77475L9.65635 5.37475ZM9.25393 5.62554L9.79222 5.89057L9.79237 5.89028L9.25393 5.62554ZM8.05775 8.05505L8.14461 8.64872L8.45671 8.60306L8.59604 8.32008L8.05775 8.05505ZM5.37848 8.44707L5.46517 9.04077L5.46534 9.04075L5.37848 8.44707ZM5.01627 8.75306L5.58713 8.93777L5.58713 8.93777L5.01627 8.75306ZM5.13042 9.21323L4.71187 9.64314L4.71203 9.64329L5.13042 9.21323ZM7.07112 11.1013L7.6626 11.2021L7.71558 10.8912L7.48951 10.6712L7.07112 11.1013ZM6.61623 13.7707L7.20764 13.8718L7.2077 13.8715L6.61623 13.7707ZM6.79529 14.2096L7.14883 13.7248L7.14691 13.7234L6.79529 14.2096ZM7.26807 14.2431L7.54735 14.7742L7.54774 14.774L7.26807 14.2431ZM9.66367 12.981L9.94232 12.4496L9.66302 12.3032L9.384 12.4502L9.66367 12.981ZM12.0617 14.2385L12.3415 13.7078L12.3403 13.7072L12.0617 14.2385ZM12.2702 14.2901V14.8901H12.3544L12.4354 14.867L12.2702 14.2901ZM12.2738 14.2901L12.0051 14.8267L12.1321 14.8902L12.2742 14.8901L12.2738 14.2901ZM11.673 13.0209L11.3944 13.5522L12.471 14.1169L12.2643 12.9189L11.673 13.0209ZM11.3272 11.0159L11.9185 10.9139L11.9184 10.9135L11.3272 11.0159ZM9.8717 12.0762L10.1504 11.5448L10.1499 11.5446L9.8717 12.0762ZM9.45377 12.0765L9.73348 12.6073L9.73419 12.6069L9.45377 12.0765ZM7.65414 13.0248L7.06266 12.924L6.85844 14.1223L7.93384 13.5556L7.65414 13.0248ZM7.9959 11.0195L7.40446 10.9185L7.40443 10.9187L7.9959 11.0195ZM7.86642 10.6222L7.448 11.0522L7.44879 11.053L7.86642 10.6222ZM6.40855 9.20369L6.32165 8.61002L5.11894 8.78605L5.99013 9.63372L6.40855 9.20369ZM8.42115 8.90912L8.33465 8.31539L8.33426 8.31544L8.42115 8.90912ZM8.759 8.6631L8.22069 8.3981L8.22069 8.3981L8.759 8.6631ZM9.65754 6.83791L10.1953 6.57179L9.65614 5.48229L9.11924 6.5729L9.65754 6.83791ZM10.5598 8.66123L11.0977 8.3954L11.0976 8.39511L10.5598 8.66123ZM10.8978 8.90639L10.9836 8.31256L10.9836 8.31255L10.8978 8.90639ZM12.9111 9.19722L13.3303 9.62653L14.2002 8.7772L12.9969 8.60338L12.9111 9.19722ZM11.4558 10.6181L11.0367 10.1888L11.0354 10.1901L11.4558 10.6181ZM12.6406 16.1044L13.0646 16.5288L13.0646 16.5288L12.6406 16.1044ZM12.6406 16.7393L12.2161 17.1634L12.2163 17.1636L12.6406 16.7393ZM14.7701 18.8686L15.1947 18.4448L15.1943 18.4444L14.7701 18.8686ZM15.4049 18.8686L14.9806 18.4444L14.9802 18.4448L15.4049 18.8686ZM15.4049 18.2337L14.9806 18.6579L14.9808 18.6581L15.4049 18.2337ZM6.04377 16.1044L6.46802 16.5286L6.46824 16.5284L6.04377 16.1044ZM3.91429 18.2337L3.49005 17.8094L3.49003 17.8094L3.91429 18.2337ZM6.67858 16.1044L6.25411 16.5284L6.25411 16.5284L6.67858 16.1044ZM6.67858 16.7393L7.10282 17.1636L7.10284 17.1636L6.67858 16.7393ZM4.5491 18.8686L4.12485 18.4444L4.12442 18.4448L4.5491 18.8686ZM3.91429 18.8686L4.33938 18.4452L4.33876 18.4446L3.91429 18.8686ZM6.04361 5.76702L5.61934 6.19128L6.04361 5.76702ZM6.67858 5.76719L7.10285 6.19145L7.10285 6.19145L6.67858 5.76719ZM6.67858 5.13221L6.2543 5.55646L6.25432 5.55648L6.67858 5.13221ZM4.5491 3.00257L4.97339 2.57832L4.97337 2.5783L4.5491 3.00257ZM3.91413 3.00257L4.33839 3.42683L4.3386 3.42662L3.91413 3.00257ZM3.91413 3.63754L4.33839 3.21328L4.33839 3.21328L3.91413 3.63754ZM13.2756 5.76703L12.8513 5.34278L12.8509 5.34317L13.2756 5.76703ZM12.6406 5.76703L13.0653 5.34317L13.0649 5.34276L12.6406 5.76703ZM12.6406 5.13205L13.0649 5.55631L13.0649 5.5563L12.6406 5.13205ZM14.7701 3.0024L14.346 2.57793L14.3458 2.57815L14.7701 3.0024ZM15.405 3.0024L15.8293 2.57814V2.57814L15.405 3.0024ZM15.405 3.63738L14.9808 3.21311L14.9808 3.21313L15.405 3.63738ZM9.50868 2.95468C9.50868 2.87135 9.57629 2.80361 9.65975 2.80361V4.00361C10.2393 4.00361 10.7087 3.53379 10.7087 2.95468H9.50868ZM9.50868 1.44893V2.95468H10.7087V1.44893H9.50868ZM9.65975 1.6C9.57642 1.6 9.50868 1.53239 9.50868 1.44893H10.7087C10.7087 0.86935 10.2389 0.4 9.65975 0.4V1.6ZM9.81082 1.44893C9.81082 1.53241 9.74323 1.6 9.65975 1.6V0.4C9.08049 0.4 8.61082 0.869669 8.61082 1.44893H9.81082ZM9.81082 2.95468V1.44893H8.61082V2.95468H9.81082ZM9.65975 2.80361C9.74323 2.80361 9.81082 2.8712 9.81082 2.95468H8.61082C8.61082 3.53394 9.08049 4.00361 9.65975 4.00361V2.80361ZM12.1296 13.8853C12.1247 13.8695 12.1227 13.8545 12.1227 13.8407H13.3227C13.3227 13.7356 13.307 13.6317 13.2766 13.5327L12.1296 13.8853ZM11.661 11.1982L12.1118 13.811L13.2944 13.607L12.8436 10.9942L11.661 11.1982ZM13.7706 8.77493L11.8331 10.6669L12.6715 11.5255L14.609 9.63348L13.7706 8.77493ZM13.7328 8.93036C13.7147 8.87493 13.7298 8.81465 13.7709 8.77459L14.6086 9.63382C14.8944 9.35523 14.9978 8.93786 14.8733 8.55735L13.7328 8.93036ZM13.8542 9.03233C13.7978 9.02415 13.7505 8.9847 13.7326 8.92982L14.8735 8.5579C14.7497 8.17795 14.4209 7.90202 14.0265 7.84478L13.8542 9.03233ZM11.1745 8.64531L13.8546 9.03239L14.0261 7.84471L11.346 7.45763L11.1745 8.64531ZM9.5212 5.89069L10.7225 8.31763L11.798 7.7853L10.5967 5.35835L9.5212 5.89069ZM9.65669 5.97475C9.60005 5.97475 9.54682 5.94274 9.52061 5.88948L10.5973 5.35955C10.4204 5.00031 10.0547 4.77475 9.65669 4.77475V5.97475ZM9.65635 5.97475H9.65669V4.77475H9.65635V5.97475ZM9.79237 5.89028C9.7669 5.94207 9.71428 5.9747 9.65694 5.97475L9.65575 4.77475C9.25665 4.77515 8.89191 5.002 8.71549 5.3608L9.79237 5.89028ZM8.59604 8.32008L9.79222 5.89057L8.71564 5.36051L7.51945 7.79001L8.59604 8.32008ZM5.46534 9.04075L8.14461 8.64872L7.97088 7.46137L5.29161 7.85339L5.46534 9.04075ZM5.58713 8.93777C5.56943 8.99246 5.5221 9.03246 5.46517 9.04077L5.29178 7.85337C4.8965 7.91109 4.56839 8.18825 4.44541 8.56835L5.58713 8.93777ZM5.54896 8.78333C5.58977 8.82306 5.60485 8.88299 5.58713 8.93777L4.44541 8.56835C4.32239 8.94854 4.42607 9.36489 4.71187 9.64314L5.54896 8.78333ZM7.48951 10.6712L5.54881 8.78318L4.71203 9.64329L6.65273 11.5314L7.48951 10.6712ZM7.2077 13.8715L7.6626 11.2021L6.47965 11.0005L6.02476 13.6699L7.2077 13.8715ZM7.14691 13.7234C7.19412 13.7575 7.21734 13.8151 7.20764 13.8718L6.02482 13.6695C5.95753 14.0629 6.11944 14.4612 6.44367 14.6957L7.14691 13.7234ZM7.05886 13.6951C7.08887 13.6951 7.12083 13.7044 7.14882 13.7248L6.44176 14.6943C6.62581 14.8286 6.84314 14.8951 7.05886 14.8951V13.6951ZM6.9888 13.7121C7.00933 13.7013 7.0333 13.6951 7.05886 13.6951V14.8951C7.22752 14.8951 7.39529 14.8541 7.54735 14.7742L6.9888 13.7121ZM9.384 12.4502L6.9884 13.7123L7.54774 14.774L9.94334 13.5118L9.384 12.4502ZM12.3403 13.7072L9.94232 12.4496L9.38502 13.5124L11.783 14.7699L12.3403 13.7072ZM12.2702 13.6901C12.2945 13.6901 12.3192 13.696 12.3415 13.7078L11.7818 14.7693C11.9353 14.8502 12.1031 14.8901 12.2702 14.8901V13.6901ZM12.5424 13.7536C12.411 13.6878 12.2917 13.6899 12.2722 13.6899C12.2274 13.6899 12.1696 13.6948 12.105 13.7133L12.4354 14.867C12.372 14.8851 12.3156 14.8899 12.2722 14.8899C12.2484 14.8899 12.2171 14.8885 12.1808 14.8828C12.1519 14.8783 12.0835 14.8659 12.0051 14.8267L12.5424 13.7536ZM12.1227 13.8407C12.1227 13.7578 12.19 13.6902 12.2734 13.6901L12.2742 14.8901C12.8533 14.8897 13.3227 14.4201 13.3227 13.8407H12.1227ZM12.2643 12.9189L11.9185 10.9139L10.7359 11.1179L11.0818 13.1229L12.2643 12.9189ZM9.59303 12.6075L11.3944 13.5522L11.9517 12.4895L10.1504 11.5448L9.59303 12.6075ZM9.73419 12.6069C9.68874 12.631 9.63602 12.63 9.59344 12.6077L10.1499 11.5446C9.84569 11.3853 9.48051 11.3837 9.17336 11.5461L9.73419 12.6069ZM7.93384 13.5556L9.73348 12.6073L9.17407 11.5457L7.37443 12.494L7.93384 13.5556ZM7.40443 10.9187L7.06266 12.924L8.24561 13.1256L8.58737 11.1203L7.40443 10.9187ZM7.44879 11.053C7.41197 11.0173 7.39619 10.967 7.40446 10.9185L8.58734 11.1205C8.64536 10.7807 8.53281 10.4326 8.28405 10.1914L7.44879 11.053ZM5.99013 9.63372L7.448 11.0522L8.28484 10.1922L6.82697 8.77366L5.99013 9.63372ZM8.33426 8.31544L6.32165 8.61002L6.49544 9.79737L8.50804 9.50279L8.33426 8.31544ZM8.22069 8.3981C8.2425 8.35381 8.28479 8.32265 8.33465 8.31539L8.50765 9.50285C8.84987 9.45299 9.14499 9.2375 9.29731 8.9281L8.22069 8.3981ZM9.11924 6.5729L8.22069 8.3981L9.2973 8.92811L10.1958 7.10291L9.11924 6.5729ZM11.0976 8.39511L10.1953 6.57179L9.11978 7.10402L10.0221 8.92734L11.0976 8.39511ZM10.9836 8.31255C11.0328 8.31966 11.0756 8.35071 11.0977 8.3954L10.0219 8.92706C10.1749 9.2365 10.4702 9.45088 10.8121 9.50024L10.9836 8.31255ZM12.9969 8.60338L10.9836 8.31256L10.8121 9.50023L12.8254 9.79105L12.9969 8.60338ZM11.875 11.0474L13.3303 9.62653L12.492 8.76791L11.0367 10.1888L11.875 11.0474ZM11.9184 10.9135C11.9271 10.9638 11.9102 11.0128 11.8763 11.0462L11.0354 10.1901C10.7905 10.4306 10.6769 10.7771 10.736 11.1184L11.9184 10.9135ZM9.65975 14.4728C9.08017 14.4728 8.61082 14.9426 8.61082 15.5218H9.81082C9.81082 15.6051 9.74321 15.6728 9.65975 15.6728V14.4728ZM10.7087 15.5218C10.7087 14.9426 10.2393 14.4728 9.65975 14.4728V15.6728C9.57629 15.6728 9.50868 15.6051 9.50868 15.5218H10.7087ZM10.7087 17.0275V15.5218H9.50868V17.0275H10.7087ZM9.65975 18.0764C10.239 18.0764 10.7087 17.6068 10.7087 17.0275H9.50868C9.50868 16.944 9.57627 16.8764 9.65975 16.8764V18.0764ZM8.61082 17.0275C8.61082 17.6068 9.08049 18.0764 9.65975 18.0764V16.8764C9.74323 16.8764 9.81082 16.944 9.81082 17.0275H8.61082ZM8.61082 15.5218V17.0275H9.81082V15.5218H8.61082ZM16.3028 11.0891H17.8087V9.88911H16.3028V11.0891ZM16.4537 10.9384C16.4537 11.0215 16.3863 11.0891 16.3028 11.0891V9.88911C15.7236 9.88911 15.2537 10.3588 15.2537 10.9384H16.4537ZM16.3028 10.7873C16.386 10.7873 16.4537 10.8546 16.4537 10.9384H15.2537C15.2537 11.5179 15.7239 11.9873 16.3028 11.9873V10.7873ZM17.8087 10.7873H16.3028V11.9873H17.8087V10.7873ZM17.6577 10.9384C17.6577 10.855 17.7253 10.7873 17.8087 10.7873V11.9873C18.3883 11.9873 18.8577 11.5175 18.8577 10.9384H17.6577ZM17.8087 11.0891C17.725 11.0891 17.6577 11.0209 17.6577 10.9384H18.8577C18.8577 10.3594 18.3889 9.88911 17.8087 9.88911V11.0891ZM4.06477 10.9384C4.06477 10.3592 3.5951 9.88949 3.01584 9.88949V11.0895C2.93236 11.0895 2.86477 11.0219 2.86477 10.9384H4.06477ZM3.01567 11.9877C3.59525 11.9877 4.06477 11.5179 4.06477 10.9384H2.86477C2.86477 10.8554 2.93221 10.7877 3.01567 10.7877V11.9877ZM1.44893 11.9877H3.01567V10.7877H1.44893V11.9877ZM0.4 10.9384C0.4 11.5177 0.869371 11.9877 1.44893 11.9877V10.7877C1.53271 10.7877 1.6 10.8556 1.6 10.9384H0.4ZM1.44893 9.88949C0.869668 9.88949 0.4 10.3592 0.4 10.9384H1.6C1.6 11.0219 1.53241 11.0895 1.44893 11.0895V9.88949ZM3.01584 9.88949H1.44893V11.0895H3.01584V9.88949ZM13.0646 16.5288C13.006 16.5874 12.9104 16.5877 12.8513 16.5286L13.6998 15.6801C13.2901 15.2704 12.6262 15.2706 12.2165 15.6799L13.0646 16.5288ZM13.065 16.3153C13.1234 16.3737 13.1241 16.4694 13.0646 16.5288L12.2165 15.6799C11.8061 16.0899 11.8071 16.754 12.2161 17.1634L13.065 16.3153ZM15.1943 18.4444L13.0648 16.3151L12.2163 17.1636L14.3458 19.2929L15.1943 18.4444ZM15.0875 18.4C15.1242 18.4 15.1645 18.4145 15.1947 18.4448L14.3454 19.2925C14.551 19.4986 14.8211 19.6 15.0875 19.6V18.4ZM14.9802 18.4448C15.0104 18.4145 15.0506 18.4 15.0875 18.4V19.6C15.354 19.6 15.6242 19.4983 15.8295 19.2925L14.9802 18.4448ZM14.9808 18.6581C14.9214 18.5988 14.9217 18.5033 14.9806 18.4444L15.8291 19.2929C16.2386 18.8834 16.2389 18.2188 15.8289 17.8092L14.9808 18.6581ZM12.8513 16.5286L14.9806 18.6579L15.8291 17.8094L13.6998 15.6801L12.8513 16.5286ZM5.61952 15.6801L3.49005 17.8094L4.33854 18.6579L6.46802 16.5286L5.61952 15.6801ZM7.10305 15.6803C6.69354 15.2704 6.0288 15.2704 5.6193 15.6803L6.46824 16.5284C6.40902 16.5877 6.31333 16.5877 6.25411 16.5284L7.10305 15.6803ZM7.10284 17.1636C7.51258 16.7539 7.51229 16.0899 7.10305 15.6803L6.25411 16.5284C6.19549 16.4697 6.1952 16.3742 6.25431 16.3151L7.10284 17.1636ZM4.97335 19.2929L7.10282 17.1636L6.25433 16.3151L4.12485 18.4444L4.97335 19.2929ZM4.2317 19.6C4.49826 19.6 4.76839 19.4983 4.97378 19.2925L4.12442 18.4448C4.15466 18.4145 4.19479 18.4 4.2317 18.4V19.6ZM3.48921 19.2921C3.69511 19.4988 3.96566 19.6 4.2317 19.6V18.4C4.26807 18.4 4.30862 18.4143 4.33938 18.4452L3.48921 19.2921ZM3.49003 17.8094C3.08029 18.2191 3.08058 18.8831 3.48982 19.2927L4.33876 18.4446C4.39738 18.5033 4.39767 18.5988 4.33856 18.6579L3.49003 17.8094ZM6.36118 5.29855C6.39874 5.29855 6.43853 5.31342 6.46787 5.34276L5.61934 6.19128C5.82416 6.39611 6.09362 6.49855 6.36118 6.49855V5.29855ZM6.25432 5.34293C6.28403 5.31321 6.32374 5.29855 6.36118 5.29855V6.49855C6.62828 6.49855 6.89799 6.39631 7.10285 6.19145L6.25432 5.34293ZM6.25432 5.55648C6.19532 5.49748 6.19532 5.40193 6.25432 5.34293L7.10285 6.19145C7.51247 5.78183 7.51247 5.11758 7.10285 4.70795L6.25432 5.55648ZM4.12482 3.42681L6.2543 5.55646L7.10286 4.70797L4.97339 2.57832L4.12482 3.42681ZM4.3386 3.42662C4.27926 3.48601 4.18373 3.48572 4.12484 3.42683L4.97337 2.5783C4.56385 2.16879 3.89928 2.16849 3.48966 2.57851L4.3386 3.42662ZM4.33839 3.21328C4.39739 3.27228 4.39739 3.36783 4.33839 3.42683L3.48986 2.5783C3.08024 2.98793 3.08024 3.65218 3.48986 4.06181L4.33839 3.21328ZM6.46787 5.34276L4.33839 3.21328L3.48986 4.06181L5.61934 6.19128L6.46787 5.34276ZM12.9582 6.49855C13.2253 6.49855 13.4953 6.39625 13.7002 6.19088L12.8509 5.34317C12.8807 5.31328 12.9207 5.29855 12.9582 5.29855V6.49855ZM12.2159 6.19088C12.4211 6.39641 12.6912 6.49855 12.9582 6.49855V5.29855C12.9954 5.29855 13.0353 5.31312 13.0653 5.34317L12.2159 6.19088ZM12.2163 4.70778C11.8067 5.11741 11.8067 5.78166 12.2163 6.19129L13.0649 5.34276C13.1239 5.40176 13.1239 5.49731 13.0649 5.55631L12.2163 4.70778ZM14.3458 2.57815L12.2163 4.7078L13.0649 5.5563L15.1944 3.42665L14.3458 2.57815ZM15.8293 2.57814C15.4196 2.1684 14.7556 2.16869 14.346 2.57793L15.1941 3.42687C15.1355 3.48548 15.0399 3.48578 14.9808 3.42666L15.8293 2.57814ZM15.8293 4.06164C16.2389 3.65201 16.2389 2.98776 15.8293 2.57814L14.9808 3.42666C14.9218 3.36766 14.9218 3.27211 14.9808 3.21311L15.8293 4.06164ZM13.6998 6.19127L15.8293 4.06162L14.9808 3.21313L12.8513 5.34278L13.6998 6.19127Z" fill="white"/>
</svg>
