<svg width="17" height="18" viewBox="0 0 17 18" fill="none" xmlns="http://www.w3.org/2000/svg">
<path fill-rule="evenodd" clip-rule="evenodd" d="M12.1188 1.307C12.2882 0.78134 11.9994 0.217877 11.4738 0.0484737C10.9481 -0.12093 10.3846 0.167875 10.2152 0.693537C9.69785 2.29895 9.40281 3.39988 9.26127 3.9281C8.97331 5.00279 9.02814 6.10014 9.39606 7.01675C9.64271 7.63124 10.0448 8.19061 10.5951 8.57637L8.65913 15.8017C8.51618 16.3351 8.83277 16.8835 9.36623 17.0264C9.8997 17.1694 10.448 16.8528 10.591 16.3193L12.5271 9.09366C13.1962 9.03457 13.8237 8.75126 14.3443 8.34263C15.1212 7.73277 15.7174 6.80986 16.0053 5.73517C16.1773 5.0933 16.4419 4.10549 16.7965 2.45698C16.9126 1.91704 16.569 1.3852 16.0291 1.26907C15.4892 1.15295 14.9573 1.49652 14.8412 2.03646C14.4968 3.63759 14.2418 4.58945 14.0739 5.2158L14.0735 5.21753C13.8947 5.88486 13.5459 6.40532 13.1611 6.72746L14.3518 2.2837C14.4948 1.75023 14.1782 1.2019 13.6447 1.05896C13.1112 0.916014 12.5629 1.2326 12.42 1.76606L11.2289 6.21118C11.0562 5.73962 11.0141 5.11384 11.1931 4.44574L11.1934 4.4448C11.3313 3.93014 11.6165 2.8658 12.1188 1.307ZM2.1249 5.01948C1.92327 4.267 1.98065 3.56131 2.18995 3.03989C2.3991 2.51882 2.72717 2.24 3.06093 2.15057C3.39469 2.06114 3.81822 2.13857 4.25989 2.48525C4.70185 2.83217 5.10439 3.41462 5.30602 4.1671C5.50765 4.91959 5.45026 5.62527 5.24097 6.1467C5.03182 6.66776 4.70374 6.94659 4.36998 7.03602C4.03623 7.12545 3.61269 7.04802 3.17103 6.70133C2.72907 6.35442 2.32652 5.77197 2.1249 5.01948ZM2.54329 0.218715C1.46514 0.507605 0.719434 1.33434 0.333883 2.29489C-0.0515255 3.25508 -0.109755 4.40706 0.193044 5.53712C0.495843 6.66718 1.12226 7.63571 1.93613 8.27456C2.51724 8.7307 3.22316 9.03607 3.97172 9.06847L5.91258 16.3119C6.05552 16.8453 6.60386 17.1619 7.13732 17.019C7.67079 16.876 7.98737 16.3277 7.84443 15.7942L5.88745 8.49067C6.4393 8.09 6.84507 7.51942 7.09703 6.8917C7.48244 5.93151 7.54067 4.77952 7.23787 3.64946C6.93507 2.5194 6.30865 1.55087 5.49478 0.912026C4.68061 0.272944 3.62145 -0.0701749 2.54329 0.218715Z" fill="white"/>
</svg>
