<svg width="16" height="19" viewBox="0 0 16 19" fill="none" xmlns="http://www.w3.org/2000/svg">
<path d="M15.2657 5.36821C15.2483 4.91707 15.2483 4.48329 15.2483 4.06685C15.2483 3.73718 14.9881 3.47691 14.6584 3.47691C12.1077 3.45956 10.1644 2.7308 8.55072 1.16918C8.32515 0.943608 7.94342 0.943608 7.71785 1.16918C6.10418 2.7308 4.16082 3.45956 1.62752 3.45956C1.29785 3.45956 1.03758 3.71983 1.03758 4.0495C1.03758 4.46594 1.03758 4.89972 1.02023 5.36821C0.93347 9.65399 0.812011 15.5014 7.94342 17.9653C8.01283 17.9826 8.06488 18 8.13429 18C8.20369 18 8.2731 17.9826 8.32515 17.9653C15.4566 15.5014 15.3351 9.65399 15.2657 5.36821ZM8.13429 16.7681C2.02661 14.5471 2.11336 9.6887 2.20012 5.40291C2.20012 5.14264 2.21747 4.89972 2.21747 4.6568C4.59461 4.53534 6.50326 3.82393 8.13429 2.40112C9.76532 3.82393 11.674 4.55269 14.0511 4.63945C14.0511 4.88237 14.0511 5.12529 14.0685 5.38556C14.1552 9.6887 14.242 14.5471 8.13429 16.7681Z" fill="white" stroke="white" stroke-width="0.7"/>
<path d="M10.1817 7.43344L7.31872 10.2964L6.08678 9.06447C5.86121 8.8389 5.47948 8.8389 5.23656 9.06447C5.01099 9.29004 5.01099 9.67177 5.23656 9.91469L6.88494 11.5631C7.0064 11.6845 7.14521 11.7366 7.30137 11.7366C7.45753 11.7366 7.6137 11.6845 7.7178 11.5631L11.0146 8.26631C11.2401 8.04074 11.2401 7.65901 11.0146 7.41609C10.789 7.19052 10.4073 7.19052 10.1817 7.43344Z" fill="white" stroke="white" stroke-width="0.7"/>
</svg>
