<svg width="27" height="22" viewBox="0 0 27 22" fill="none" xmlns="http://www.w3.org/2000/svg">
<path d="M25.0719 4.42772C25.0662 4.45408 25.0152 4.66784 24.5658 5.03518C24.0843 5.42878 23.3066 5.85764 22.2227 6.25234C20.0667 7.03746 16.9261 7.60546 13.1609 7.60546C9.39611 7.60546 6.25572 7.03746 4.09984 6.25235C3.01601 5.85764 2.23837 5.42878 1.75685 5.03519C1.30748 4.66789 1.25648 4.45414 1.25072 4.42773C1.25648 4.40131 1.30748 4.18757 1.75685 3.82026C2.23837 3.42667 3.01601 2.99781 4.09984 2.60311C6.25572 1.81799 9.39611 1.25 13.1609 1.25C16.9261 1.25 20.0668 1.81793 22.2227 2.60301C23.3066 2.9977 24.0843 3.42654 24.5658 3.82013C25.0152 4.18751 25.0662 4.4013 25.0719 4.42772Z" stroke="#2E2F37" stroke-width="2.5"/>
<mask id="path-2-inside-1" fill="white">
<path d="M12.4553 10.3392C11.9476 10.3393 11.5361 10.7509 11.5361 11.2585C11.5361 11.2585 11.5361 11.2585 11.5361 11.2585C11.5361 11.2585 11.5361 14.5438 11.5361 16.5261C9.44169 16.8716 7.86279 17.9099 7.86279 19.1122C7.86279 20.5848 10.2206 21.8279 13.0108 21.8279C15.8017 21.8279 18.1603 20.5848 18.1603 19.1122C18.1603 17.9099 16.5796 16.8713 14.4855 16.5261V11.2585C14.4855 10.7506 14.0737 10.3389 13.5658 10.339L12.4553 10.3392Z"/>
</mask>
<path d="M11.5361 16.5261L11.943 18.9928L14.0361 18.6475V16.5261H11.5361ZM14.4855 16.5261H11.9855V18.6478L14.0789 18.9929L14.4855 16.5261ZM11.5361 11.2585C9.03611 11.2585 9.03611 11.2585 9.03611 11.2586C9.03611 11.2586 9.03611 11.2586 9.03611 11.2587C9.03611 11.2587 9.03611 11.2588 9.03611 11.2589C9.03611 11.2589 9.03611 11.259 9.03611 11.2591C9.03611 11.2592 9.03611 11.2593 9.03611 11.2595C9.03611 11.2596 9.03611 11.2597 9.03611 11.2599C9.03611 11.26 9.03611 11.2602 9.03611 11.2604C9.03611 11.2605 9.03611 11.2607 9.03611 11.2609C9.03611 11.2611 9.03611 11.2613 9.03611 11.2616C9.03611 11.2618 9.03611 11.262 9.03611 11.2623C9.03611 11.2625 9.03611 11.2628 9.03611 11.263C9.03611 11.2633 9.03611 11.2636 9.03611 11.2639C9.03611 11.2642 9.03611 11.2645 9.03611 11.2648C9.03611 11.2651 9.03611 11.2655 9.03611 11.2658C9.03611 11.2662 9.03611 11.2665 9.03611 11.2669C9.03611 11.2672 9.03611 11.2676 9.03611 11.268C9.03611 11.2684 9.03611 11.2688 9.03611 11.2692C9.03611 11.2696 9.03611 11.2701 9.03611 11.2705C9.03611 11.271 9.03611 11.2714 9.03611 11.2719C9.03611 11.2723 9.03611 11.2728 9.03611 11.2733C9.03611 11.2738 9.03611 11.2743 9.03611 11.2748C9.03611 11.2753 9.03611 11.2758 9.03611 11.2764C9.03611 11.2769 9.03611 11.2774 9.03611 11.278C9.03611 11.2786 9.03611 11.2791 9.03611 11.2797C9.03611 11.2803 9.03611 11.2809 9.03611 11.2815C9.03611 11.2821 9.03611 11.2827 9.03611 11.2833C9.03611 11.284 9.03611 11.2846 9.03611 11.2853C9.03611 11.2859 9.03611 11.2866 9.03611 11.2873C9.03611 11.2879 9.03611 11.2886 9.03611 11.2893C9.03611 11.29 9.03611 11.2907 9.03611 11.2914C9.03611 11.2922 9.03611 11.2929 9.03611 11.2936C9.03611 11.2944 9.03611 11.2951 9.03611 11.2959C9.03611 11.2967 9.03611 11.2975 9.03611 11.2982C9.03611 11.299 9.03611 11.2998 9.03611 11.3007C9.03611 11.3015 9.03611 11.3023 9.03611 11.3031C9.03611 11.304 9.03611 11.3048 9.03611 11.3057C9.03611 11.3065 9.03611 11.3074 9.03611 11.3083C9.03611 11.3092 9.03611 11.31 9.03611 11.3109C9.03611 11.3118 9.03611 11.3128 9.03611 11.3137C9.03611 11.3146 9.03611 11.3156 9.03611 11.3165C9.03611 11.3174 9.03611 11.3184 9.03611 11.3194C9.03611 11.3203 9.03611 11.3213 9.03611 11.3223C9.03611 11.3233 9.03611 11.3243 9.03611 11.3253C9.03611 11.3263 9.03611 11.3274 9.03611 11.3284C9.03611 11.3294 9.03611 11.3305 9.03611 11.3316C9.03611 11.3326 9.03611 11.3337 9.03611 11.3348C9.03611 11.3358 9.03611 11.3369 9.03611 11.338C9.03611 11.3391 9.03611 11.3402 9.03611 11.3414C9.03611 11.3425 9.03611 11.3436 9.03611 11.3448C9.03611 11.3459 9.03611 11.3471 9.03611 11.3483C9.03611 11.3494 9.03611 11.3506 9.03611 11.3518C9.03611 11.353 9.03611 11.3542 9.03611 11.3554C9.03611 11.3566 9.03611 11.3578 9.03611 11.3591C9.03611 11.3603 9.03611 11.3615 9.03611 11.3628C9.03611 11.364 9.03611 11.3653 9.03611 11.3666C9.03611 11.3678 9.03611 11.3691 9.03611 11.3704C9.03611 11.3717 9.03611 11.373 9.03611 11.3744C9.03611 11.3757 9.03611 11.377 9.03611 11.3783C9.03611 11.3797 9.03611 11.381 9.03611 11.3824C9.03611 11.3837 9.03611 11.3851 9.03611 11.3865C9.03611 11.3879 9.03611 11.3893 9.03611 11.3907C9.03611 11.3921 9.03611 11.3935 9.03611 11.3949C9.03611 11.3963 9.03611 11.3978 9.03611 11.3992C9.03611 11.4006 9.03611 11.4021 9.03611 11.4036C9.03611 11.405 9.03611 11.4065 9.03611 11.408C9.03611 11.4095 9.03611 11.411 9.03611 11.4125C9.03611 11.414 9.03611 11.4155 9.03611 11.417C9.03611 11.4185 9.03611 11.4201 9.03611 11.4216C9.03611 11.4232 9.03611 11.4247 9.03611 11.4263C9.03611 11.4279 9.03611 11.4294 9.03611 11.431C9.03611 11.4326 9.03611 11.4342 9.03611 11.4358C9.03611 11.4374 9.03611 11.439 9.03611 11.4407C9.03611 11.4423 9.03611 11.4439 9.03611 11.4456C9.03611 11.4472 9.03611 11.4489 9.03611 11.4506C9.03611 11.4522 9.03611 11.4539 9.03611 11.4556C9.03611 11.4573 9.03611 11.459 9.03611 11.4607C9.03611 11.4624 9.03611 11.4641 9.03611 11.4658C9.03611 11.4676 9.03611 11.4693 9.03611 11.471C9.03611 11.4728 9.03611 11.4746 9.03611 11.4763C9.03611 11.4781 9.03611 11.4799 9.03611 11.4816C9.03611 11.4834 9.03611 11.4852 9.03611 11.487C9.03611 11.4888 9.03611 11.4907 9.03611 11.4925C9.03611 11.4943 9.03611 11.4961 9.03611 11.498C9.03611 11.4998 9.03611 11.5017 9.03611 11.5036C9.03611 11.5054 9.03611 11.5073 9.03611 11.5092C9.03611 11.5111 9.03611 11.513 9.03611 11.5149C9.03611 11.5168 9.03611 11.5187 9.03611 11.5206C9.03611 11.5225 9.03611 11.5244 9.03611 11.5264C9.03611 11.5283 9.03611 11.5303 9.03611 11.5322C9.03611 11.5342 9.03611 11.5362 9.03611 11.5381C9.03611 11.5401 9.03611 11.5421 9.03611 11.5441C9.03611 11.5461 9.03611 11.5481 9.03611 11.5501C9.03611 11.5521 9.03611 11.5542 9.03611 11.5562C9.03611 11.5582 9.03611 11.5603 9.03611 11.5623C9.03611 11.5644 9.03611 11.5665 9.03611 11.5685C9.03611 11.5706 9.03611 11.5727 9.03611 11.5748C9.03611 11.5769 9.03611 11.579 9.03611 11.5811C9.03611 11.5832 9.03611 11.5853 9.03611 11.5874C9.03611 11.5896 9.03611 11.5917 9.03611 11.5938C9.03611 11.596 9.03611 11.5981 9.03611 11.6003C9.03611 11.6025 9.03611 11.6047 9.03611 11.6068C9.03611 11.609 9.03611 11.6112 9.03611 11.6134C9.03611 11.6156 9.03611 11.6178 9.03611 11.62C9.03611 11.6223 9.03611 11.6245 9.03611 11.6267C9.03611 11.629 9.03611 11.6312 9.03611 11.6335C9.03611 11.6357 9.03611 11.638 9.03611 11.6403C9.03611 11.6425 9.03611 11.6448 9.03611 11.6471C9.03611 11.6494 9.03611 11.6517 9.03611 11.654C9.03611 11.6563 9.03611 11.6586 9.03611 11.6609C9.03611 11.6633 9.03611 11.6656 9.03611 11.668C9.03611 11.6703 9.03611 11.6726 9.03611 11.675C9.03611 11.6774 9.03611 11.6797 9.03611 11.6821C9.03611 11.6845 9.03611 11.6869 9.03611 11.6893C9.03611 11.6917 9.03611 11.6941 9.03611 11.6965C9.03611 11.6989 9.03611 11.7013 9.03611 11.7038C9.03611 11.7062 9.03611 11.7086 9.03611 11.7111C9.03611 11.7135 9.03611 11.716 9.03611 11.7184C9.03611 11.7209 9.03611 11.7234 9.03611 11.7259C9.03611 11.7283 9.03611 11.7308 9.03611 11.7333C9.03611 11.7358 9.03611 11.7383 9.03611 11.7409C9.03611 11.7434 9.03611 11.7459 9.03611 11.7484C9.03611 11.751 9.03611 11.7535 9.03611 11.756C9.03611 11.7586 9.03611 11.7612 9.03611 11.7637C9.03611 11.7663 9.03611 11.7689 9.03611 11.7714C9.03611 11.774 9.03611 11.7766 9.03611 11.7792C9.03611 11.7818 9.03611 11.7844 9.03611 11.787C9.03611 11.7896 9.03611 11.7923 9.03611 11.7949C9.03611 11.7975 9.03611 11.8002 9.03611 11.8028C9.03611 11.8055 9.03611 11.8081 9.03611 11.8108C9.03611 11.8135 9.03611 11.8161 9.03611 11.8188C9.03611 11.8215 9.03611 11.8242 9.03611 11.8269C9.03611 11.8296 9.03611 11.8323 9.03611 11.835C9.03611 11.8377 9.03611 11.8404 9.03611 11.8432C9.03611 11.8459 9.03611 11.8486 9.03611 11.8514C9.03611 11.8541 9.03611 11.8569 9.03611 11.8596C9.03611 11.8624 9.03611 11.8652 9.03611 11.8679C9.03611 11.8707 9.03611 11.8735 9.03611 11.8763C9.03611 11.8791 9.03611 11.8819 9.03611 11.8847C9.03611 11.8875 9.03611 11.8903 9.03611 11.8931C9.03611 11.896 9.03611 11.8988 9.03611 11.9016C9.03611 11.9045 9.03611 11.9073 9.03611 11.9102C9.03611 11.913 9.03611 11.9159 9.03611 11.9188C9.03611 11.9216 9.03611 11.9245 9.03611 11.9274C9.03611 11.9303 9.03611 11.9332 9.03611 11.9361C9.03611 11.939 9.03611 11.9419 9.03611 11.9448C9.03611 11.9477 9.03611 11.9506 9.03611 11.9536C9.03611 11.9565 9.03611 11.9594 9.03611 11.9624C9.03611 11.9653 9.03611 11.9683 9.03611 11.9712C9.03611 11.9742 9.03611 11.9772 9.03611 11.9801C9.03611 11.9831 9.03611 11.9861 9.03611 11.9891C9.03611 11.9921 9.03611 11.9951 9.03611 11.9981C9.03611 12.0011 9.03611 12.0041 9.03611 12.0071C9.03611 12.0101 9.03611 12.0132 9.03611 12.0162C9.03611 12.0192 9.03611 12.0223 9.03611 12.0253C9.03611 12.0284 9.03611 12.0314 9.03611 12.0345C9.03611 12.0376 9.03611 12.0406 9.03611 12.0437C9.03611 12.0468 9.03611 12.0499 9.03611 12.053C9.03611 12.0561 9.03611 12.0592 9.03611 12.0623C9.03611 12.0654 9.03611 12.0685 9.03611 12.0716C9.03611 12.0747 9.03611 12.0779 9.03611 12.081C9.03611 12.0841 9.03611 12.0873 9.03611 12.0904C9.03611 12.0936 9.03611 12.0967 9.03611 12.0999C9.03611 12.103 9.03611 12.1062 9.03611 12.1094C9.03611 12.1126 9.03611 12.1158 9.03611 12.1189C9.03611 12.1221 9.03611 12.1253 9.03611 12.1285C9.03611 12.1317 9.03611 12.135 9.03611 12.1382C9.03611 12.1414 9.03611 12.1446 9.03611 12.1479C9.03611 12.1511 9.03611 12.1543 9.03611 12.1576C9.03611 12.1608 9.03611 12.1641 9.03611 12.1673C9.03611 12.1706 9.03611 12.1739 9.03611 12.1771C9.03611 12.1804 9.03611 12.1837 9.03611 12.187C9.03611 12.1903 9.03611 12.1935 9.03611 12.1968C9.03611 12.2001 9.03611 12.2035 9.03611 12.2068C9.03611 12.2101 9.03611 12.2134 9.03611 12.2167C9.03611 12.22 9.03611 12.2234 9.03611 12.2267C9.03611 12.2301 9.03611 12.2334 9.03611 12.2368C9.03611 12.2401 9.03611 12.2435 9.03611 12.2468C9.03611 12.2502 9.03611 12.2536 9.03611 12.257C9.03611 12.2603 9.03611 12.2637 9.03611 12.2671C9.03611 12.2705 9.03611 12.2739 9.03611 12.2773C9.03611 12.2807 9.03611 12.2841 9.03611 12.2875C9.03611 12.2909 9.03611 12.2944 9.03611 12.2978C9.03611 12.3012 9.03611 12.3047 9.03611 12.3081C9.03611 12.3115 9.03611 12.315 9.03611 12.3185C9.03611 12.3219 9.03611 12.3254 9.03611 12.3288C9.03611 12.3323 9.03611 12.3358 9.03611 12.3393C9.03611 12.3427 9.03611 12.3462 9.03611 12.3497C9.03611 12.3532 9.03611 12.3567 9.03611 12.3602C9.03611 12.3637 9.03611 12.3672 9.03611 12.3707C9.03611 12.3742 9.03611 12.3778 9.03611 12.3813C9.03611 12.3848 9.03611 12.3884 9.03611 12.3919C9.03611 12.3954 9.03611 12.399 9.03611 12.4025C9.03611 12.4061 9.03611 12.4097 9.03611 12.4132C9.03611 12.4168 9.03611 12.4203 9.03611 12.4239C9.03611 12.4275 9.03611 12.4311 9.03611 12.4347C9.03611 12.4383 9.03611 12.4419 9.03611 12.4455C9.03611 12.4491 9.03611 12.4527 9.03611 12.4563C9.03611 12.4599 9.03611 12.4635 9.03611 12.4671C9.03611 12.4707 9.03611 12.4744 9.03611 12.478C9.03611 12.4816 9.03611 12.4853 9.03611 12.4889C9.03611 12.4926 9.03611 12.4962 9.03611 12.4999C9.03611 12.5035 9.03611 12.5072 9.03611 12.5109C9.03611 12.5145 9.03611 12.5182 9.03611 12.5219C9.03611 12.5256 9.03611 12.5292 9.03611 12.5329C9.03611 12.5366 9.03611 12.5403 9.03611 12.544C9.03611 12.5477 9.03611 12.5514 9.03611 12.5551C9.03611 12.5589 9.03611 12.5626 9.03611 12.5663C9.03611 12.57 9.03611 12.5738 9.03611 12.5775C9.03611 12.5812 9.03611 12.585 9.03611 12.5887C9.03611 12.5925 9.03611 12.5962 9.03611 12.6C9.03611 12.6037 9.03611 12.6075 9.03611 12.6112C9.03611 12.615 9.03611 12.6188 9.03611 12.6226C9.03611 12.6263 9.03611 12.6301 9.03611 12.6339C9.03611 12.6377 9.03611 12.6415 9.03611 12.6453C9.03611 12.6491 9.03611 12.6529 9.03611 12.6567C9.03611 12.6605 9.03611 12.6643 9.03611 12.6681C9.03611 12.672 9.03611 12.6758 9.03611 12.6796C9.03611 12.6834 9.03611 12.6873 9.03611 12.6911C9.03611 12.695 9.03611 12.6988 9.03611 12.7026C9.03611 12.7065 9.03611 12.7104 9.03611 12.7142C9.03611 12.7181 9.03611 12.7219 9.03611 12.7258C9.03611 12.7297 9.03611 12.7336 9.03611 12.7374C9.03611 12.7413 9.03611 12.7452 9.03611 12.7491C9.03611 12.753 9.03611 12.7569 9.03611 12.7608C9.03611 12.7647 9.03611 12.7686 9.03611 12.7725C9.03611 12.7764 9.03611 12.7803 9.03611 12.7842C9.03611 12.7881 9.03611 12.7921 9.03611 12.796C9.03611 12.7999 9.03611 12.8039 9.03611 12.8078C9.03611 12.8117 9.03611 12.8157 9.03611 12.8196C9.03611 12.8236 9.03611 12.8275 9.03611 12.8315C9.03611 12.8354 9.03611 12.8394 9.03611 12.8434C9.03611 12.8473 9.03611 12.8513 9.03611 12.8553C9.03611 12.8592 9.03611 12.8632 9.03611 12.8672C9.03611 12.8712 9.03611 12.8752 9.03611 12.8792C9.03611 12.8832 9.03611 12.8872 9.03611 12.8912C9.03611 12.8952 9.03611 12.8992 9.03611 12.9032C9.03611 12.9072 9.03611 12.9112 9.03611 12.9152C9.03611 12.9193 9.03611 12.9233 9.03611 12.9273C9.03611 12.9313 9.03611 12.9354 9.03611 12.9394C9.03611 12.9434 9.03611 12.9475 9.03611 12.9515C9.03611 12.9556 9.03611 12.9596 9.03611 12.9637C9.03611 12.9677 9.03611 12.9718 9.03611 12.9759C9.03611 12.9799 9.03611 12.984 9.03611 12.9881C9.03611 12.9921 9.03611 12.9962 9.03611 13.0003C9.03611 13.0044 9.03611 13.0085 9.03611 13.0126C9.03611 13.0166 9.03611 13.0207 9.03611 13.0248C9.03611 13.0289 9.03611 13.033 9.03611 13.0371C9.03611 13.0412 9.03611 13.0453 9.03611 13.0495C9.03611 13.0536 9.03611 13.0577 9.03611 13.0618C9.03611 13.0659 9.03611 13.0701 9.03611 13.0742C9.03611 13.0783 9.03611 13.0825 9.03611 13.0866C9.03611 13.0907 9.03611 13.0949 9.03611 13.099C9.03611 13.1032 9.03611 13.1073 9.03611 13.1115C9.03611 13.1156 9.03611 13.1198 9.03611 13.1239C9.03611 13.1281 9.03611 13.1323 9.03611 13.1364C9.03611 13.1406 9.03611 13.1448 9.03611 13.1489C9.03611 13.1531 9.03611 13.1573 9.03611 13.1615C9.03611 13.1657 9.03611 13.1699 9.03611 13.174C9.03611 13.1782 9.03611 13.1824 9.03611 13.1866C9.03611 13.1908 9.03611 13.195 9.03611 13.1992C9.03611 13.2034 9.03611 13.2077 9.03611 13.2119C9.03611 13.2161 9.03611 13.2203 9.03611 13.2245C9.03611 13.2287 9.03611 13.233 9.03611 13.2372C9.03611 13.2414 9.03611 13.2456 9.03611 13.2499C9.03611 13.2541 9.03611 13.2584 9.03611 13.2626C9.03611 13.2668 9.03611 13.2711 9.03611 13.2753C9.03611 13.2796 9.03611 13.2838 9.03611 13.2881C9.03611 13.2923 9.03611 13.2966 9.03611 13.3009C9.03611 13.3051 9.03611 13.3094 9.03611 13.3137C9.03611 13.3179 9.03611 13.3222 9.03611 13.3265C9.03611 13.3308 9.03611 13.335 9.03611 13.3393C9.03611 13.3436 9.03611 13.3479 9.03611 13.3522C9.03611 13.3565 9.03611 13.3607 9.03611 13.365C9.03611 13.3693 9.03611 13.3736 9.03611 13.3779C9.03611 13.3822 9.03611 13.3865 9.03611 13.3909C9.03611 13.3952 9.03611 13.3995 9.03611 13.4038C9.03611 13.4081 9.03611 13.4124 9.03611 13.4167C9.03611 13.4211 9.03611 13.4254 9.03611 13.4297C9.03611 13.434 9.03611 13.4384 9.03611 13.4427C9.03611 13.447 9.03611 13.4514 9.03611 13.4557C9.03611 13.46 9.03611 13.4644 9.03611 13.4687C9.03611 13.4731 9.03611 13.4774 9.03611 13.4818C9.03611 13.4861 9.03611 13.4905 9.03611 13.4948C9.03611 13.4992 9.03611 13.5035 9.03611 13.5079C9.03611 13.5123 9.03611 13.5166 9.03611 13.521C9.03611 13.5253 9.03611 13.5297 9.03611 13.5341C9.03611 13.5385 9.03611 13.5428 9.03611 13.5472C9.03611 13.5516 9.03611 13.556 9.03611 13.5604C9.03611 13.5647 9.03611 13.5691 9.03611 13.5735C9.03611 13.5779 9.03611 13.5823 9.03611 13.5867C9.03611 13.5911 9.03611 13.5955 9.03611 13.5999C9.03611 13.6043 9.03611 13.6087 9.03611 13.6131C9.03611 13.6175 9.03611 13.6219 9.03611 13.6263C9.03611 13.6307 9.03611 13.6351 9.03611 13.6395C9.03611 13.644 9.03611 13.6484 9.03611 13.6528C9.03611 13.6572 9.03611 13.6616 9.03611 13.6661C9.03611 13.6705 9.03611 13.6749 9.03611 13.6793C9.03611 13.6838 9.03611 13.6882 9.03611 13.6926C9.03611 13.6971 9.03611 13.7015 9.03611 13.7059C9.03611 13.7104 9.03611 13.7148 9.03611 13.7193C9.03611 13.7237 9.03611 13.7281 9.03611 13.7326C9.03611 13.737 9.03611 13.7415 9.03611 13.7459C9.03611 13.7504 9.03611 13.7548 9.03611 13.7593C9.03611 13.7638 9.03611 13.7682 9.03611 13.7727C9.03611 13.7771 9.03611 13.7816 9.03611 13.7861C9.03611 13.7905 9.03611 13.795 9.03611 13.7995C9.03611 13.8039 9.03611 13.8084 9.03611 13.8129C9.03611 13.8173 9.03611 13.8218 9.03611 13.8263C9.03611 13.8308 9.03611 13.8353 9.03611 13.8397C9.03611 13.8442 9.03611 13.8487 9.03611 13.8532C9.03611 13.8577 9.03611 13.8622 9.03611 13.8666C9.03611 13.8711 9.03611 13.8756 9.03611 13.8801C9.03611 13.8846 9.03611 13.8891 9.03611 13.8936C9.03611 13.8981 9.03611 13.9026 9.03611 13.9071C9.03611 13.9116 9.03611 13.9161 9.03611 13.9206C9.03611 13.9251 9.03611 13.9296 9.03611 13.9341C9.03611 13.9386 9.03611 13.9431 9.03611 13.9476C9.03611 13.9522 9.03611 13.9567 9.03611 13.9612C9.03611 13.9657 9.03611 13.9702 9.03611 13.9747C9.03611 13.9792 9.03611 13.9838 9.03611 13.9883C9.03611 13.9928 9.03611 13.9973 9.03611 14.0018C9.03611 14.0064 9.03611 14.0109 9.03611 14.0154C9.03611 14.0199 9.03611 14.0245 9.03611 14.029C9.03611 14.0335 9.03611 14.0381 9.03611 14.0426C9.03611 14.0471 9.03611 14.0517 9.03611 14.0562C9.03611 14.0607 9.03611 14.0653 9.03611 14.0698C9.03611 14.0743 9.03611 14.0789 9.03611 14.0834C9.03611 14.088 9.03611 14.0925 9.03611 14.097C9.03611 14.1016 9.03611 14.1061 9.03611 14.1107C9.03611 14.1152 9.03611 14.1198 9.03611 14.1243C9.03611 14.1289 9.03611 14.1334 9.03611 14.138C9.03611 14.1425 9.03611 14.1471 9.03611 14.1516C9.03611 14.1562 9.03611 14.1607 9.03611 14.1653C9.03611 14.1699 9.03611 14.1744 9.03611 14.179C9.03611 14.1835 9.03611 14.1881 9.03611 14.1926C9.03611 14.1972 9.03611 14.2018 9.03611 14.2063C9.03611 14.2109 9.03611 14.2155 9.03611 14.22C9.03611 14.2246 9.03611 14.2291 9.03611 14.2337C9.03611 14.2383 9.03611 14.2428 9.03611 14.2474C9.03611 14.252 9.03611 14.2566 9.03611 14.2611C9.03611 14.2657 9.03611 14.2703 9.03611 14.2748C9.03611 14.2794 9.03611 14.284 9.03611 14.2886C9.03611 14.2931 9.03611 14.2977 9.03611 14.3023C9.03611 14.3069 9.03611 14.3114 9.03611 14.316C9.03611 14.3206 9.03611 14.3252 9.03611 14.3297C9.03611 14.3343 9.03611 14.3389 9.03611 14.3435C9.03611 14.3481 9.03611 14.3526 9.03611 14.3572C9.03611 14.3618 9.03611 14.3664 9.03611 14.371C9.03611 14.3755 9.03611 14.3801 9.03611 14.3847C9.03611 14.3893 9.03611 14.3939 9.03611 14.3985C9.03611 14.4031 9.03611 14.4076 9.03611 14.4122C9.03611 14.4168 9.03611 14.4214 9.03611 14.426C9.03611 14.4306 9.03611 14.4352 9.03611 14.4397C9.03611 14.4443 9.03611 14.4489 9.03611 14.4535C9.03611 14.4581 9.03611 14.4627 9.03611 14.4673C9.03611 14.4719 9.03611 14.4765 9.03611 14.4811C9.03611 14.4856 9.03611 14.4902 9.03611 14.4948C9.03611 14.4994 9.03611 14.504 9.03611 14.5086C9.03611 14.5132 9.03611 14.5178 9.03611 14.5224C9.03611 14.527 9.03611 14.5316 9.03611 14.5362C9.03611 14.5407 9.03611 14.5453 9.03611 14.5499C9.03611 14.5545 9.03611 14.5591 9.03611 14.5637C9.03611 14.5683 9.03611 14.5729 9.03611 14.5775C9.03611 14.5821 9.03611 14.5867 9.03611 14.5913C9.03611 14.5959 9.03611 14.6005 9.03611 14.6051C9.03611 14.6097 9.03611 14.6143 9.03611 14.6188C9.03611 14.6234 9.03611 14.628 9.03611 14.6326C9.03611 14.6372 9.03611 14.6418 9.03611 14.6464C9.03611 14.651 9.03611 14.6556 9.03611 14.6602C9.03611 14.6648 9.03611 14.6694 9.03611 14.674C9.03611 14.6786 9.03611 14.6832 9.03611 14.6878C9.03611 14.6924 9.03611 14.6969 9.03611 14.7015C9.03611 14.7061 9.03611 14.7107 9.03611 14.7153C9.03611 14.7199 9.03611 14.7245 9.03611 14.7291C9.03611 14.7337 9.03611 14.7383 9.03611 14.7429C9.03611 14.7475 9.03611 14.7521 9.03611 14.7566C9.03611 14.7612 9.03611 14.7658 9.03611 14.7704C9.03611 14.775 9.03611 14.7796 9.03611 14.7842C9.03611 14.7888 9.03611 14.7934 9.03611 14.798C9.03611 14.8026 9.03611 14.8071 9.03611 14.8117C9.03611 14.8163 9.03611 14.8209 9.03611 14.8255C9.03611 14.8301 9.03611 14.8347 9.03611 14.8393C9.03611 14.8438 9.03611 14.8484 9.03611 14.853C9.03611 14.8576 9.03611 14.8622 9.03611 14.8668C9.03611 14.8713 9.03611 14.8759 9.03611 14.8805C9.03611 14.8851 9.03611 14.8897 9.03611 14.8943C9.03611 14.8988 9.03611 14.9034 9.03611 14.908C9.03611 14.9126 9.03611 14.9172 9.03611 14.9217C9.03611 14.9263 9.03611 14.9309 9.03611 14.9355C9.03611 14.9401 9.03611 14.9446 9.03611 14.9492C9.03611 14.9538 9.03611 14.9584 9.03611 14.9629C9.03611 14.9675 9.03611 14.9721 9.03611 14.9767C9.03611 14.9812 9.03611 14.9858 9.03611 14.9904C9.03611 14.9949 9.03611 14.9995 9.03611 15.0041C9.03611 15.0086 9.03611 15.0132 9.03611 15.0178C9.03611 15.0223 9.03611 15.0269 9.03611 15.0315C9.03611 15.036 9.03611 15.0406 9.03611 15.0452C9.03611 15.0497 9.03611 15.0543 9.03611 15.0589C9.03611 15.0634 9.03611 15.068 9.03611 15.0725C9.03611 15.0771 9.03611 15.0816 9.03611 15.0862C9.03611 15.0908 9.03611 15.0953 9.03611 15.0999C9.03611 15.1044 9.03611 15.109 9.03611 15.1135C9.03611 15.1181 9.03611 15.1226 9.03611 15.1272C9.03611 15.1317 9.03611 15.1363 9.03611 15.1408C9.03611 15.1454 9.03611 15.1499 9.03611 15.1545C9.03611 15.159 9.03611 15.1635 9.03611 15.1681C9.03611 15.1726 9.03611 15.1772 9.03611 15.1817C9.03611 15.1862 9.03611 15.1908 9.03611 15.1953C9.03611 15.1999 9.03611 15.2044 9.03611 15.2089C9.03611 15.2135 9.03611 15.218 9.03611 15.2225C9.03611 15.227 9.03611 15.2316 9.03611 15.2361C9.03611 15.2406 9.03611 15.2452 9.03611 15.2497C9.03611 15.2542 9.03611 15.2587 9.03611 15.2632C9.03611 15.2678 9.03611 15.2723 9.03611 15.2768C9.03611 15.2813 9.03611 15.2858 9.03611 15.2904C9.03611 15.2949 9.03611 15.2994 9.03611 15.3039C9.03611 15.3084 9.03611 15.3129 9.03611 15.3174C9.03611 15.3219 9.03611 15.3264 9.03611 15.3309C9.03611 15.3354 9.03611 15.3399 9.03611 15.3444C9.03611 15.3489 9.03611 15.3534 9.03611 15.3579C9.03611 15.3624 9.03611 15.3669 9.03611 15.3714C9.03611 15.3759 9.03611 15.3804 9.03611 15.3849C9.03611 15.3894 9.03611 15.3939 9.03611 15.3984C9.03611 15.4028 9.03611 15.4073 9.03611 15.4118C9.03611 15.4163 9.03611 15.4208 9.03611 15.4253C9.03611 15.4297 9.03611 15.4342 9.03611 15.4387C9.03611 15.4432 9.03611 15.4476 9.03611 15.4521C9.03611 15.4566 9.03611 15.461 9.03611 15.4655C9.03611 15.47 9.03611 15.4744 9.03611 15.4789C9.03611 15.4834 9.03611 15.4878 9.03611 15.4923C9.03611 15.4967 9.03611 15.5012 9.03611 15.5056C9.03611 15.5101 9.03611 15.5145 9.03611 15.519C9.03611 15.5234 9.03611 15.5279 9.03611 15.5323C9.03611 15.5368 9.03611 15.5412 9.03611 15.5456C9.03611 15.5501 9.03611 15.5545 9.03611 15.559C9.03611 15.5634 9.03611 15.5678 9.03611 15.5723C9.03611 15.5767 9.03611 15.5811 9.03611 15.5855C9.03611 15.59 9.03611 15.5944 9.03611 15.5988C9.03611 15.6032 9.03611 15.6076 9.03611 15.6121C9.03611 15.6165 9.03611 15.6209 9.03611 15.6253C9.03611 15.6297 9.03611 15.6341 9.03611 15.6385C9.03611 15.6429 9.03611 15.6473 9.03611 15.6517C9.03611 15.6561 9.03611 15.6605 9.03611 15.6649C9.03611 15.6693 9.03611 15.6737 9.03611 15.6781C9.03611 15.6825 9.03611 15.6869 9.03611 15.6913C9.03611 15.6956 9.03611 15.7 9.03611 15.7044C9.03611 15.7088 9.03611 15.7132 9.03611 15.7175C9.03611 15.7219 9.03611 15.7263 9.03611 15.7306C9.03611 15.735 9.03611 15.7394 9.03611 15.7437C9.03611 15.7481 9.03611 15.7525 9.03611 15.7568C9.03611 15.7612 9.03611 15.7655 9.03611 15.7699C9.03611 15.7742 9.03611 15.7786 9.03611 15.7829C9.03611 15.7873 9.03611 15.7916 9.03611 15.7959C9.03611 15.8003 9.03611 15.8046 9.03611 15.809C9.03611 15.8133 9.03611 15.8176 9.03611 15.8219C9.03611 15.8263 9.03611 15.8306 9.03611 15.8349C9.03611 15.8392 9.03611 15.8436 9.03611 15.8479C9.03611 15.8522 9.03611 15.8565 9.03611 15.8608C9.03611 15.8651 9.03611 15.8694 9.03611 15.8737C9.03611 15.878 9.03611 15.8823 9.03611 15.8866C9.03611 15.8909 9.03611 15.8952 9.03611 15.8995C9.03611 15.9038 9.03611 15.9081 9.03611 15.9124C9.03611 15.9167 9.03611 15.9209 9.03611 15.9252C9.03611 15.9295 9.03611 15.9338 9.03611 15.938C9.03611 15.9423 9.03611 15.9466 9.03611 15.9508C9.03611 15.9551 9.03611 15.9594 9.03611 15.9636C9.03611 15.9679 9.03611 15.9721 9.03611 15.9764C9.03611 15.9806 9.03611 15.9849 9.03611 15.9891C9.03611 15.9934 9.03611 15.9976 9.03611 16.0018C9.03611 16.0061 9.03611 16.0103 9.03611 16.0145C9.03611 16.0188 9.03611 16.023 9.03611 16.0272C9.03611 16.0314 9.03611 16.0356 9.03611 16.0399C9.03611 16.0441 9.03611 16.0483 9.03611 16.0525C9.03611 16.0567 9.03611 16.0609 9.03611 16.0651C9.03611 16.0693 9.03611 16.0735 9.03611 16.0777C9.03611 16.0819 9.03611 16.0861 9.03611 16.0903C9.03611 16.0944 9.03611 16.0986 9.03611 16.1028C9.03611 16.107 9.03611 16.1112 9.03611 16.1153C9.03611 16.1195 9.03611 16.1237 9.03611 16.1278C9.03611 16.132 9.03611 16.1361 9.03611 16.1403C9.03611 16.1445 9.03611 16.1486 9.03611 16.1528C9.03611 16.1569 9.03611 16.161 9.03611 16.1652C9.03611 16.1693 9.03611 16.1735 9.03611 16.1776C9.03611 16.1817 9.03611 16.1858 9.03611 16.19C9.03611 16.1941 9.03611 16.1982 9.03611 16.2023C9.03611 16.2064 9.03611 16.2106 9.03611 16.2147C9.03611 16.2188 9.03611 16.2229 9.03611 16.227C9.03611 16.2311 9.03611 16.2352 9.03611 16.2393C9.03611 16.2433 9.03611 16.2474 9.03611 16.2515C9.03611 16.2556 9.03611 16.2597 9.03611 16.2638C9.03611 16.2678 9.03611 16.2719 9.03611 16.276C9.03611 16.28 9.03611 16.2841 9.03611 16.2881C9.03611 16.2922 9.03611 16.2963 9.03611 16.3003C9.03611 16.3043 9.03611 16.3084 9.03611 16.3124C9.03611 16.3165 9.03611 16.3205 9.03611 16.3245C9.03611 16.3286 9.03611 16.3326 9.03611 16.3366C9.03611 16.3406 9.03611 16.3447 9.03611 16.3487C9.03611 16.3527 9.03611 16.3567 9.03611 16.3607C9.03611 16.3647 9.03611 16.3687 9.03611 16.3727C9.03611 16.3767 9.03611 16.3807 9.03611 16.3847C9.03611 16.3887 9.03611 16.3926 9.03611 16.3966C9.03611 16.4006 9.03611 16.4046 9.03611 16.4085C9.03611 16.4125 9.03611 16.4165 9.03611 16.4204C9.03611 16.4244 9.03611 16.4283 9.03611 16.4323C9.03611 16.4362 9.03611 16.4402 9.03611 16.4441C9.03611 16.4481 9.03611 16.452 9.03611 16.4559C9.03611 16.4599 9.03611 16.4638 9.03611 16.4677C9.03611 16.4716 9.03611 16.4755 9.03611 16.4794C9.03611 16.4834 9.03611 16.4873 9.03611 16.4912C9.03611 16.4951 9.03611 16.499 9.03611 16.5029C9.03611 16.5067 9.03611 16.5106 9.03611 16.5145C9.03611 16.5184 9.03611 16.5223 9.03611 16.5261H14.0361C14.0361 16.5223 14.0361 16.5184 14.0361 16.5145C14.0361 16.5106 14.0361 16.5067 14.0361 16.5029C14.0361 16.499 14.0361 16.4951 14.0361 16.4912C14.0361 16.4873 14.0361 16.4834 14.0361 16.4794C14.0361 16.4755 14.0361 16.4716 14.0361 16.4677C14.0361 16.4638 14.0361 16.4599 14.0361 16.4559C14.0361 16.452 14.0361 16.4481 14.0361 16.4441C14.0361 16.4402 14.0361 16.4362 14.0361 16.4323C14.0361 16.4283 14.0361 16.4244 14.0361 16.4204C14.0361 16.4165 14.0361 16.4125 14.0361 16.4085C14.0361 16.4046 14.0361 16.4006 14.0361 16.3966C14.0361 16.3926 14.0361 16.3887 14.0361 16.3847C14.0361 16.3807 14.0361 16.3767 14.0361 16.3727C14.0361 16.3687 14.0361 16.3647 14.0361 16.3607C14.0361 16.3567 14.0361 16.3527 14.0361 16.3487C14.0361 16.3447 14.0361 16.3406 14.0361 16.3366C14.0361 16.3326 14.0361 16.3286 14.0361 16.3245C14.0361 16.3205 14.0361 16.3165 14.0361 16.3124C14.0361 16.3084 14.0361 16.3043 14.0361 16.3003C14.0361 16.2963 14.0361 16.2922 14.0361 16.2881C14.0361 16.2841 14.0361 16.28 14.0361 16.276C14.0361 16.2719 14.0361 16.2678 14.0361 16.2638C14.0361 16.2597 14.0361 16.2556 14.0361 16.2515C14.0361 16.2474 14.0361 16.2433 14.0361 16.2393C14.0361 16.2352 14.0361 16.2311 14.0361 16.227C14.0361 16.2229 14.0361 16.2188 14.0361 16.2147C14.0361 16.2106 14.0361 16.2064 14.0361 16.2023C14.0361 16.1982 14.0361 16.1941 14.0361 16.19C14.0361 16.1858 14.0361 16.1817 14.0361 16.1776C14.0361 16.1735 14.0361 16.1693 14.0361 16.1652C14.0361 16.161 14.0361 16.1569 14.0361 16.1528C14.0361 16.1486 14.0361 16.1445 14.0361 16.1403C14.0361 16.1361 14.0361 16.132 14.0361 16.1278C14.0361 16.1237 14.0361 16.1195 14.0361 16.1153C14.0361 16.1112 14.0361 16.107 14.0361 16.1028C14.0361 16.0986 14.0361 16.0944 14.0361 16.0903C14.0361 16.0861 14.0361 16.0819 14.0361 16.0777C14.0361 16.0735 14.0361 16.0693 14.0361 16.0651C14.0361 16.0609 14.0361 16.0567 14.0361 16.0525C14.0361 16.0483 14.0361 16.0441 14.0361 16.0399C14.0361 16.0356 14.0361 16.0314 14.0361 16.0272C14.0361 16.023 14.0361 16.0188 14.0361 16.0145C14.0361 16.0103 14.0361 16.0061 14.0361 16.0018C14.0361 15.9976 14.0361 15.9934 14.0361 15.9891C14.0361 15.9849 14.0361 15.9806 14.0361 15.9764C14.0361 15.9721 14.0361 15.9679 14.0361 15.9636C14.0361 15.9594 14.0361 15.9551 14.0361 15.9508C14.0361 15.9466 14.0361 15.9423 14.0361 15.938C14.0361 15.9338 14.0361 15.9295 14.0361 15.9252C14.0361 15.9209 14.0361 15.9167 14.0361 15.9124C14.0361 15.9081 14.0361 15.9038 14.0361 15.8995C14.0361 15.8952 14.0361 15.8909 14.0361 15.8866C14.0361 15.8823 14.0361 15.878 14.0361 15.8737C14.0361 15.8694 14.0361 15.8651 14.0361 15.8608C14.0361 15.8565 14.0361 15.8522 14.0361 15.8479C14.0361 15.8436 14.0361 15.8392 14.0361 15.8349C14.0361 15.8306 14.0361 15.8263 14.0361 15.8219C14.0361 15.8176 14.0361 15.8133 14.0361 15.809C14.0361 15.8046 14.0361 15.8003 14.0361 15.7959C14.0361 15.7916 14.0361 15.7873 14.0361 15.7829C14.0361 15.7786 14.0361 15.7742 14.0361 15.7699C14.0361 15.7655 14.0361 15.7612 14.0361 15.7568C14.0361 15.7525 14.0361 15.7481 14.0361 15.7437C14.0361 15.7394 14.0361 15.735 14.0361 15.7306C14.0361 15.7263 14.0361 15.7219 14.0361 15.7175C14.0361 15.7132 14.0361 15.7088 14.0361 15.7044C14.0361 15.7 14.0361 15.6956 14.0361 15.6913C14.0361 15.6869 14.0361 15.6825 14.0361 15.6781C14.0361 15.6737 14.0361 15.6693 14.0361 15.6649C14.0361 15.6605 14.0361 15.6561 14.0361 15.6517C14.0361 15.6473 14.0361 15.6429 14.0361 15.6385C14.0361 15.6341 14.0361 15.6297 14.0361 15.6253C14.0361 15.6209 14.0361 15.6165 14.0361 15.6121C14.0361 15.6076 14.0361 15.6032 14.0361 15.5988C14.0361 15.5944 14.0361 15.59 14.0361 15.5855C14.0361 15.5811 14.0361 15.5767 14.0361 15.5723C14.0361 15.5678 14.0361 15.5634 14.0361 15.559C14.0361 15.5545 14.0361 15.5501 14.0361 15.5456C14.0361 15.5412 14.0361 15.5368 14.0361 15.5323C14.0361 15.5279 14.0361 15.5234 14.0361 15.519C14.0361 15.5145 14.0361 15.5101 14.0361 15.5056C14.0361 15.5012 14.0361 15.4967 14.0361 15.4923C14.0361 15.4878 14.0361 15.4834 14.0361 15.4789C14.0361 15.4744 14.0361 15.47 14.0361 15.4655C14.0361 15.461 14.0361 15.4566 14.0361 15.4521C14.0361 15.4476 14.0361 15.4432 14.0361 15.4387C14.0361 15.4342 14.0361 15.4297 14.0361 15.4253C14.0361 15.4208 14.0361 15.4163 14.0361 15.4118C14.0361 15.4073 14.0361 15.4028 14.0361 15.3984C14.0361 15.3939 14.0361 15.3894 14.0361 15.3849C14.0361 15.3804 14.0361 15.3759 14.0361 15.3714C14.0361 15.3669 14.0361 15.3624 14.0361 15.3579C14.0361 15.3534 14.0361 15.3489 14.0361 15.3444C14.0361 15.3399 14.0361 15.3354 14.0361 15.3309C14.0361 15.3264 14.0361 15.3219 14.0361 15.3174C14.0361 15.3129 14.0361 15.3084 14.0361 15.3039C14.0361 15.2994 14.0361 15.2949 14.0361 15.2904C14.0361 15.2858 14.0361 15.2813 14.0361 15.2768C14.0361 15.2723 14.0361 15.2678 14.0361 15.2632C14.0361 15.2587 14.0361 15.2542 14.0361 15.2497C14.0361 15.2452 14.0361 15.2406 14.0361 15.2361C14.0361 15.2316 14.0361 15.227 14.0361 15.2225C14.0361 15.218 14.0361 15.2135 14.0361 15.2089C14.0361 15.2044 14.0361 15.1999 14.0361 15.1953C14.0361 15.1908 14.0361 15.1862 14.0361 15.1817C14.0361 15.1772 14.0361 15.1726 14.0361 15.1681C14.0361 15.1635 14.0361 15.159 14.0361 15.1545C14.0361 15.1499 14.0361 15.1454 14.0361 15.1408C14.0361 15.1363 14.0361 15.1317 14.0361 15.1272C14.0361 15.1226 14.0361 15.1181 14.0361 15.1135C14.0361 15.109 14.0361 15.1044 14.0361 15.0999C14.0361 15.0953 14.0361 15.0908 14.0361 15.0862C14.0361 15.0816 14.0361 15.0771 14.0361 15.0725C14.0361 15.068 14.0361 15.0634 14.0361 15.0589C14.0361 15.0543 14.0361 15.0497 14.0361 15.0452C14.0361 15.0406 14.0361 15.036 14.0361 15.0315C14.0361 15.0269 14.0361 15.0223 14.0361 15.0178C14.0361 15.0132 14.0361 15.0086 14.0361 15.0041C14.0361 14.9995 14.0361 14.9949 14.0361 14.9904C14.0361 14.9858 14.0361 14.9812 14.0361 14.9767C14.0361 14.9721 14.0361 14.9675 14.0361 14.9629C14.0361 14.9584 14.0361 14.9538 14.0361 14.9492C14.0361 14.9446 14.0361 14.9401 14.0361 14.9355C14.0361 14.9309 14.0361 14.9263 14.0361 14.9217C14.0361 14.9172 14.0361 14.9126 14.0361 14.908C14.0361 14.9034 14.0361 14.8988 14.0361 14.8943C14.0361 14.8897 14.0361 14.8851 14.0361 14.8805C14.0361 14.8759 14.0361 14.8713 14.0361 14.8668C14.0361 14.8622 14.0361 14.8576 14.0361 14.853C14.0361 14.8484 14.0361 14.8438 14.0361 14.8393C14.0361 14.8347 14.0361 14.8301 14.0361 14.8255C14.0361 14.8209 14.0361 14.8163 14.0361 14.8117C14.0361 14.8071 14.0361 14.8026 14.0361 14.798C14.0361 14.7934 14.0361 14.7888 14.0361 14.7842C14.0361 14.7796 14.0361 14.775 14.0361 14.7704C14.0361 14.7658 14.0361 14.7612 14.0361 14.7566C14.0361 14.7521 14.0361 14.7475 14.0361 14.7429C14.0361 14.7383 14.0361 14.7337 14.0361 14.7291C14.0361 14.7245 14.0361 14.7199 14.0361 14.7153C14.0361 14.7107 14.0361 14.7061 14.0361 14.7015C14.0361 14.6969 14.0361 14.6924 14.0361 14.6878C14.0361 14.6832 14.0361 14.6786 14.0361 14.674C14.0361 14.6694 14.0361 14.6648 14.0361 14.6602C14.0361 14.6556 14.0361 14.651 14.0361 14.6464C14.0361 14.6418 14.0361 14.6372 14.0361 14.6326C14.0361 14.628 14.0361 14.6234 14.0361 14.6188C14.0361 14.6143 14.0361 14.6097 14.0361 14.6051C14.0361 14.6005 14.0361 14.5959 14.0361 14.5913C14.0361 14.5867 14.0361 14.5821 14.0361 14.5775C14.0361 14.5729 14.0361 14.5683 14.0361 14.5637C14.0361 14.5591 14.0361 14.5545 14.0361 14.5499C14.0361 14.5453 14.0361 14.5407 14.0361 14.5362C14.0361 14.5316 14.0361 14.527 14.0361 14.5224C14.0361 14.5178 14.0361 14.5132 14.0361 14.5086C14.0361 14.504 14.0361 14.4994 14.0361 14.4948C14.0361 14.4902 14.0361 14.4856 14.0361 14.4811C14.0361 14.4765 14.0361 14.4719 14.0361 14.4673C14.0361 14.4627 14.0361 14.4581 14.0361 14.4535C14.0361 14.4489 14.0361 14.4443 14.0361 14.4397C14.0361 14.4352 14.0361 14.4306 14.0361 14.426C14.0361 14.4214 14.0361 14.4168 14.0361 14.4122C14.0361 14.4076 14.0361 14.4031 14.0361 14.3985C14.0361 14.3939 14.0361 14.3893 14.0361 14.3847C14.0361 14.3801 14.0361 14.3755 14.0361 14.371C14.0361 14.3664 14.0361 14.3618 14.0361 14.3572C14.0361 14.3526 14.0361 14.3481 14.0361 14.3435C14.0361 14.3389 14.0361 14.3343 14.0361 14.3297C14.0361 14.3252 14.0361 14.3206 14.0361 14.316C14.0361 14.3114 14.0361 14.3069 14.0361 14.3023C14.0361 14.2977 14.0361 14.2931 14.0361 14.2886C14.0361 14.284 14.0361 14.2794 14.0361 14.2748C14.0361 14.2703 14.0361 14.2657 14.0361 14.2611C14.0361 14.2566 14.0361 14.252 14.0361 14.2474C14.0361 14.2428 14.0361 14.2383 14.0361 14.2337C14.0361 14.2291 14.0361 14.2246 14.0361 14.22C14.0361 14.2155 14.0361 14.2109 14.0361 14.2063C14.0361 14.2018 14.0361 14.1972 14.0361 14.1926C14.0361 14.1881 14.0361 14.1835 14.0361 14.179C14.0361 14.1744 14.0361 14.1699 14.0361 14.1653C14.0361 14.1607 14.0361 14.1562 14.0361 14.1516C14.0361 14.1471 14.0361 14.1425 14.0361 14.138C14.0361 14.1334 14.0361 14.1289 14.0361 14.1243C14.0361 14.1198 14.0361 14.1152 14.0361 14.1107C14.0361 14.1061 14.0361 14.1016 14.0361 14.097C14.0361 14.0925 14.0361 14.088 14.0361 14.0834C14.0361 14.0789 14.0361 14.0743 14.0361 14.0698C14.0361 14.0653 14.0361 14.0607 14.0361 14.0562C14.0361 14.0517 14.0361 14.0471 14.0361 14.0426C14.0361 14.0381 14.0361 14.0335 14.0361 14.029C14.0361 14.0245 14.0361 14.0199 14.0361 14.0154C14.0361 14.0109 14.0361 14.0064 14.0361 14.0018C14.0361 13.9973 14.0361 13.9928 14.0361 13.9883C14.0361 13.9838 14.0361 13.9792 14.0361 13.9747C14.0361 13.9702 14.0361 13.9657 14.0361 13.9612C14.0361 13.9567 14.0361 13.9522 14.0361 13.9476C14.0361 13.9431 14.0361 13.9386 14.0361 13.9341C14.0361 13.9296 14.0361 13.9251 14.0361 13.9206C14.0361 13.9161 14.0361 13.9116 14.0361 13.9071C14.0361 13.9026 14.0361 13.8981 14.0361 13.8936C14.0361 13.8891 14.0361 13.8846 14.0361 13.8801C14.0361 13.8756 14.0361 13.8711 14.0361 13.8666C14.0361 13.8622 14.0361 13.8577 14.0361 13.8532C14.0361 13.8487 14.0361 13.8442 14.0361 13.8397C14.0361 13.8353 14.0361 13.8308 14.0361 13.8263C14.0361 13.8218 14.0361 13.8173 14.0361 13.8129C14.0361 13.8084 14.0361 13.8039 14.0361 13.7995C14.0361 13.795 14.0361 13.7905 14.0361 13.7861C14.0361 13.7816 14.0361 13.7771 14.0361 13.7727C14.0361 13.7682 14.0361 13.7638 14.0361 13.7593C14.0361 13.7548 14.0361 13.7504 14.0361 13.7459C14.0361 13.7415 14.0361 13.737 14.0361 13.7326C14.0361 13.7281 14.0361 13.7237 14.0361 13.7193C14.0361 13.7148 14.0361 13.7104 14.0361 13.7059C14.0361 13.7015 14.0361 13.6971 14.0361 13.6926C14.0361 13.6882 14.0361 13.6838 14.0361 13.6793C14.0361 13.6749 14.0361 13.6705 14.0361 13.6661C14.0361 13.6616 14.0361 13.6572 14.0361 13.6528C14.0361 13.6484 14.0361 13.644 14.0361 13.6395C14.0361 13.6351 14.0361 13.6307 14.0361 13.6263C14.0361 13.6219 14.0361 13.6175 14.0361 13.6131C14.0361 13.6087 14.0361 13.6043 14.0361 13.5999C14.0361 13.5955 14.0361 13.5911 14.0361 13.5867C14.0361 13.5823 14.0361 13.5779 14.0361 13.5735C14.0361 13.5691 14.0361 13.5647 14.0361 13.5604C14.0361 13.556 14.0361 13.5516 14.0361 13.5472C14.0361 13.5428 14.0361 13.5385 14.0361 13.5341C14.0361 13.5297 14.0361 13.5253 14.0361 13.521C14.0361 13.5166 14.0361 13.5123 14.0361 13.5079C14.0361 13.5035 14.0361 13.4992 14.0361 13.4948C14.0361 13.4905 14.0361 13.4861 14.0361 13.4818C14.0361 13.4774 14.0361 13.4731 14.0361 13.4687C14.0361 13.4644 14.0361 13.46 14.0361 13.4557C14.0361 13.4514 14.0361 13.447 14.0361 13.4427C14.0361 13.4384 14.0361 13.434 14.0361 13.4297C14.0361 13.4254 14.0361 13.4211 14.0361 13.4167C14.0361 13.4124 14.0361 13.4081 14.0361 13.4038C14.0361 13.3995 14.0361 13.3952 14.0361 13.3909C14.0361 13.3865 14.0361 13.3822 14.0361 13.3779C14.0361 13.3736 14.0361 13.3693 14.0361 13.365C14.0361 13.3607 14.0361 13.3565 14.0361 13.3522C14.0361 13.3479 14.0361 13.3436 14.0361 13.3393C14.0361 13.335 14.0361 13.3308 14.0361 13.3265C14.0361 13.3222 14.0361 13.3179 14.0361 13.3137C14.0361 13.3094 14.0361 13.3051 14.0361 13.3009C14.0361 13.2966 14.0361 13.2923 14.0361 13.2881C14.0361 13.2838 14.0361 13.2796 14.0361 13.2753C14.0361 13.2711 14.0361 13.2668 14.0361 13.2626C14.0361 13.2584 14.0361 13.2541 14.0361 13.2499C14.0361 13.2456 14.0361 13.2414 14.0361 13.2372C14.0361 13.233 14.0361 13.2287 14.0361 13.2245C14.0361 13.2203 14.0361 13.2161 14.0361 13.2119C14.0361 13.2077 14.0361 13.2034 14.0361 13.1992C14.0361 13.195 14.0361 13.1908 14.0361 13.1866C14.0361 13.1824 14.0361 13.1782 14.0361 13.174C14.0361 13.1699 14.0361 13.1657 14.0361 13.1615C14.0361 13.1573 14.0361 13.1531 14.0361 13.1489C14.0361 13.1448 14.0361 13.1406 14.0361 13.1364C14.0361 13.1323 14.0361 13.1281 14.0361 13.1239C14.0361 13.1198 14.0361 13.1156 14.0361 13.1115C14.0361 13.1073 14.0361 13.1032 14.0361 13.099C14.0361 13.0949 14.0361 13.0907 14.0361 13.0866C14.0361 13.0825 14.0361 13.0783 14.0361 13.0742C14.0361 13.0701 14.0361 13.0659 14.0361 13.0618C14.0361 13.0577 14.0361 13.0536 14.0361 13.0495C14.0361 13.0453 14.0361 13.0412 14.0361 13.0371C14.0361 13.033 14.0361 13.0289 14.0361 13.0248C14.0361 13.0207 14.0361 13.0166 14.0361 13.0126C14.0361 13.0085 14.0361 13.0044 14.0361 13.0003C14.0361 12.9962 14.0361 12.9921 14.0361 12.9881C14.0361 12.984 14.0361 12.9799 14.0361 12.9759C14.0361 12.9718 14.0361 12.9677 14.0361 12.9637C14.0361 12.9596 14.0361 12.9556 14.0361 12.9515C14.0361 12.9475 14.0361 12.9434 14.0361 12.9394C14.0361 12.9354 14.0361 12.9313 14.0361 12.9273C14.0361 12.9233 14.0361 12.9193 14.0361 12.9152C14.0361 12.9112 14.0361 12.9072 14.0361 12.9032C14.0361 12.8992 14.0361 12.8952 14.0361 12.8912C14.0361 12.8872 14.0361 12.8832 14.0361 12.8792C14.0361 12.8752 14.0361 12.8712 14.0361 12.8672C14.0361 12.8632 14.0361 12.8592 14.0361 12.8553C14.0361 12.8513 14.0361 12.8473 14.0361 12.8434C14.0361 12.8394 14.0361 12.8354 14.0361 12.8315C14.0361 12.8275 14.0361 12.8236 14.0361 12.8196C14.0361 12.8157 14.0361 12.8117 14.0361 12.8078C14.0361 12.8039 14.0361 12.7999 14.0361 12.796C14.0361 12.7921 14.0361 12.7881 14.0361 12.7842C14.0361 12.7803 14.0361 12.7764 14.0361 12.7725C14.0361 12.7686 14.0361 12.7647 14.0361 12.7608C14.0361 12.7569 14.0361 12.753 14.0361 12.7491C14.0361 12.7452 14.0361 12.7413 14.0361 12.7374C14.0361 12.7336 14.0361 12.7297 14.0361 12.7258C14.0361 12.7219 14.0361 12.7181 14.0361 12.7142C14.0361 12.7104 14.0361 12.7065 14.0361 12.7026C14.0361 12.6988 14.0361 12.695 14.0361 12.6911C14.0361 12.6873 14.0361 12.6834 14.0361 12.6796C14.0361 12.6758 14.0361 12.672 14.0361 12.6681C14.0361 12.6643 14.0361 12.6605 14.0361 12.6567C14.0361 12.6529 14.0361 12.6491 14.0361 12.6453C14.0361 12.6415 14.0361 12.6377 14.0361 12.6339C14.0361 12.6301 14.0361 12.6263 14.0361 12.6226C14.0361 12.6188 14.0361 12.615 14.0361 12.6112C14.0361 12.6075 14.0361 12.6037 14.0361 12.6C14.0361 12.5962 14.0361 12.5925 14.0361 12.5887C14.0361 12.585 14.0361 12.5812 14.0361 12.5775C14.0361 12.5738 14.0361 12.57 14.0361 12.5663C14.0361 12.5626 14.0361 12.5589 14.0361 12.5551C14.0361 12.5514 14.0361 12.5477 14.0361 12.544C14.0361 12.5403 14.0361 12.5366 14.0361 12.5329C14.0361 12.5292 14.0361 12.5256 14.0361 12.5219C14.0361 12.5182 14.0361 12.5145 14.0361 12.5109C14.0361 12.5072 14.0361 12.5035 14.0361 12.4999C14.0361 12.4962 14.0361 12.4926 14.0361 12.4889C14.0361 12.4853 14.0361 12.4816 14.0361 12.478C14.0361 12.4744 14.0361 12.4707 14.0361 12.4671C14.0361 12.4635 14.0361 12.4599 14.0361 12.4563C14.0361 12.4527 14.0361 12.4491 14.0361 12.4455C14.0361 12.4419 14.0361 12.4383 14.0361 12.4347C14.0361 12.4311 14.0361 12.4275 14.0361 12.4239C14.0361 12.4203 14.0361 12.4168 14.0361 12.4132C14.0361 12.4097 14.0361 12.4061 14.0361 12.4025C14.0361 12.399 14.0361 12.3954 14.0361 12.3919C14.0361 12.3884 14.0361 12.3848 14.0361 12.3813C14.0361 12.3778 14.0361 12.3742 14.0361 12.3707C14.0361 12.3672 14.0361 12.3637 14.0361 12.3602C14.0361 12.3567 14.0361 12.3532 14.0361 12.3497C14.0361 12.3462 14.0361 12.3427 14.0361 12.3393C14.0361 12.3358 14.0361 12.3323 14.0361 12.3288C14.0361 12.3254 14.0361 12.3219 14.0361 12.3185C14.0361 12.315 14.0361 12.3115 14.0361 12.3081C14.0361 12.3047 14.0361 12.3012 14.0361 12.2978C14.0361 12.2944 14.0361 12.2909 14.0361 12.2875C14.0361 12.2841 14.0361 12.2807 14.0361 12.2773C14.0361 12.2739 14.0361 12.2705 14.0361 12.2671C14.0361 12.2637 14.0361 12.2603 14.0361 12.257C14.0361 12.2536 14.0361 12.2502 14.0361 12.2468C14.0361 12.2435 14.0361 12.2401 14.0361 12.2368C14.0361 12.2334 14.0361 12.2301 14.0361 12.2267C14.0361 12.2234 14.0361 12.22 14.0361 12.2167C14.0361 12.2134 14.0361 12.2101 14.0361 12.2068C14.0361 12.2035 14.0361 12.2001 14.0361 12.1968C14.0361 12.1935 14.0361 12.1903 14.0361 12.187C14.0361 12.1837 14.0361 12.1804 14.0361 12.1771C14.0361 12.1739 14.0361 12.1706 14.0361 12.1673C14.0361 12.1641 14.0361 12.1608 14.0361 12.1576C14.0361 12.1543 14.0361 12.1511 14.0361 12.1479C14.0361 12.1446 14.0361 12.1414 14.0361 12.1382C14.0361 12.135 14.0361 12.1317 14.0361 12.1285C14.0361 12.1253 14.0361 12.1221 14.0361 12.1189C14.0361 12.1158 14.0361 12.1126 14.0361 12.1094C14.0361 12.1062 14.0361 12.103 14.0361 12.0999C14.0361 12.0967 14.0361 12.0936 14.0361 12.0904C14.0361 12.0873 14.0361 12.0841 14.0361 12.081C14.0361 12.0779 14.0361 12.0747 14.0361 12.0716C14.0361 12.0685 14.0361 12.0654 14.0361 12.0623C14.0361 12.0592 14.0361 12.0561 14.0361 12.053C14.0361 12.0499 14.0361 12.0468 14.0361 12.0437C14.0361 12.0406 14.0361 12.0376 14.0361 12.0345C14.0361 12.0314 14.0361 12.0284 14.0361 12.0253C14.0361 12.0223 14.0361 12.0192 14.0361 12.0162C14.0361 12.0132 14.0361 12.0101 14.0361 12.0071C14.0361 12.0041 14.0361 12.0011 14.0361 11.9981C14.0361 11.9951 14.0361 11.9921 14.0361 11.9891C14.0361 11.9861 14.0361 11.9831 14.0361 11.9801C14.0361 11.9772 14.0361 11.9742 14.0361 11.9712C14.0361 11.9683 14.0361 11.9653 14.0361 11.9624C14.0361 11.9594 14.0361 11.9565 14.0361 11.9536C14.0361 11.9506 14.0361 11.9477 14.0361 11.9448C14.0361 11.9419 14.0361 11.939 14.0361 11.9361C14.0361 11.9332 14.0361 11.9303 14.0361 11.9274C14.0361 11.9245 14.0361 11.9216 14.0361 11.9188C14.0361 11.9159 14.0361 11.913 14.0361 11.9102C14.0361 11.9073 14.0361 11.9045 14.0361 11.9016C14.0361 11.8988 14.0361 11.896 14.0361 11.8931C14.0361 11.8903 14.0361 11.8875 14.0361 11.8847C14.0361 11.8819 14.0361 11.8791 14.0361 11.8763C14.0361 11.8735 14.0361 11.8707 14.0361 11.8679C14.0361 11.8652 14.0361 11.8624 14.0361 11.8596C14.0361 11.8569 14.0361 11.8541 14.0361 11.8514C14.0361 11.8486 14.0361 11.8459 14.0361 11.8432C14.0361 11.8404 14.0361 11.8377 14.0361 11.835C14.0361 11.8323 14.0361 11.8296 14.0361 11.8269C14.0361 11.8242 14.0361 11.8215 14.0361 11.8188C14.0361 11.8161 14.0361 11.8135 14.0361 11.8108C14.0361 11.8081 14.0361 11.8055 14.0361 11.8028C14.0361 11.8002 14.0361 11.7975 14.0361 11.7949C14.0361 11.7923 14.0361 11.7896 14.0361 11.787C14.0361 11.7844 14.0361 11.7818 14.0361 11.7792C14.0361 11.7766 14.0361 11.774 14.0361 11.7714C14.0361 11.7689 14.0361 11.7663 14.0361 11.7637C14.0361 11.7612 14.0361 11.7586 14.0361 11.756C14.0361 11.7535 14.0361 11.751 14.0361 11.7484C14.0361 11.7459 14.0361 11.7434 14.0361 11.7409C14.0361 11.7383 14.0361 11.7358 14.0361 11.7333C14.0361 11.7308 14.0361 11.7283 14.0361 11.7259C14.0361 11.7234 14.0361 11.7209 14.0361 11.7184C14.0361 11.716 14.0361 11.7135 14.0361 11.7111C14.0361 11.7086 14.0361 11.7062 14.0361 11.7038C14.0361 11.7013 14.0361 11.6989 14.0361 11.6965C14.0361 11.6941 14.0361 11.6917 14.0361 11.6893C14.0361 11.6869 14.0361 11.6845 14.0361 11.6821C14.0361 11.6797 14.0361 11.6774 14.0361 11.675C14.0361 11.6726 14.0361 11.6703 14.0361 11.668C14.0361 11.6656 14.0361 11.6633 14.0361 11.6609C14.0361 11.6586 14.0361 11.6563 14.0361 11.654C14.0361 11.6517 14.0361 11.6494 14.0361 11.6471C14.0361 11.6448 14.0361 11.6425 14.0361 11.6403C14.0361 11.638 14.0361 11.6357 14.0361 11.6335C14.0361 11.6312 14.0361 11.629 14.0361 11.6267C14.0361 11.6245 14.0361 11.6223 14.0361 11.62C14.0361 11.6178 14.0361 11.6156 14.0361 11.6134C14.0361 11.6112 14.0361 11.609 14.0361 11.6068C14.0361 11.6047 14.0361 11.6025 14.0361 11.6003C14.0361 11.5981 14.0361 11.596 14.0361 11.5938C14.0361 11.5917 14.0361 11.5896 14.0361 11.5874C14.0361 11.5853 14.0361 11.5832 14.0361 11.5811C14.0361 11.579 14.0361 11.5769 14.0361 11.5748C14.0361 11.5727 14.0361 11.5706 14.0361 11.5685C14.0361 11.5665 14.0361 11.5644 14.0361 11.5623C14.0361 11.5603 14.0361 11.5582 14.0361 11.5562C14.0361 11.5542 14.0361 11.5521 14.0361 11.5501C14.0361 11.5481 14.0361 11.5461 14.0361 11.5441C14.0361 11.5421 14.0361 11.5401 14.0361 11.5381C14.0361 11.5362 14.0361 11.5342 14.0361 11.5322C14.0361 11.5303 14.0361 11.5283 14.0361 11.5264C14.0361 11.5244 14.0361 11.5225 14.0361 11.5206C14.0361 11.5187 14.0361 11.5168 14.0361 11.5149C14.0361 11.513 14.0361 11.5111 14.0361 11.5092C14.0361 11.5073 14.0361 11.5054 14.0361 11.5036C14.0361 11.5017 14.0361 11.4998 14.0361 11.498C14.0361 11.4961 14.0361 11.4943 14.0361 11.4925C14.0361 11.4907 14.0361 11.4888 14.0361 11.487C14.0361 11.4852 14.0361 11.4834 14.0361 11.4816C14.0361 11.4799 14.0361 11.4781 14.0361 11.4763C14.0361 11.4746 14.0361 11.4728 14.0361 11.471C14.0361 11.4693 14.0361 11.4676 14.0361 11.4658C14.0361 11.4641 14.0361 11.4624 14.0361 11.4607C14.0361 11.459 14.0361 11.4573 14.0361 11.4556C14.0361 11.4539 14.0361 11.4522 14.0361 11.4506C14.0361 11.4489 14.0361 11.4472 14.0361 11.4456C14.0361 11.4439 14.0361 11.4423 14.0361 11.4407C14.0361 11.439 14.0361 11.4374 14.0361 11.4358C14.0361 11.4342 14.0361 11.4326 14.0361 11.431C14.0361 11.4294 14.0361 11.4279 14.0361 11.4263C14.0361 11.4247 14.0361 11.4232 14.0361 11.4216C14.0361 11.4201 14.0361 11.4185 14.0361 11.417C14.0361 11.4155 14.0361 11.414 14.0361 11.4125C14.0361 11.411 14.0361 11.4095 14.0361 11.408C14.0361 11.4065 14.0361 11.405 14.0361 11.4036C14.0361 11.4021 14.0361 11.4006 14.0361 11.3992C14.0361 11.3978 14.0361 11.3963 14.0361 11.3949C14.0361 11.3935 14.0361 11.3921 14.0361 11.3907C14.0361 11.3893 14.0361 11.3879 14.0361 11.3865C14.0361 11.3851 14.0361 11.3837 14.0361 11.3824C14.0361 11.381 14.0361 11.3797 14.0361 11.3783C14.0361 11.377 14.0361 11.3757 14.0361 11.3744C14.0361 11.373 14.0361 11.3717 14.0361 11.3704C14.0361 11.3691 14.0361 11.3678 14.0361 11.3666C14.0361 11.3653 14.0361 11.364 14.0361 11.3628C14.0361 11.3615 14.0361 11.3603 14.0361 11.3591C14.0361 11.3578 14.0361 11.3566 14.0361 11.3554C14.0361 11.3542 14.0361 11.353 14.0361 11.3518C14.0361 11.3506 14.0361 11.3494 14.0361 11.3483C14.0361 11.3471 14.0361 11.3459 14.0361 11.3448C14.0361 11.3436 14.0361 11.3425 14.0361 11.3414C14.0361 11.3402 14.0361 11.3391 14.0361 11.338C14.0361 11.3369 14.0361 11.3358 14.0361 11.3348C14.0361 11.3337 14.0361 11.3326 14.0361 11.3316C14.0361 11.3305 14.0361 11.3294 14.0361 11.3284C14.0361 11.3274 14.0361 11.3263 14.0361 11.3253C14.0361 11.3243 14.0361 11.3233 14.0361 11.3223C14.0361 11.3213 14.0361 11.3203 14.0361 11.3194C14.0361 11.3184 14.0361 11.3174 14.0361 11.3165C14.0361 11.3156 14.0361 11.3146 14.0361 11.3137C14.0361 11.3128 14.0361 11.3118 14.0361 11.3109C14.0361 11.31 14.0361 11.3092 14.0361 11.3083C14.0361 11.3074 14.0361 11.3065 14.0361 11.3057C14.0361 11.3048 14.0361 11.304 14.0361 11.3031C14.0361 11.3023 14.0361 11.3015 14.0361 11.3007C14.0361 11.2998 14.0361 11.299 14.0361 11.2982C14.0361 11.2975 14.0361 11.2967 14.0361 11.2959C14.0361 11.2951 14.0361 11.2944 14.0361 11.2936C14.0361 11.2929 14.0361 11.2922 14.0361 11.2914C14.0361 11.2907 14.0361 11.29 14.0361 11.2893C14.0361 11.2886 14.0361 11.2879 14.0361 11.2873C14.0361 11.2866 14.0361 11.2859 14.0361 11.2853C14.0361 11.2846 14.0361 11.284 14.0361 11.2833C14.0361 11.2827 14.0361 11.2821 14.0361 11.2815C14.0361 11.2809 14.0361 11.2803 14.0361 11.2797C14.0361 11.2791 14.0361 11.2786 14.0361 11.278C14.0361 11.2774 14.0361 11.2769 14.0361 11.2764C14.0361 11.2758 14.0361 11.2753 14.0361 11.2748C14.0361 11.2743 14.0361 11.2738 14.0361 11.2733C14.0361 11.2728 14.0361 11.2723 14.0361 11.2719C14.0361 11.2714 14.0361 11.271 14.0361 11.2705C14.0361 11.2701 14.0361 11.2696 14.0361 11.2692C14.0361 11.2688 14.0361 11.2684 14.0361 11.268C14.0361 11.2676 14.0361 11.2672 14.0361 11.2669C14.0361 11.2665 14.0361 11.2662 14.0361 11.2658C14.0361 11.2655 14.0361 11.2651 14.0361 11.2648C14.0361 11.2645 14.0361 11.2642 14.0361 11.2639C14.0361 11.2636 14.0361 11.2633 14.0361 11.263C14.0361 11.2628 14.0361 11.2625 14.0361 11.2623C14.0361 11.262 14.0361 11.2618 14.0361 11.2616C14.0361 11.2613 14.0361 11.2611 14.0361 11.2609C14.0361 11.2607 14.0361 11.2605 14.0361 11.2604C14.0361 11.2602 14.0361 11.26 14.0361 11.2599C14.0361 11.2597 14.0361 11.2596 14.0361 11.2595C14.0361 11.2593 14.0361 11.2592 14.0361 11.2591C14.0361 11.259 14.0361 11.2589 14.0361 11.2589C14.0361 11.2588 14.0361 11.2587 14.0361 11.2587C14.0361 11.2586 14.0361 11.2586 14.0361 11.2586C14.0361 11.2585 14.0361 11.2585 11.5361 11.2585ZM11.1292 14.0595C9.81649 14.276 8.52649 14.7279 7.49413 15.4403C6.51281 16.1174 5.36279 17.339 5.36279 19.1122H10.3628C10.3628 19.6832 10.0022 19.7844 10.334 19.5555C10.6146 19.3618 11.1613 19.1218 11.943 18.9928L11.1292 14.0595ZM5.36279 19.1122C5.36279 21.2641 7.01351 22.595 8.22418 23.2336C9.57738 23.9473 11.2769 24.3279 13.0108 24.3279V19.3279C11.9544 19.3279 11.08 19.087 10.5567 18.811C10.2963 18.6736 10.2085 18.5732 10.2101 18.5752C10.2222 18.59 10.3628 18.7777 10.3628 19.1122H5.36279ZM13.0108 24.3279C14.7449 24.3279 16.4447 23.9473 17.7981 23.2337C19.0088 22.5954 20.6603 21.2645 20.6603 19.1122H15.6603C15.6603 18.7774 15.8011 18.5896 15.8132 18.5749C15.8147 18.5729 15.7268 18.6734 15.4662 18.8108C14.9425 19.0869 14.0676 19.3279 13.0108 19.3279V24.3279ZM20.6603 19.1122C20.6603 17.338 19.5086 16.1164 18.5276 15.4398C17.495 14.7276 16.2048 14.2758 14.8921 14.0594L14.0789 18.9929C14.8603 19.1217 15.4075 19.3618 15.6888 19.5558C16.0217 19.7853 15.6603 19.6842 15.6603 19.1122H20.6603ZM16.9855 16.5261V11.2585H11.9855V16.5261H16.9855ZM13.5654 7.83901L12.4549 7.83919L12.4557 12.8392L13.5662 12.839L13.5654 7.83901ZM16.9855 11.2585C16.9855 9.36977 15.4542 7.83871 13.5654 7.83901L13.5662 12.839C12.6933 12.8392 11.9855 12.1315 11.9855 11.2585H16.9855ZM14.0361 11.2585V11.2585C14.0361 11.2585 11.5361 11.2585 9.03611 11.2585C9.03611 11.2585 9.03611 11.2585 9.03611 11.2585C9.03611 11.2585 9.03611 11.2585 11.5361 11.2585C14.0361 11.2585 14.0361 11.2585 14.0361 11.2585C14.0361 11.2585 14.0361 11.2585 14.0361 11.2585C11.5361 11.2585 9.03611 11.2585 9.03611 11.2585V11.2585H14.0361ZM14.0361 11.2585C14.0361 12.1314 13.3286 12.8391 12.4557 12.8392L12.4549 7.83919C10.5667 7.83949 9.03611 9.37029 9.03611 11.2585H14.0361Z" fill="#2E2F37" mask="url(#path-2-inside-1)"/>
</svg>
